<svg xmlns="http://www.w3.org/2000/svg" xmlns:xlink="http://www.w3.org/1999/xlink" viewBox="0 0 235.25 236.34"><defs><style>.cls-1{fill:none;}.cls-2{clip-path:url(#clip-path);}.cls-3{isolation:isolate;}.cls-4{clip-path:url(#clip-path-4);}.cls-5{opacity:0.4;}.cls-6{clip-path:url(#clip-path-5);}.cls-7{fill:#73a6c8;}.cls-8{clip-path:url(#clip-path-6);}.cls-9{clip-path:url(#clip-path-7);}.cls-10{clip-path:url(#clip-path-8);}.cls-11{clip-path:url(#clip-path-9);}.cls-12{clip-path:url(#clip-path-10);}.cls-13{clip-path:url(#clip-path-11);}.cls-14{clip-path:url(#clip-path-12);}.cls-15{clip-path:url(#clip-path-13);}.cls-16{clip-path:url(#clip-path-14);}.cls-17{clip-path:url(#clip-path-15);}.cls-18{clip-path:url(#clip-path-16);}.cls-19{clip-path:url(#clip-path-17);}.cls-20{clip-path:url(#clip-path-18);}.cls-21{clip-path:url(#clip-path-19);}.cls-22{clip-path:url(#clip-path-20);}.cls-23{clip-path:url(#clip-path-21);}.cls-24{clip-path:url(#clip-path-22);}.cls-25{clip-path:url(#clip-path-23);}.cls-26{clip-path:url(#clip-path-24);}.cls-27{clip-path:url(#clip-path-25);}.cls-28{clip-path:url(#clip-path-26);}.cls-29{clip-path:url(#clip-path-27);}.cls-30{clip-path:url(#clip-path-28);}.cls-31{clip-path:url(#clip-path-29);}.cls-32{clip-path:url(#clip-path-30);}.cls-33{clip-path:url(#clip-path-31);}.cls-34{clip-path:url(#clip-path-32);}.cls-35{clip-path:url(#clip-path-33);}.cls-36{clip-path:url(#clip-path-34);}.cls-37{clip-path:url(#clip-path-35);}.cls-38{clip-path:url(#clip-path-36);}.cls-39{clip-path:url(#clip-path-37);}.cls-40{clip-path:url(#clip-path-38);}.cls-41{clip-path:url(#clip-path-39);}.cls-42{clip-path:url(#clip-path-40);}.cls-43{clip-path:url(#clip-path-41);}.cls-44{clip-path:url(#clip-path-42);}.cls-45{clip-path:url(#clip-path-43);}.cls-46{clip-path:url(#clip-path-44);}.cls-47{clip-path:url(#clip-path-45);}.cls-48{clip-path:url(#clip-path-46);}.cls-49{clip-path:url(#clip-path-47);}.cls-50{clip-path:url(#clip-path-48);}.cls-51{clip-path:url(#clip-path-49);}.cls-52{clip-path:url(#clip-path-50);}.cls-53{clip-path:url(#clip-path-51);}.cls-54{clip-path:url(#clip-path-52);}.cls-55{clip-path:url(#clip-path-53);}.cls-56{clip-path:url(#clip-path-54);}.cls-57{clip-path:url(#clip-path-55);}.cls-58{clip-path:url(#clip-path-56);}.cls-59{clip-path:url(#clip-path-57);}.cls-60{clip-path:url(#clip-path-58);}.cls-61{clip-path:url(#clip-path-59);}.cls-62{clip-path:url(#clip-path-60);}.cls-63{clip-path:url(#clip-path-61);}.cls-64{clip-path:url(#clip-path-62);}.cls-65{clip-path:url(#clip-path-63);}.cls-66{clip-path:url(#clip-path-64);}.cls-67{clip-path:url(#clip-path-65);}.cls-68{clip-path:url(#clip-path-66);}.cls-69{clip-path:url(#clip-path-67);}.cls-70{clip-path:url(#clip-path-68);}.cls-71{clip-path:url(#clip-path-69);}.cls-72{clip-path:url(#clip-path-70);}.cls-73{clip-path:url(#clip-path-71);}.cls-74{clip-path:url(#clip-path-72);}.cls-75{clip-path:url(#clip-path-73);}.cls-76{clip-path:url(#clip-path-74);}.cls-77{clip-path:url(#clip-path-75);}.cls-78{clip-path:url(#clip-path-76);}.cls-79{clip-path:url(#clip-path-77);}.cls-80{clip-path:url(#clip-path-78);}.cls-81{clip-path:url(#clip-path-79);}.cls-82{clip-path:url(#clip-path-80);}.cls-83{clip-path:url(#clip-path-81);}.cls-84{clip-path:url(#clip-path-82);}.cls-85{clip-path:url(#clip-path-83);}.cls-86{clip-path:url(#clip-path-84);}.cls-87{clip-path:url(#clip-path-85);}.cls-88{clip-path:url(#clip-path-86);}.cls-89{clip-path:url(#clip-path-87);}.cls-90{clip-path:url(#clip-path-88);}.cls-91{clip-path:url(#clip-path-89);}.cls-92{clip-path:url(#clip-path-90);}.cls-93{clip-path:url(#clip-path-91);}.cls-94{clip-path:url(#clip-path-92);}.cls-95{clip-path:url(#clip-path-93);}.cls-96{clip-path:url(#clip-path-94);}.cls-97{clip-path:url(#clip-path-95);}.cls-98{clip-path:url(#clip-path-96);}.cls-99{clip-path:url(#clip-path-97);}.cls-100{clip-path:url(#clip-path-98);}.cls-101{clip-path:url(#clip-path-99);}.cls-102{clip-path:url(#clip-path-100);}.cls-103{clip-path:url(#clip-path-101);}.cls-104{clip-path:url(#clip-path-102);}.cls-105{clip-path:url(#clip-path-103);}.cls-106{clip-path:url(#clip-path-104);}.cls-107{clip-path:url(#clip-path-105);}.cls-108{clip-path:url(#clip-path-106);}.cls-109{clip-path:url(#clip-path-107);}.cls-110{clip-path:url(#clip-path-108);}.cls-111{clip-path:url(#clip-path-109);}.cls-112{clip-path:url(#clip-path-110);}.cls-113{clip-path:url(#clip-path-111);}.cls-114{clip-path:url(#clip-path-112);}.cls-115{clip-path:url(#clip-path-113);}.cls-116{clip-path:url(#clip-path-114);}.cls-117{clip-path:url(#clip-path-115);}.cls-118{clip-path:url(#clip-path-116);}.cls-119{clip-path:url(#clip-path-117);}.cls-120{clip-path:url(#clip-path-118);}.cls-121{clip-path:url(#clip-path-119);}.cls-122{clip-path:url(#clip-path-120);}.cls-123{clip-path:url(#clip-path-121);}.cls-124{clip-path:url(#clip-path-122);}.cls-125{clip-path:url(#clip-path-123);}.cls-126{clip-path:url(#clip-path-124);}.cls-127{clip-path:url(#clip-path-125);}.cls-128{clip-path:url(#clip-path-126);}.cls-129{clip-path:url(#clip-path-127);}.cls-130{clip-path:url(#clip-path-128);}.cls-131{clip-path:url(#clip-path-129);}.cls-132{clip-path:url(#clip-path-130);}.cls-133{clip-path:url(#clip-path-131);}.cls-134{clip-path:url(#clip-path-132);}.cls-135{clip-path:url(#clip-path-133);}.cls-136{clip-path:url(#clip-path-134);}.cls-137{clip-path:url(#clip-path-135);}.cls-138{clip-path:url(#clip-path-136);}.cls-139{clip-path:url(#clip-path-137);}.cls-140{clip-path:url(#clip-path-138);}.cls-141{clip-path:url(#clip-path-139);}.cls-142{clip-path:url(#clip-path-140);}.cls-143{clip-path:url(#clip-path-141);}.cls-144{clip-path:url(#clip-path-142);}.cls-145{clip-path:url(#clip-path-143);}.cls-146{clip-path:url(#clip-path-144);}.cls-147{clip-path:url(#clip-path-145);}.cls-148{clip-path:url(#clip-path-146);}.cls-149{clip-path:url(#clip-path-147);}.cls-150{clip-path:url(#clip-path-148);}.cls-151{clip-path:url(#clip-path-149);}.cls-152{clip-path:url(#clip-path-150);}.cls-153{clip-path:url(#clip-path-151);}.cls-154{clip-path:url(#clip-path-152);}.cls-155{clip-path:url(#clip-path-153);}.cls-156{clip-path:url(#clip-path-154);}.cls-157{clip-path:url(#clip-path-155);}.cls-158{clip-path:url(#clip-path-156);}.cls-159{clip-path:url(#clip-path-157);}.cls-160{clip-path:url(#clip-path-158);}.cls-161{clip-path:url(#clip-path-159);}.cls-162{clip-path:url(#clip-path-160);}.cls-163{clip-path:url(#clip-path-161);}.cls-164{clip-path:url(#clip-path-162);}.cls-165{clip-path:url(#clip-path-163);}.cls-166{clip-path:url(#clip-path-164);}.cls-167{clip-path:url(#clip-path-165);}.cls-168{clip-path:url(#clip-path-166);}</style><clipPath id="clip-path"><rect class="cls-1" width="235.25" height="236.34"/></clipPath><clipPath id="clip-path-4"><rect class="cls-1" x="1.35" y="1" width="232.45" height="234.33"/></clipPath><clipPath id="clip-path-5"><rect class="cls-1" x="229.24" y="84.15" width="1.15" height="4.16"/></clipPath><clipPath id="clip-path-6"><rect class="cls-1" x="231.58" y="93.19" width="0.38" height="1.73"/></clipPath><clipPath id="clip-path-7"><rect class="cls-1" x="227.44" y="143.82" width="4" height="11.8"/></clipPath><clipPath id="clip-path-8"><rect class="cls-1" x="223.87" y="159.88" width="2.11" height="6.55"/></clipPath><clipPath id="clip-path-9"><rect class="cls-1" x="118.77" y="234.96" width="7.82" height="0.11"/></clipPath><clipPath id="clip-path-10"><rect class="cls-1" x="29.65" y="39.18" width="3.78" height="1.09"/></clipPath><clipPath id="clip-path-11"><rect class="cls-1" x="150.84" y="5.97" width="9.02" height="3.11"/></clipPath><clipPath id="clip-path-12"><rect class="cls-1" x="216.04" y="161.59" width="9.12" height="19.3"/></clipPath><clipPath id="clip-path-13"><rect class="cls-1" x="73.04" y="8.27" width="4.44" height="1.32"/></clipPath><clipPath id="clip-path-14"><rect class="cls-1" x="52.97" y="9.19" width="22.24" height="10.95"/></clipPath><clipPath id="clip-path-15"><rect class="cls-1" x="80.93" y="1.06" width="32.46" height="6"/></clipPath><clipPath id="clip-path-16"><rect class="cls-1" x="78.28" y="7.05" width="15.5" height="1.24"/></clipPath><clipPath id="clip-path-17"><rect class="cls-1" x="103.73" y="234.58" width="1.51" height="0.16"/></clipPath><clipPath id="clip-path-18"><rect class="cls-1" x="29.65" y="196.08" width="0.74" height="0.83"/></clipPath><clipPath id="clip-path-19"><rect class="cls-1" x="62.46" y="219.48" width="3.3" height="4.01"/></clipPath><clipPath id="clip-path-20"><rect class="cls-1" x="4.68" y="42.06" width="26.64" height="43.02"/></clipPath><clipPath id="clip-path-21"><rect class="cls-1" x="3.54" y="88.59" width="19.41" height="5.64"/></clipPath><clipPath id="clip-path-22"><rect class="cls-1" x="28.63" y="194.83" width="31.81" height="23.02"/></clipPath><clipPath id="clip-path-23"><rect class="cls-1" x="26.74" y="192.56" width="26.44" height="1.22"/></clipPath><clipPath id="clip-path-24"><rect class="cls-1" x="20.38" y="151.18" width="12.86" height="40.15"/></clipPath><clipPath id="clip-path-25"><rect class="cls-1" x="1.35" y="96.14" width="21.41" height="42.17"/></clipPath><clipPath id="clip-path-26"><rect class="cls-1" x="3.47" y="146.84" width="28.89" height="2.66"/></clipPath><clipPath id="clip-path-27"><rect class="cls-1" x="201.31" y="176.82" width="7.8" height="17.36"/></clipPath><clipPath id="clip-path-28"><rect class="cls-1" x="109.36" y="235.09" width="3.41" height="0.1"/></clipPath><clipPath id="clip-path-29"><rect class="cls-1" x="65.19" y="220.83" width="41.22" height="14.03"/></clipPath><clipPath id="clip-path-30"><rect class="cls-1" x="119.06" y="231.75" width="16.9" height="3.22"/></clipPath><clipPath id="clip-path-31"><rect class="cls-1" x="23.16" y="42.03" width="9.43" height="48.61"/></clipPath><clipPath id="clip-path-32"><rect class="cls-1" x="37.11" y="9.85" width="36.96" height="26.32"/></clipPath><clipPath id="clip-path-33"><rect class="cls-1" x="59.85" y="9.13" width="16.27" height="25.09"/></clipPath><clipPath id="clip-path-34"><rect class="cls-1" x="35.22" y="35.94" width="23.41" height="3.45"/></clipPath><clipPath id="clip-path-35"><rect class="cls-1" x="54.58" y="195.69" width="7.47" height="22.16"/></clipPath><clipPath id="clip-path-36"><rect class="cls-1" x="66.64" y="220.93" width="43.34" height="14"/></clipPath><clipPath id="clip-path-37"><rect class="cls-1" x="65.62" y="220.13" width="37.25" height="12.13"/></clipPath><clipPath id="clip-path-38"><rect class="cls-1" x="25.13" y="98.5" width="8.8" height="46.62"/></clipPath><clipPath id="clip-path-39"><rect class="cls-1" x="26.91" y="38.93" width="31.39" height="51.16"/></clipPath><clipPath id="clip-path-40"><rect class="cls-1" x="59.91" y="38.54" width="20.58" height="65.29"/></clipPath><clipPath id="clip-path-41"><rect class="cls-1" x="27.79" y="94.63" width="50.45" height="12.3"/></clipPath><clipPath id="clip-path-42"><rect class="cls-1" x="63.3" y="8.57" width="28.69" height="24.42"/></clipPath><clipPath id="clip-path-43"><rect class="cls-1" x="63.56" y="25.44" width="42.03" height="10.06"/></clipPath><clipPath id="clip-path-44"><rect class="cls-1" x="37.19" y="109.9" width="41.61" height="37.2"/></clipPath><clipPath id="clip-path-45"><rect class="cls-1" x="58.06" y="196.68" width="44.19" height="35.02"/></clipPath><clipPath id="clip-path-46"><rect class="cls-1" x="36.27" y="153.56" width="17.22" height="36.69"/></clipPath><clipPath id="clip-path-47"><rect class="cls-1" x="38.25" y="149.31" width="48.69" height="5.28"/></clipPath><clipPath id="clip-path-48"><rect class="cls-1" x="58.45" y="194.51" width="35.47" height="12.71"/></clipPath><clipPath id="clip-path-49"><rect class="cls-1" x="90.9" y="158.99" width="5.57" height="46.11"/></clipPath><clipPath id="clip-path-50"><rect class="cls-1" x="56.18" y="157.06" width="32" height="34.74"/></clipPath><clipPath id="clip-path-51"><rect class="cls-1" x="94.12" y="7.81" width="12.39" height="15.97"/></clipPath><clipPath id="clip-path-52"><rect class="cls-1" x="116.63" y="1" width="0.47"/></clipPath><clipPath id="clip-path-53"><rect class="cls-1" x="94.35" y="1.01" width="21.49" height="5.75"/></clipPath><clipPath id="clip-path-54"><rect class="cls-1" x="96.66" y="1" width="20.61" height="5.66"/></clipPath><clipPath id="clip-path-55"><rect class="cls-1" x="112.53" y="235.02" width="5.71" height="0.17"/></clipPath><clipPath id="clip-path-56"><rect class="cls-1" x="105" y="233.13" width="6.4" height="1.91"/></clipPath><clipPath id="clip-path-57"><rect class="cls-1" x="179.62" y="19.11" width="2.46" height="3.55"/></clipPath><clipPath id="clip-path-58"><rect class="cls-1" x="95.81" y="210.35" width="7.45" height="21.47"/></clipPath><clipPath id="clip-path-59"><rect class="cls-1" x="105.73" y="232.82" width="12.65" height="2.16"/></clipPath><clipPath id="clip-path-60"><rect class="cls-1" x="109.72" y="1.05" width="8.95" height="21.61"/></clipPath><clipPath id="clip-path-61"><rect class="cls-1" x="119.47" y="228.25" width="9.44" height="6.43"/></clipPath><clipPath id="clip-path-62"><rect class="cls-1" x="99.08" y="210.17" width="20.04" height="24.56"/></clipPath><clipPath id="clip-path-63"><rect class="cls-1" x="98.99" y="192.8" width="27.22" height="14.06"/></clipPath><clipPath id="clip-path-64"><rect class="cls-1" x="99.77" y="209.15" width="30.19" height="16.92"/></clipPath><clipPath id="clip-path-65"><rect class="cls-1" x="83.34" y="27.7" width="24.25" height="75.43"/></clipPath><clipPath id="clip-path-66"><rect class="cls-1" x="202.55" y="159.31" width="22.44" height="15.68"/></clipPath><clipPath id="clip-path-67"><rect class="cls-1" x="85.34" y="55.23" width="46.5" height="49.14"/></clipPath><clipPath id="clip-path-68"><rect class="cls-1" x="94.17" y="157.62" width="33.23" height="31.42"/></clipPath><clipPath id="clip-path-69"><rect class="cls-1" x="95.44" y="154.78" width="65.33" height="6.07"/></clipPath><clipPath id="clip-path-70"><rect class="cls-1" x="82.64" y="112.11" width="7.87" height="38.44"/></clipPath><clipPath id="clip-path-71"><rect class="cls-1" x="86.71" y="107.42" width="73.16" height="4.58"/></clipPath><clipPath id="clip-path-72"><rect class="cls-1" x="94.58" y="113.9" width="66" height="39.02"/></clipPath><clipPath id="clip-path-73"><rect class="cls-1" x="109.84" y="27.01" width="21.64" height="23.04"/></clipPath><clipPath id="clip-path-74"><rect class="cls-1" x="110.3" y="3.83" width="12.71" height="19.24"/></clipPath><clipPath id="clip-path-75"><rect class="cls-1" x="111.28" y="18.39" width="34.71" height="6.45"/></clipPath><clipPath id="clip-path-76"><rect class="cls-1" x="141.53" y="5.51" width="40.75" height="36.39"/></clipPath><clipPath id="clip-path-77"><rect class="cls-1" x="182.32" y="24.18" width="4.11" height="19.39"/></clipPath><clipPath id="clip-path-78"><rect class="cls-1" x="139.79" y="5.06" width="8.23" height="11.73"/></clipPath><clipPath id="clip-path-79"><rect class="cls-1" x="124.13" y="3.83" width="20.82" height="12.64"/></clipPath><clipPath id="clip-path-80"><rect class="cls-1" x="164.1" y="116.51" width="1.62" height="40.15"/></clipPath><clipPath id="clip-path-81"><rect class="cls-1" x="117.15" y="1" width="19.73" height="3.11"/></clipPath><clipPath id="clip-path-82"><rect class="cls-1" x="117.63" y="1.04" width="3.69" height="1.39"/></clipPath><clipPath id="clip-path-83"><rect class="cls-1" x="123.47" y="3.12" width="14.19" height="1.24"/></clipPath><clipPath id="clip-path-84"><rect class="cls-1" x="150.41" y="19.92" width="30.48" height="22.87"/></clipPath><clipPath id="clip-path-85"><rect class="cls-1" x="135.76" y="19.96" width="12.13" height="29.99"/></clipPath><clipPath id="clip-path-86"><rect class="cls-1" x="168.01" y="105.72" width="28.1" height="5.87"/></clipPath><clipPath id="clip-path-87"><rect class="cls-1" x="135.71" y="55.97" width="26.85" height="51.65"/></clipPath><clipPath id="clip-path-88"><rect class="cls-1" x="137.7" y="45.41" width="44.17" height="7.1"/></clipPath><clipPath id="clip-path-89"><rect class="cls-1" x="165.91" y="48.06" width="18.46" height="60.07"/></clipPath><clipPath id="clip-path-90"><rect class="cls-1" x="129.99" y="194.61" width="3.07" height="30.59"/></clipPath><clipPath id="clip-path-91"><rect class="cls-1" x="132.35" y="163.58" width="29.05" height="25.59"/></clipPath><clipPath id="clip-path-92"><rect class="cls-1" x="132.83" y="191.99" width="43.42" height="14.07"/></clipPath><clipPath id="clip-path-93"><rect class="cls-1" x="131.69" y="227.15" width="5.98" height="4.11"/></clipPath><clipPath id="clip-path-94"><rect class="cls-1" x="132.77" y="207.85" width="41.67" height="18.24"/></clipPath><clipPath id="clip-path-95"><rect class="cls-1" x="179.91" y="179.72" width="17.97" height="24.02"/></clipPath><clipPath id="clip-path-96"><rect class="cls-1" x="166.18" y="163.7" width="12.62" height="40.82"/></clipPath><clipPath id="clip-path-97"><rect class="cls-1" x="150.88" y="6.02" width="28.37" height="14.85"/></clipPath><clipPath id="clip-path-98"><rect class="cls-1" x="141.16" y="5.12" width="37.35" height="16.07"/></clipPath><clipPath id="clip-path-99"><rect class="cls-1" x="186.95" y="47.93" width="25.27" height="28.82"/></clipPath><clipPath id="clip-path-100"><rect class="cls-1" x="185.54" y="48.74" width="13.67" height="52.16"/></clipPath><clipPath id="clip-path-101"><rect class="cls-1" x="167.01" y="109.04" width="30.7" height="48.53"/></clipPath><clipPath id="clip-path-102"><rect class="cls-1" x="202.01" y="146.7" width="11.72" height="25.56"/></clipPath><clipPath id="clip-path-103"><rect class="cls-1" x="167.71" y="161.67" width="30.66" height="13.56"/></clipPath><clipPath id="clip-path-104"><rect class="cls-1" x="168.27" y="143.31" width="44.31" height="16.74"/></clipPath><clipPath id="clip-path-105"><rect class="cls-1" x="201.25" y="82.39" width="12.46" height="20.58"/></clipPath><clipPath id="clip-path-106"><rect class="cls-1" x="201.18" y="108.88" width="13.17" height="30.26"/></clipPath><clipPath id="clip-path-107"><rect class="cls-1" x="140.56" y="209.26" width="33.66" height="21.09"/></clipPath><clipPath id="clip-path-108"><rect class="cls-1" x="215.39" y="54.46" width="14.6" height="32.69"/></clipPath><clipPath id="clip-path-109"><rect class="cls-1" x="179.18" y="198.36" width="23.27" height="8.07"/></clipPath><clipPath id="clip-path-110"><rect class="cls-1" x="166.66" y="209.7" width="23.52" height="14.31"/></clipPath><clipPath id="clip-path-111"><rect class="cls-1" x="164.89" y="207.99" width="12.66" height="16.58"/></clipPath><clipPath id="clip-path-112"><rect class="cls-1" x="184.43" y="24.68" width="26.63" height="23.62"/></clipPath><clipPath id="clip-path-113"><rect class="cls-1" x="184.35" y="25.39" width="29.5" height="50.68"/></clipPath><clipPath id="clip-path-114"><rect class="cls-1" x="213.99" y="52.46" width="4.33" height="25.76"/></clipPath><clipPath id="clip-path-115"><rect class="cls-1" x="140.3" y="3.31" width="4.96" height="1.12"/></clipPath><clipPath id="clip-path-116"><rect class="cls-1" x="123.83" y="1.19" width="14.62" height="2.99"/></clipPath><clipPath id="clip-path-117"><rect class="cls-1" x="138.86" y="4.31" width="8.74" height="0.78"/></clipPath><clipPath id="clip-path-118"><rect class="cls-1" x="227.64" y="95.82" width="6.16" height="58.24"/></clipPath><clipPath id="clip-path-119"><rect class="cls-1" x="216.74" y="143.59" width="9.3" height="13.56"/></clipPath><clipPath id="clip-path-120"><rect class="cls-1" x="131.67" y="231.58" width="7.02" height="2.86"/></clipPath><clipPath id="clip-path-121"><rect class="cls-1" x="149.96" y="226.32" width="11.66" height="4.33"/></clipPath><clipPath id="clip-path-122"><rect class="cls-1" x="138.73" y="225.73" width="23.59" height="5.58"/></clipPath><clipPath id="clip-path-123"><rect class="cls-1" x="215.32" y="84.32" width="3.33" height="53.7"/></clipPath><clipPath id="clip-path-124"><rect class="cls-1" x="216.61" y="80.69" width="13.95" height="10.14"/></clipPath><clipPath id="clip-path-125"><rect class="cls-1" x="217.21" y="94.16" width="14.74" height="45.58"/></clipPath><clipPath id="clip-path-126"><rect class="cls-1" x="2.78" y="84.91" width="1.95" height="7.49"/></clipPath><clipPath id="clip-path-127"><rect class="cls-1" x="105.02" y="234.72" width="9.35" height="0.59"/></clipPath><clipPath id="clip-path-128"><rect class="cls-1" x="24.08" y="189.35" width="5.63" height="6.79"/></clipPath><clipPath id="clip-path-129"><rect class="cls-1" x="112.28" y="1" width="4.82" height="0.1"/></clipPath><clipPath id="clip-path-130"><rect class="cls-1" x="73.95" y="6.75" width="8.16" height="3.11"/></clipPath><clipPath id="clip-path-131"><rect class="cls-1" x="31.21" y="36.16" width="6.03" height="6.53"/></clipPath><clipPath id="clip-path-132"><rect class="cls-1" x="59.76" y="216.95" width="7.23" height="4.51"/></clipPath><clipPath id="clip-path-133"><rect class="cls-1" x="22.67" y="89.77" width="5.52" height="8.96"/></clipPath><clipPath id="clip-path-134"><rect class="cls-1" x="32.16" y="144.9" width="6.2" height="8.74"/></clipPath><clipPath id="clip-path-135"><rect class="cls-1" x="109.41" y="234.84" width="6.59" height="0.5"/></clipPath><clipPath id="clip-path-136"><rect class="cls-1" x="52.31" y="190.18" width="6.42" height="6.76"/></clipPath><clipPath id="clip-path-137"><rect class="cls-1" x="57.71" y="32.88" width="6.37" height="6.28"/></clipPath><clipPath id="clip-path-138"><rect class="cls-1" x="91.94" y="5.75" width="5.64" height="2.89"/></clipPath><clipPath id="clip-path-139"><rect class="cls-1" x="102.22" y="231.66" width="4.81" height="1.92"/></clipPath><clipPath id="clip-path-140"><rect class="cls-1" x="78.08" y="102.95" width="8.71" height="9.26"/></clipPath><clipPath id="clip-path-141"><rect class="cls-1" x="93.91" y="205.07" width="6" height="5.66"/></clipPath><clipPath id="clip-path-142"><rect class="cls-1" x="86.93" y="150.46" width="8.54" height="8.57"/></clipPath><clipPath id="clip-path-143"><rect class="cls-1" x="105.58" y="22.43" width="5.72" height="5.36"/></clipPath><clipPath id="clip-path-144"><rect class="cls-1" x="125.87" y="187.97" width="7.32" height="6.89"/></clipPath><clipPath id="clip-path-145"><rect class="cls-1" x="117.1" y="1" width="0.58" height="0.06"/></clipPath><clipPath id="clip-path-146"><rect class="cls-1" x="117.71" y="234.63" width="1.76" height="0.66"/></clipPath><clipPath id="clip-path-147"><rect class="cls-1" x="130.21" y="49.04" width="7.7" height="7.34"/></clipPath><clipPath id="clip-path-148"><rect class="cls-1" x="121.29" y="2.34" width="2.86" height="1.74"/></clipPath><clipPath id="clip-path-149"><rect class="cls-1" x="128.64" y="225.06" width="4.21" height="3.37"/></clipPath><clipPath id="clip-path-150"><rect class="cls-1" x="159.84" y="107.19" width="8.26" height="9.39"/></clipPath><clipPath id="clip-path-151"><rect class="cls-1" x="160.55" y="156.63" width="7.74" height="8.36"/></clipPath><clipPath id="clip-path-152"><rect class="cls-1" x="144.85" y="15.94" width="5.62" height="4.64"/></clipPath><clipPath id="clip-path-153"><rect class="cls-1" x="134.32" y="230.26" width="6.24" height="2.31"/></clipPath><clipPath id="clip-path-154"><rect class="cls-1" x="195.94" y="100.86" width="6.33" height="9.22"/></clipPath><clipPath id="clip-path-155"><rect class="cls-1" x="180.77" y="41.87" width="6.35" height="6.91"/></clipPath><clipPath id="clip-path-156"><rect class="cls-1" x="134.92" y="3.36" width="6.86" height="2.16"/></clipPath><clipPath id="clip-path-157"><rect class="cls-1" x="174" y="203.67" width="6.45" height="5.79"/></clipPath><clipPath id="clip-path-158"><rect class="cls-1" x="196.97" y="172.08" width="5.86" height="7.72"/></clipPath><clipPath id="clip-path-159"><rect class="cls-1" x="212.54" y="137.95" width="4.88" height="8.94"/></clipPath><clipPath id="clip-path-160"><rect class="cls-1" x="211.98" y="75.86" width="4.91" height="8.51"/></clipPath><clipPath id="clip-path-161"><rect class="cls-1" x="177.93" y="20.37" width="7.03" height="5.16"/></clipPath><clipPath id="clip-path-162"><rect class="cls-1" x="159.3" y="223.57" width="8.03" height="3.61"/></clipPath><clipPath id="clip-path-163"><rect class="cls-1" x="224.34" y="153.95" width="3.32" height="8.46"/></clipPath><clipPath id="clip-path-164"><rect class="cls-1" x="143.12" y="3.93" width="8.71" height="2.35"/></clipPath><clipPath id="clip-path-165"><rect class="cls-1" x="229.89" y="87.06" width="2.12" height="8.87"/></clipPath><clipPath id="clip-path-166"><rect class="cls-1" x="210.34" y="47.29" width="5.1" height="7.24"/></clipPath></defs><title>circle</title><g id="Слой_2" data-name="Слой 2"><g id="Слой_1-2" data-name="Слой 1"><g class="cls-2"><g class="cls-2"><g class="cls-3"><g class="cls-2"><g class="cls-4"><g class="cls-5"><g class="cls-6"><path class="cls-7" d="M229.23,84.15c.12.36.23.73.33,1.1l.82,3.06c-.21-.71-.21-.71-1.15-4.16"/></g></g><g class="cls-5"><g class="cls-8"><path class="cls-7" d="M231.7,93.77l-.12-.58.2.9.17.83-.24-1.07v-.08"/></g></g><g class="cls-5"><g class="cls-9"><path class="cls-7" d="M231.44,143.82c-.07.33-.15.67-.23,1-1,3.29-2.46,7.63-3.77,10.8.05-.18.06-.36.12-.54,1.15-3.38,2.91-7.82,3.88-11.26"/></g></g><g class="cls-5"><g class="cls-10"><path class="cls-7" d="M225.73,160.43l.24-.55a52.1,52.1,0,0,1-1.76,5.78l-.34.77a53.28,53.28,0,0,0,1.83-5.92l0-.08"/></g></g><g class="cls-5"><g class="cls-11"><path class="cls-7" d="M126.6,235l-.79.06c-.38,0-2.22,0-7,0a37.52,37.52,0,0,1,4.54-.08c2.68,0,3.17,0,3.29,0"/></g></g><g class="cls-5"><g class="cls-12"><path class="cls-7" d="M30.14,39.72a10.16,10.16,0,0,1,3.29-.54c-.08.1-.17.19-.26.29s-.08.22-.21.25a14.76,14.76,0,0,1-1.63.17,6,6,0,0,0-1.68.37l.49-.54"/></g></g><g class="cls-5"><g class="cls-13"><path class="cls-7" d="M151.21,6.08,150.84,6c2.37.8,5.54,1.8,7.88,2.67l1.14.44c-2.58-.91-6-2.16-8.61-3l0,0"/></g></g><g class="cls-5"><g class="cls-14"><path class="cls-7" d="M225,161.91a3.45,3.45,0,0,0,.2-.32c-3.61,9.74-3.75,10.12-8.39,18.14l-.73,1.15c5.35-9.28,5.56-9.65,8.9-18.93l0,0"/></g></g><g class="cls-5"><g class="cls-15"><path class="cls-7" d="M73.73,9.32a25.33,25.33,0,0,1,3.75-1.05c-.22.09-.44.19-.67.26-.46.14-1.09.26-1.56.37A21,21,0,0,0,73,9.6l.69-.28"/></g></g><g class="cls-5"><g class="cls-16"><path class="cls-7" d="M53.79,19.61c7.93-4.73,10.46-6.14,21.42-10.42-4,1.78-8.18,3.27-12.14,5.22C60,16,55.94,18.33,53,20.14l.82-.53"/></g></g><g class="cls-5"><g class="cls-17"><path class="cls-7" d="M113,1.07h.41C103.17,1.71,95.09,2.23,81.32,7l-.39.11c8.85-2.88,15.84-5.15,32-6h0"/></g></g><g class="cls-5"><g class="cls-18"><path class="cls-7" d="M93.78,7.05c-.13.07-.24.2-.4.22-5,.4-10.08.52-15.1,1,.62-.24,1.32-.51,15.5-1.24"/></g></g><g class="cls-5"><g class="cls-19"><path class="cls-7" d="M103.73,234.58l1.4.15.11,0-1.51-.17"/></g></g><g class="cls-5"><g class="cls-20"><path class="cls-7" d="M29.65,196.08l.75.83-.75-.83"/></g></g><g class="cls-5"><g class="cls-21"><path class="cls-7" d="M65.09,223.16c-1.81-1-1.85-1.07-2.54-2.16-.24-.39.05-1.09.22-1.52l.59.36c-.16.43-.43,1.13-.18,1.51a5,5,0,0,0,2.58,2.14l-.67-.33"/></g></g><g class="cls-5"><g class="cls-22"><path class="cls-7" d="M5,84.11c3.78-10.62,8.48-23.83,26.35-42-.86,2.38-3.95,4.39-5.67,6.24a98.09,98.09,0,0,0-21,36.78l.05-.17.24-.8"/></g></g><g class="cls-5"><g class="cls-23"><path class="cls-7" d="M3.56,89.25c0-.22.11-.44.17-.66.88,1.55,4.3,2.85,19.21,4.93-.07.32-.09.41-.14.71C9.55,92.41,4,91,3.54,89.33a.24.24,0,0,1,0-.08"/></g></g><g class="cls-5"><g class="cls-24"><path class="cls-7" d="M28.94,195.2l-.31-.37c9.09,9.11,15.22,13.91,31.53,22.77l.28.25c-16.23-8.72-22.35-13.5-31.46-22.6l0-.05"/></g></g><g class="cls-5"><g class="cls-25"><path class="cls-7" d="M27.18,193.09l-.44-.53c1.22.13,3.27.36,26.16.73.09.17.18.33.28.49-12.22,0-25.1-.51-26-.65l0,0"/></g></g><g class="cls-5"><g class="cls-26"><path class="cls-7" d="M33,151.18c.08.15.19.35.28.49-10.6,13.18-17.35,23.75-7.51,39.66-13.27-16.15,1.63-33.59,7.23-40.15"/></g></g><g class="cls-5"><g class="cls-27"><path class="cls-7" d="M1.51,137.44c-1.22-14.87,4.33-25.68,21.18-41.3,0,.15,0,.36.07.51C7.5,111.53.05,122.06,1.66,138.31l-.15-.87"/></g></g><g class="cls-5"><g class="cls-28"><path class="cls-7" d="M3.47,146.84c.69.34,2,1,28.77,2,0,.32.07.4.13.66-7.29-.21-28.2-1-28.71-1.93-.06-.24-.12-.49-.19-.73"/></g></g><g class="cls-5"><g class="cls-29"><path class="cls-7" d="M201.36,177.37c.16-.24.28-.45.34-.55,7.07,6,9.79,10.22,5,16.78l-.5.59c3.74-5.34,4-9.4-4.89-16.75l.05-.07"/></g></g><g class="cls-5"><g class="cls-30"><path class="cls-7" d="M110.08,235.13l-.72,0c.46,0,1,0,2.83.06l.57,0c-1.82,0-2.29,0-2.62-.05h-.06"/></g></g><g class="cls-5"><g class="cls-31"><path class="cls-7" d="M65.19,220.83l.44.2c5.11,2.74,9.77,6.33,15.33,8.22,10.45,3.56,14.39,4.28,25.45,5.61-24-2.2-36-10.49-41.22-14"/></g></g><g class="cls-5"><g class="cls-32"><path class="cls-7" d="M136,231.75c-1.12.46-15.29,2.94-16.9,3.22.09,0,.15-.06,3.59-.68,6.46-1.17,10.26-1.93,13.31-2.54"/></g></g><g class="cls-5"><g class="cls-33"><path class="cls-7" d="M32.25,42.28l.34-.25c-4.79,9-12,22.57-7.74,48.22-.14.11-.31.26-.44.38C22.9,79.22,20.62,62,32.2,42.32l0,0"/></g></g><g class="cls-5"><g class="cls-34"><path class="cls-7" d="M74,9.86h.11c-10.49,5.05-22.37,10.77-37,26.31,7.19-7.39,17-17.51,36.85-26.3h0"/></g></g><g class="cls-5"><g class="cls-35"><path class="cls-7" d="M75.62,9.32l.5-.19C69.8,12.6,58,19.07,60.69,33.81l-.51.4c-.7-6-1.87-16.06,15.37-24.87l.07,0"/></g></g><g class="cls-5"><g class="cls-36"><path class="cls-7" d="M58.62,35.94c-.14.21-.18.27-.33.52-12.79,1.3-17,1.87-23.07,2.93.35-.41,1-1.18,23.4-3.45"/></g></g><g class="cls-5"><g class="cls-37"><path class="cls-7" d="M54.81,195.69c.23.19.29.24.52.41-.63,7.7-.5,13.38,6.72,21.75-.09,0-9-6.06-7.24-22.16"/></g></g><g class="cls-5"><g class="cls-38"><path class="cls-7" d="M66.84,221.12l-.2-.19c12.48,6,25.16,11.51,43.09,14l.26,0c-10.62-1.54-22.69-3.88-43.13-13.79l0,0"/></g></g><g class="cls-5"><g class="cls-39"><path class="cls-7" d="M66,220.42c-.14-.09-.27-.19-.4-.29a305.33,305.33,0,0,0,37.07,12l.17.09a294.7,294.7,0,0,1-36.79-11.8.1.1,0,0,1,0,0"/></g></g><g class="cls-5"><g class="cls-40"><path class="cls-7" d="M25.18,98.65l.4-.15c.57,11.4,1.28,25.6,8.35,46.45a4.28,4.28,0,0,0-.46.17c-3.54-11.39-7.95-25.56-8.34-46.45l.05,0"/></g></g><g class="cls-5"><g class="cls-41"><path class="cls-7" d="M58.06,38.93l.25.14c-13,15.87-21.82,28.71-31.16,51l-.24-.14c7-17.11,14.29-30.94,31.15-51"/></g></g><g class="cls-5"><g class="cls-42"><path class="cls-7" d="M60.28,38.79l.46-.25c-1,16.24,1.85,32.07,19.75,64.9-.19.11-.44.26-.62.39-13.93-26.06-21.62-45-19.65-65l.06,0"/></g></g><g class="cls-5"><g class="cls-43"><path class="cls-7" d="M27.82,95.29c0-.14.09-.32.16-.66,7.79,2.27,19.56,5.7,50.26,11.74a5.67,5.67,0,0,0-.1.57A483.63,483.63,0,0,1,27.79,95.38l0-.09"/></g></g><g class="cls-5"><g class="cls-44"><path class="cls-7" d="M92,8.57C84,13.79,75.67,19.19,63.61,33l-.31-.09C70.07,25.54,78.48,16.38,92,8.57"/></g></g><g class="cls-5"><g class="cls-45"><path class="cls-7" d="M105.59,25.44a3.38,3.38,0,0,0,0,.45c-13.73,3-27.93,6-42,9.61l.2-.39c6.16-1.64,12.53-3.34,41.83-9.67"/></g></g><g class="cls-5"><g class="cls-46"><path class="cls-7" d="M78.52,109.9l.27.5c-18.9,14.8-28.39,22.24-41.31,36.7l-.29-.47c5.73-6.74,13.59-16,41.33-36.73"/></g></g><g class="cls-5"><g class="cls-47"><path class="cls-7" d="M58.1,196.83l.25-.15c7.17,7.87,24,26.31,43.9,35-5.68-2.65-23-10.69-44.19-34.85l0,0"/></g></g><g class="cls-5"><g class="cls-48"><path class="cls-7" d="M36.33,153.64l.41-.08c4.08,11.9,7,20.5,16.76,36.63a2.63,2.63,0,0,0-.39.06c-6.8-11.49-10.93-18.86-16.84-36.61h.06"/></g></g><g class="cls-5"><g class="cls-49"><path class="cls-7" d="M38.35,150c0-.16,0-.31-.1-.64,12,1.36,22.6,2.5,48.68,4.76v.52c-20.1-1.31-45.72-4.23-48.57-4.56a.22.22,0,0,1,0-.08"/></g></g><g class="cls-5"><g class="cls-50"><path class="cls-7" d="M58.61,195a3.71,3.71,0,0,0-.16-.46c9.26,3.41,15.92,5.83,35.46,12.25a3.53,3.53,0,0,0,0,.46C74.43,200.81,68.2,198.59,58.63,195l0-.07"/></g></g><g class="cls-5"><g class="cls-51"><path class="cls-7" d="M90.9,159l.47,0c1.37,22.51,1.94,31.82,5.1,46.07a3.71,3.71,0,0,0-.47,0C94.26,197,91.62,184.8,90.9,159"/></g></g><g class="cls-5"><g class="cls-52"><path class="cls-7" d="M87.72,157.06a5.09,5.09,0,0,0,.46.58c-12.87,10.7-25,21.37-31.49,34.16-.23-.22-.27-.26-.51-.47,3.83-6.9,8.59-15.48,31.54-34.27"/></g></g><g class="cls-5"><g class="cls-53"><path class="cls-7" d="M94.27,8l.4-.19c-.52,4.17,1.12,7.57,11.84,15.61a3.65,3.65,0,0,0-.31.36c-10-7.53-12.63-11.06-12-15.75l0,0"/></g></g><g class="cls-5"><g class="cls-54"><path class="cls-7" d="M116.68,1h0"/></g></g><g class="cls-5"><g class="cls-55"><path class="cls-7" d="M115.17,1h.67c-14.45.34-21.51,2.2-21,5.53l-.47.22C94.07,3.29,101,1.36,115.08,1h.09"/></g></g><g class="cls-5"><g class="cls-56"><path class="cls-7" d="M117.17,1l.1.11a26.21,26.21,0,0,1-3.23,1c-5.79,1.56-11.6,3-17.38,4.57.26-.17.26-.17,4.16-1.23.42-.12,2.18-.58,9.53-2.46,5.87-1.49,6.36-1.66,6.92-1.93l-.1,0"/></g></g><g class="cls-5"><g class="cls-57"><path class="cls-7" d="M118.24,235c-.1.06-.1.06-1.38.08-2.76.05-3.54.08-3.79.09l-.54,0c1.42-.05,3-.08,5.71-.13"/></g></g><g class="cls-5"><g class="cls-58"><path class="cls-7" d="M105,233.13c.71.23,1.28.73,2,.94a37.05,37.05,0,0,0,4.42,1,14.13,14.13,0,0,1-6.41-1.91"/></g></g><g class="cls-5"><g class="cls-59"><path class="cls-7" d="M179.62,19.11l.63.4a6.67,6.67,0,0,1,1.69,1.66,2.44,2.44,0,0,1,.05,1.49l-.59-.42a3,3,0,0,0-.21-1.71,5.63,5.63,0,0,0-1.57-1.42"/></g></g><g class="cls-5"><g class="cls-60"><path class="cls-7" d="M96.24,210.35a4.89,4.89,0,0,0,.48.2c-.61,6.28-1.54,15.76,6.54,21.27-.1,0-9.56-3.87-7-21.47"/></g></g><g class="cls-5"><g class="cls-61"><path class="cls-7" d="M106,233l-.28-.14c8.11,1.25,10.84,1.67,12.65,2.13-.19.1-.51,0-.72-.1-2.13-.43-4.14-.74-11.61-1.87l0,0"/></g></g><g class="cls-5"><g class="cls-62"><path class="cls-7" d="M117.54,1.05c1.13.81,1.81,1.3.09,6.26-1.33,3.82-4.81,10.22-7.61,15.35l-.3-.11C117.24,8.31,120.05,3,117.54,1.05"/></g></g><g class="cls-5"><g class="cls-63"><path class="cls-7" d="M128.8,228.25l.11.08c-3.84,3-6.16,4.79-9.44,6.35a56.25,56.25,0,0,0,9.33-6.43"/></g></g><g class="cls-5"><g class="cls-64"><path class="cls-7" d="M99.12,210.39a1.73,1.73,0,0,0,.27-.22c15.89,16.07,20.67,21.55,19.59,24.52l-.13,0c.67-3.09-2.66-7.18-19.77-24.31l0,0"/></g></g><g class="cls-5"><g class="cls-65"><path class="cls-7" d="M126,192.8a2.53,2.53,0,0,0,.19.44c-16.44,7.85-19,9-26.94,13.62a3.64,3.64,0,0,0-.28-.38c9.05-5.27,13.08-7.19,27-13.68"/></g></g><g class="cls-5"><g class="cls-66"><path class="cls-7" d="M99.79,209.52c0-.09,0-.18.08-.37,19,9.17,25.26,12.47,30.09,16.69l-.27.23c-6.06-4.74-10.53-7.21-29.92-16.51,0,0,0,0,0,0"/></g></g><g class="cls-5"><g class="cls-67"><path class="cls-7" d="M107.19,27.7l.4.08c-11,30.38-16.49,45.63-23.81,75.35l-.44-.11c3.34-15.28,8.54-35,23.85-75.32"/></g></g><g class="cls-5"><g class="cls-68"><path class="cls-7" d="M225,159.31c0,.05-2.58,5.66-22.44,15.68a4.34,4.34,0,0,0,.18-.63c9.46-4.89,16.12-8.59,22.26-15.05"/></g></g><g class="cls-5"><g class="cls-69"><path class="cls-7" d="M131.45,55.23l.39.32c-14.53,17.07-31,32.28-46.11,48.81-.11-.12-.27-.28-.39-.39,14.81-16.78,31.27-32,46.11-48.74"/></g></g><g class="cls-5"><g class="cls-70"><path class="cls-7" d="M94.24,158.06a3,3,0,0,0,.41-.44c28.3,26.55,28.3,26.55,32.76,31.12l-.37.3c-2.19-2.1-2.19-2.1-32.87-30.93l.07-.05"/></g></g><g class="cls-5"><g class="cls-71"><path class="cls-7" d="M95.45,155.4c0-.18,0-.43,0-.62,58.75,4.78,58.75,4.78,65.33,5.38-.05.2-.11.48-.15.69-4-.36-4-.36-65.18-5.36,0,0,0-.06,0-.09"/></g></g><g class="cls-5"><g class="cls-72"><path class="cls-7" d="M82.73,112.22a6,6,0,0,0,.63-.11c1.77,11.76,3.17,21,7.15,38.36l-.53.07a346.45,346.45,0,0,1-7.34-38.32h.09"/></g></g><g class="cls-5"><g class="cls-73"><path class="cls-7" d="M86.72,108.11c0-.2,0-.48,0-.69,24.37,1.3,48.75,2.46,73.11,3.81,0,.23,0,.54,0,.77-24.38-1.35-48.76-2.51-73.14-3.81,0,0,0-.06,0-.08"/></g></g><g class="cls-5"><g class="cls-74"><path class="cls-7" d="M160.24,113.9c.09.21.23.49.34.69C139.23,128.26,116.74,140,95,152.92c-.1-.19-.26-.44-.38-.63,21.86-12.85,44.35-24.6,65.66-38.39"/></g></g><g class="cls-5"><g class="cls-75"><path class="cls-7" d="M109.89,27.27a2.12,2.12,0,0,0,.36-.26c5.46,6.56,7.1,8.54,21.23,22.66a4.11,4.11,0,0,0-.45.38c-12.67-12.75-16-16.36-21.19-22.74l0,0"/></g></g><g class="cls-5"><g class="cls-76"><path class="cls-7" d="M122.8,3.83l.2.09c.09,3.91-1.1,7.07-12.37,19.14a1.68,1.68,0,0,0-.33-.25c8.11-8.75,13-14.39,12.5-19"/></g></g><g class="cls-5"><g class="cls-77"><path class="cls-7" d="M145.73,18.39l.26.29c-8,1.93-16.75,3.36-34.7,6.15a3.24,3.24,0,0,0,0-.44C124.66,22.31,135.24,20.66,145.73,18.39Z"/></g></g><g class="cls-5"><g class="cls-78"><path class="cls-7" d="M141.53,5.51c12.81,5.57,26.5,13,40.75,36.39l-.25,0c-9.52-14.6-19.14-27.42-40.5-36.36"/></g></g><g class="cls-5"><g class="cls-79"><path class="cls-7" d="M182.32,24.18c.08.05,7.05,5.88,2.67,19.39-.22-.22-.28-.28-.5-.48,1.58-5.55,3.07-10.79-2.17-18.91"/></g></g><g class="cls-5"><g class="cls-80"><path class="cls-7" d="M139.79,5.06c2.33.72,5.4,3.7,5.61,4,2.33,3.32,2.36,3.82,2.62,7.72a4.39,4.39,0,0,0-.47-.27c-.44-5.84-1.38-7.63-7.76-11.46"/></g></g><g class="cls-5"><g class="cls-81"><path class="cls-7" d="M124.13,3.92V3.83c6.17,3.29,11.09,6.11,20.81,12.43a1.89,1.89,0,0,0-.09.21c-9-5.85-13.45-8.62-20.73-12.54h0"/></g></g><g class="cls-5"><g class="cls-82"><path class="cls-7" d="M164.1,116.57a4.32,4.32,0,0,0,.69-.06c.91,14.18,1.39,24,.32,40.12l-.49,0c.48-14.26.77-22.87-.52-40.09Z"/></g></g><g class="cls-5"><g class="cls-83"><path class="cls-7" d="M117.27,1h-.12c1.23.07,6.23.49,19.24,2.94l.49.17c-13.31-2.54-18.36-3-19.59-3.11h0"/></g></g><g class="cls-5"><g class="cls-84"><path class="cls-7" d="M117.66,1.05h0a34.65,34.65,0,0,1,3.69,1.35l0,0a30.48,30.48,0,0,0-3.63-1.38h0"/></g></g><g class="cls-5"><g class="cls-85"><path class="cls-7" d="M123.65,3.25l-.18-.13c7.54.55,9.43.71,13.66,1.07l.53.17c-4-.34-6.22-.52-14-1.09l0,0"/></g></g><g class="cls-5"><g class="cls-86"><path class="cls-7" d="M150.43,20.14c0-.06,0-.16.06-.22a336.21,336.21,0,0,1,30.4,22.52,2.19,2.19,0,0,0-.1.34,343,343,0,0,0-30.38-22.61l0,0"/></g></g><g class="cls-5"><g class="cls-87"><path class="cls-7" d="M147.55,20l.34.18c-.13,5.36-.31,12.7-11.59,29.81a3.84,3.84,0,0,0-.54-.35c5.07-8,12-19,11.79-29.64"/></g></g><g class="cls-5"><g class="cls-88"><path class="cls-7" d="M196,105.72c0,.34.06.44.12.77-10.74,2.12-14.06,2.74-28,5.09a6.48,6.48,0,0,0-.1-.77c14-2.36,17.37-3,28-5.09"/></g></g><g class="cls-5"><g class="cls-89"><path class="cls-7" d="M135.79,56.18l.5-.21c8.85,15.7,17.22,30.53,26.27,51.44l-.48.21c-8.76-18.9-12-26-26.37-51.42l.08,0"/></g></g><g class="cls-5"><g class="cls-90"><path class="cls-7" d="M181.61,45.41c.07.13.18.31.26.44-4.1.89-12.65,2.75-44.06,6.67,0-.14-.07-.33-.11-.47,40.24-5.94,40.24-5.94,43.91-6.64"/></g></g><g class="cls-5"><g class="cls-91"><path class="cls-7" d="M184,48.06l.26.17c.82,14.91-1.87,30.13-17.74,59.9-.17-.13-.41-.3-.59-.41,9.63-18.41,19-38.18,18.07-59.66"/></g></g><g class="cls-5"><g class="cls-92"><path class="cls-7" d="M130.06,194.75c.12,0,.26-.06.51-.14,1.65,8.41,4.14,21.14.93,30.5l-.35.09c1.26-5.09,3-12.06-1.16-30.43l.07,0"/></g></g><g class="cls-5"><g class="cls-93"><path class="cls-7" d="M161,163.58a2.55,2.55,0,0,0,.37.48c-10.67,9.61-12,10.78-28.77,25.11l-.28-.31c9.52-8.47,19.24-16.71,28.68-25.28"/></g></g><g class="cls-5"><g class="cls-94"><path class="cls-7" d="M132.86,192.48A4.9,4.9,0,0,0,133,192c11.31,2.78,32.37,7.94,43.22,13.72-.11.1-.25.24-.35.35-8.45-3.65-16.42-7.11-43.07-13.51l0-.07"/></g></g><g class="cls-5"><g class="cls-95"><path class="cls-7" d="M131.72,227.39l.26-.24c3.81,1.71,5,2.43,5.68,3.92l-.49.19c-.61-1.35-1.4-2-5.48-3.84l0,0"/></g></g><g class="cls-5"><g class="cls-96"><path class="cls-7" d="M174.44,207.85c0,.08-1.59,2.07-41.67,18.24l.06-.2c31.32-13.1,31.32-13.1,41.61-18"/></g></g><g class="cls-5"><g class="cls-97"><path class="cls-7" d="M197.64,179.72l.24.06c-5.67,9.18-8.52,13.78-17.71,24l-.26-.07c7.26-8.35,10.58-12.16,17.73-23.95"/></g></g><g class="cls-5"><g class="cls-98"><path class="cls-7" d="M166.25,164.11a4.89,4.89,0,0,0,.48-.41c9.35,15.7,13.93,26.82,11.36,40.58-.11.07-.27.16-.38.24C179,194.38,179,185,166.18,164.16l.07,0"/></g></g><g class="cls-5"><g class="cls-99"><path class="cls-7" d="M150.88,6a83.64,83.64,0,0,1,28.37,14.86l-.17-.09-.15-.08a48.69,48.69,0,0,1-5.4-4c-3.45-2.56-10.18-6.5-22.65-10.68"/></g></g><g class="cls-5"><g class="cls-100"><path class="cls-7" d="M141.43,5.24l-.27-.12a173.53,173.53,0,0,1,37.07,15.79l.28.28a175.64,175.64,0,0,0-37-15.93Z"/></g></g><g class="cls-5"><g class="cls-101"><path class="cls-7" d="M187,48.24a2.83,2.83,0,0,0,.11-.31c9.48,9.26,15.77,15.59,25.14,28.52,0,.09-.09.21-.12.3C204.57,66.84,200,60.86,187,48.28A.05.05,0,0,1,187,48.24Z"/></g></g><g class="cls-5"><g class="cls-102"><path class="cls-7" d="M185.54,48.74l.3,0c4.29,9.17,11.49,24.53,13.37,52.12l-.3,0c-1.89-16.43-3.67-31.95-13.37-52.12"/></g></g><g class="cls-5"><g class="cls-103"><path class="cls-7" d="M197.3,109c.12.13.29.28.41.4-5.14,11.15-11,23.79-30.24,48.14a4.31,4.31,0,0,0-.46-.39c15.19-19.56,22.84-31.7,30.29-48.15"/></g></g><g class="cls-5"><g class="cls-104"><path class="cls-7" d="M213.48,146.7a1.19,1.19,0,0,0,.25.13c-3.79,10.34-5.52,15-11.41,25.44a1.73,1.73,0,0,0-.31-.14c5-9.5,7.8-14.73,11.47-25.43"/></g></g><g class="cls-5"><g class="cls-105"><path class="cls-7" d="M167.74,162.25a6.15,6.15,0,0,0,.24-.58c13.86,4.91,21.15,7.8,30.38,12.93-.16.26-.21.35-.36.63-6.13-3.36-11.41-6.25-30.29-12.9l0-.08"/></g></g><g class="cls-5"><g class="cls-106"><path class="cls-7" d="M212.58,143.31c0,.17,0,.39,0,.55-8.25,4-17.27,7.95-44.27,16.19,0-.16,0-.37,0-.52,28-9.24,31.62-10.42,44.31-16.22"/></g></g><g class="cls-5"><g class="cls-107"><path class="cls-7" d="M213.34,82.39a6.42,6.42,0,0,0,.37.58c-3.36,7.38-4.62,10.14-12.1,20a5.3,5.3,0,0,0-.36-.62c5.89-7.92,8.1-10.88,12.09-20"/></g></g><g class="cls-5"><g class="cls-108"><path class="cls-7" d="M201.23,109.3a3.52,3.52,0,0,0,.33-.42c4.63,8.51,9.41,17.3,12.79,29.8a4.66,4.66,0,0,0-.38.46,127.66,127.66,0,0,0-12.79-29.79.12.12,0,0,0,0,0"/></g></g><g class="cls-5"><g class="cls-109"><path class="cls-7" d="M174.09,209.26l.13.12c-8,6.5-18,14.6-33.66,21,8.76-4,18.68-8.51,33.53-21.09"/></g></g><g class="cls-5"><g class="cls-110"><path class="cls-7" d="M215.39,54.46c8.24,13.81,9.87,17.48,14.6,32.68-4.9-15.51-6.54-19.17-14.6-32.68"/></g></g><g class="cls-5"><g class="cls-111"><path class="cls-7" d="M202.46,198.36l-.51.54c-1.88,1.51-4.72,3.79-22.76,7.53.13-.16.17-.4.4-.48a39.51,39.51,0,0,1,4.16-.9c4.63-1,15.72-3.63,18.71-6.69"/></g></g><g class="cls-5"><g class="cls-112"><path class="cls-7" d="M190.18,209.7l-1,.79c-7.76,5.61-11.3,8.18-22.53,13.52,4.55-2.47,9.24-4.66,13.67-7.35,3.09-1.88,7-4.77,9.85-7"/></g></g><g class="cls-5"><g class="cls-113"><path class="cls-7" d="M177.07,208.34l.47-.35c-.57,4.4-1.28,9.87-12,16.31l-.6.27c4.91-3.14,11.63-7.44,12.12-16.18l.06,0"/></g></g><g class="cls-5"><g class="cls-114"><path class="cls-7" d="M184.67,24.94l-.24-.26c7.85,5.36,17.62,12,26.42,23.33l.21.29C205.59,41.84,199.38,34.53,184.7,25l0,0"/></g></g><g class="cls-5"><g class="cls-115"><path class="cls-7" d="M184.35,25.39c.19.07,21.28,15.4,29.5,50.68l-.24-.11c-3.73-13.49-8.85-32-29.26-50.57"/></g></g><g class="cls-5"><g class="cls-116"><path class="cls-7" d="M214,52.46c3.57,5.12,6.77,13.75,1.69,25.76a7,7,0,0,0-.35-.61c2.29-6.3,5.14-14.13-1.34-25.15"/></g></g><g class="cls-5"><g class="cls-117"><path class="cls-7" d="M140.3,3.31l.92.18,4,.94c-.53-.13-.53-.13-5-1.12"/></g></g><g class="cls-5"><g class="cls-118"><path class="cls-7" d="M123.83,1.19l.81.05c8.11.6,12.11,1.46,13.81,3-.19-.06-.4-.1-.59-.17a3.82,3.82,0,0,1-.65-.49,11.9,11.9,0,0,0-3.7-1.21,73.14,73.14,0,0,0-9.68-1.13"/></g></g><g class="cls-5"><g class="cls-119"><path class="cls-7" d="M139.38,4.47l-.52-.16c4.39.23,6.26.37,8,.58l.73.2c-1.63-.2-3.2-.33-8.17-.6l-.05,0"/></g></g><g class="cls-5"><g class="cls-120"><path class="cls-7" d="M231.9,95.82c1.83,12.43,4.6,31.21-4.26,58.24,4-13.85,8.9-31.09,4.26-58.24"/></g></g><g class="cls-5"><g class="cls-121"><path class="cls-7" d="M216.77,144.21a5,5,0,0,0,.21-.62c4.29,4,7.68,7.14,9.06,12.88-.1.23-.19.45-.27.68-1.2-3.9-2.07-6.72-9-12.85l0-.09"/></g></g><g class="cls-5"><g class="cls-122"><path class="cls-7" d="M137.55,231.74l.47-.16c.74.54,2.11,1.55-4.07,2.54-.45.08-1,.16-1.5.22l-.78.1c4.81-.65,7.65-1.35,5.88-2.64,0,0-.05,0-.06,0l.06,0"/></g></g><g class="cls-5"><g class="cls-123"><path class="cls-7" d="M161.09,226.54l.53-.22a76.57,76.57,0,0,1-10.78,4.07l-.88.26A79.39,79.39,0,0,0,161,226.56l.07,0"/></g></g><g class="cls-5"><g class="cls-124"><path class="cls-7" d="M162.33,225.73c-.05,0-5,2.1-23.6,5.58a2.86,2.86,0,0,1,.48-.2c7.7-1.82,15.54-3.05,23.12-5.38"/></g></g><g class="cls-5"><g class="cls-125"><path class="cls-7" d="M215.32,84.32l.27.05c3.46,18,4.43,30.6.59,53.65l-.28-.06c3-20.16,3.54-32.07-.58-53.64"/></g></g><g class="cls-5"><g class="cls-126"><path class="cls-7" d="M216.74,81.31c-.05-.28-.11-.52-.13-.62,7.91,3.81,10.68,5.5,13.78,9.41.05.24.11.48.16.73-2.89-3.48-4.83-5.19-13.79-9.44,0,0,0-.06,0-.08"/></g></g><g class="cls-5"><g class="cls-127"><path class="cls-7" d="M231.37,94.16c0,.18,4.82,18.61-14,45.58,0-.15-.08-.35-.12-.5,6.37-9.81,16-24.65,14.16-45.08"/></g></g><g class="cls-5"><g class="cls-128"><path class="cls-7" d="M4.73,84.91c-.53,1.81-1.53,5.66-2,7.49.57-2.53,1.22-5,2-7.49"/></g></g><g class="cls-5"><g class="cls-129"><path class="cls-7" d="M105.24,234.75l-.22,0c2.24.23,5.32.5,9.35.59h-.2c-3-.08-6-.27-8.93-.56"/></g></g><g class="cls-5"><g class="cls-130"><path class="cls-7" d="M24.14,189.43l-.06-.08c.22.23,5.6,6.74,5.63,6.79l-.06-.06q-2.88-3.22-5.51-6.65"/></g></g><g class="cls-5"><g class="cls-131"><path class="cls-7" d="M117.1,1c-2,0-3.73.05-4.82.1,1.6-.07,3.2-.1,4.82-.1"/></g></g><g class="cls-5"><g class="cls-132"><path class="cls-7" d="M78.11,8A27.65,27.65,0,0,0,74,9.83l0,0c.57-.07,7.88-2.93,8.13-3.1h0a36,36,0,0,0-4,1.29"/></g></g><g class="cls-5"><g class="cls-133"><path class="cls-7" d="M33.3,39.33c1.59-1.8,3.18-3.13,3.79-3.17,1,.19-3.18,5-4.89,6.16-.71.48-1.07.49-1,0a9.48,9.48,0,0,1,2.07-3"/></g></g><g class="cls-5"><g class="cls-134"><path class="cls-7" d="M62.14,219.08c-1.92-1.25-2.61-2-2.31-2.12h.09c1.23.1,7.5,4.08,7.06,4.48-.21.19-2.33-.72-4.84-2.35"/></g></g><g class="cls-5"><g class="cls-135"><path class="cls-7" d="M22.81,94.14c.38-2.11,1.56-4.28,3.36-4.37,2.79,0,2.52,5.88.22,8.15-1.68,1.64-3.78.76-3.72-2.43a9.53,9.53,0,0,1,.14-1.35"/></g></g><g class="cls-5"><g class="cls-136"><path class="cls-7" d="M32.32,149.26c-.6-3,.66-4.33,2.08-4.36,3.8.25,5,6.65,3.07,8.27-1.47,1.25-4.37,0-5.15-3.91"/></g></g><g class="cls-5"><g class="cls-137"><path class="cls-7" d="M112.49,235.17a28.48,28.48,0,0,1-3.08-.33c2.2.1,4.38.44,6.58.49-.39,0-1.8,0-3.5-.16"/></g></g><g class="cls-5"><g class="cls-138"><path class="cls-7" d="M53.06,193.59c-1.17-2-1-3.37.52-3.41,3.15.19,6.24,5.19,4.77,6.5-.89.79-3.55-.19-5.29-3.09"/></g></g><g class="cls-5"><g class="cls-139"><path class="cls-7" d="M58.6,36c1-1.42,2.67-3,4.42-3.09,2,0,.87,2.79-.94,4.61-2,2-4.31,2.14-4.36.69A4.29,4.29,0,0,1,58.6,36"/></g></g><g class="cls-5"><g class="cls-140"><path class="cls-7" d="M93.69,7.1a11.47,11.47,0,0,1,3.67-1.35c.12,0,.42,0,0,.39-1.32,1.21-5.47,3.12-5.43,2.31,0-.27.67-.78,1.75-1.35"/></g></g><g class="cls-5"><g class="cls-141"><path class="cls-7" d="M103.73,232.66c-1.23-.5-1.67-.87-1.46-1a.44.44,0,0,1,.15,0,13.81,13.81,0,0,1,4.61,1.91,10.65,10.65,0,0,1-3.3-.91"/></g></g><g class="cls-5"><g class="cls-142"><path class="cls-7" d="M78.09,107.53A4.42,4.42,0,0,1,82.52,103c4.66,0,5.36,5.71,2.79,8.11a4.29,4.29,0,0,1-7.22-3.53"/></g></g><g class="cls-5"><g class="cls-143"><path class="cls-7" d="M94.08,207.88c-.55-1.63.24-2.78,1.93-2.81,3.22,0,4.78,3.67,3.38,5.1-1.18,1.2-4.36.49-5.31-2.29"/></g></g><g class="cls-5"><g class="cls-144"><path class="cls-7" d="M87,154.8a3.75,3.75,0,0,1,3.89-4.34c4.57.11,5.79,5.27,3.52,7.48s-7.1.83-7.41-3.14"/></g></g><g class="cls-5"><g class="cls-145"><path class="cls-7" d="M105.69,24.88a3.26,3.26,0,0,1,3.18-2.45c2.7,0,3,2.93,1.58,4.4-1.6,1.61-4.88,1.17-4.87-1.16a3.09,3.09,0,0,1,.11-.79"/></g></g><g class="cls-5"><g class="cls-146"><path class="cls-7" d="M125.93,191.13a3.8,3.8,0,0,1,4-3.15c4.06.13,3.94,4.15,2,5.86-2.3,2-6.27,1-6-2.36,0-.11,0-.25,0-.35"/></g></g><g class="cls-5"><g class="cls-147"><path class="cls-7" d="M117.1,1a1.75,1.75,0,0,1,.58.06h0a.42.42,0,0,1-.17,0,2.71,2.71,0,0,0-.41,0"/></g></g><g class="cls-5"><g class="cls-148"><path class="cls-7" d="M118.21,235a2.7,2.7,0,0,1,1.11-.41c.19,0,.17.08.09.15a4,4,0,0,1-1.7.5l.05,0c.13-.06.23-.1.45-.22"/></g></g><g class="cls-5"><g class="cls-149"><path class="cls-7" d="M130.21,52.26A3.15,3.15,0,0,1,133.6,49c4.08.11,5.36,4.53,3.42,6.41s-6.81.8-6.81-3.19"/></g></g><g class="cls-5"><g class="cls-150"><path class="cls-7" d="M121.71,3.06c-.33-.32-.64-.71-.2-.72.94,0,3,1.26,2.56,1.66-.24.21-1.3.07-2.36-.94"/></g></g><g class="cls-5"><g class="cls-151"><path class="cls-7" d="M129.11,226.73a3.76,3.76,0,0,1,2.84-1.67c1.2,0,1.2,1,0,2.13-1.4,1.32-3.35,1.69-3.31.62a2.19,2.19,0,0,1,.47-1.08"/></g></g><g class="cls-5"><g class="cls-152"><path class="cls-7" d="M159.84,111.8c0-2.69,1.6-4.55,4-4.61,4.62.13,5.31,6.25,2.79,8.44-2.35,2-6.77.85-6.82-3.83"/></g></g><g class="cls-5"><g class="cls-153"><path class="cls-7" d="M160.62,160.86a4.69,4.69,0,0,1,4.48-4.23c4.22.12,3.73,5.08,1.56,7.13-2.33,2.21-6.12,1.4-6.11-2.08a4.13,4.13,0,0,1,.07-.82"/></g></g><g class="cls-5"><g class="cls-154"><path class="cls-7" d="M145.38,17.91c-.31-.44-1.18-1.9.33-2,2.52.1,5.57,3.49,4.56,4.4C149.5,21,146.94,20.21,145.38,17.91Z"/></g></g><g class="cls-5"><g class="cls-155"><path class="cls-7" d="M136.64,231.47a16.77,16.77,0,0,1,3.76-1.21c.12,0,.22,0,.12.15-.52.62-5.58,2.28-6.18,2.15l0,0c.08-.09.18-.19,2.32-1.06"/></g></g><g class="cls-5"><g class="cls-156"><path class="cls-7" d="M195.94,104.91c0-2.4,1.07-4,2.8-4,3.36,0,4.64,6.34,2.44,8.49-1.84,1.8-5.18.25-5.24-4.44"/></g></g><g class="cls-5"><g class="cls-157"><path class="cls-7" d="M181.32,44.88c-1-2.07-.46-3,.57-3,2.58,0,6.41,5.21,4.88,6.62-1,.91-3.82-.35-5.45-3.61"/></g></g><g class="cls-5"><g class="cls-158"><path class="cls-7" d="M137.66,4.37a21,21,0,0,1-2.74-1l0,0c.94,0,6.75,1.66,6.82,2.15a19.41,19.41,0,0,1-4.12-1.14"/></g></g><g class="cls-5"><g class="cls-159"><path class="cls-7" d="M175.41,206.58c1.52-1.72,3.2-2.84,4.38-2.91s.66,1.59-1.33,3.52C176.25,209.31,174,210,174,209a4.78,4.78,0,0,1,1.41-2.41"/></g></g><g class="cls-5"><g class="cls-160"><path class="cls-7" d="M197.65,175.91c1-2.24,2.6-3.74,4-3.83,2.36,0,.76,4.55-1.4,6.61-1.72,1.63-3.35,1.44-3.29-.38a6.3,6.3,0,0,1,.68-2.4"/></g></g><g class="cls-5"><g class="cls-161"><path class="cls-7" d="M212.8,142c.41-1.86,1.41-3.88,3-4,2.53.08,1.93,6.18-.24,8.29-1.22,1.18-3,.9-3-2.21a10.18,10.18,0,0,1,.26-2.09"/></g></g><g class="cls-5"><g class="cls-162"><path class="cls-7" d="M212.23,79.57c-.43-1.73-.43-3.61.88-3.71,2.27,0,4.88,6.56,3.29,8.22-1,1-3.16-.51-4.17-4.51"/></g></g><g class="cls-5"><g class="cls-163"><path class="cls-7" d="M180.23,22.63c-1.27-1-2.68-2.19-2.21-2.26,1.31.09,7.38,4.59,6.92,5.12-.15.17-1.32-.22-4.71-2.86"/></g></g><g class="cls-5"><g class="cls-164"><path class="cls-7" d="M163.22,225.33a39,39,0,0,1,4.1-1.77c-.2.51-7.32,3.5-8,3.61,0-.08,0-.08,3.92-1.84"/></g></g><g class="cls-5"><g class="cls-165"><path class="cls-7" d="M225.41,158.09c.89-2.46,1.7-4,2.11-4.14.77.17-1.92,7.81-3,8.43-.29.18-.3-.43,0-1.57.23-.9.59-2,.86-2.72"/></g></g><g class="cls-5"><g class="cls-166"><path class="cls-7" d="M147.35,5c-1.41-.38-2.84-.66-4.23-1.09,1.83.35,7.2,1.8,8.7,2.36l-.58-.16c-2.05-.6-2.67-.78-3.89-1.11"/></g></g><g class="cls-5"><g class="cls-167"><path class="cls-7" d="M230.68,91.39a22.34,22.34,0,0,1-.77-4.33c.39.31,2.25,8.18,2.09,8.87-.25-.09-.93-2.88-1.32-4.54"/></g></g><g class="cls-5"><g class="cls-168"><path class="cls-7" d="M212.61,50.49c-.75-1.07-1.54-2.12-2.27-3.2h0L211.63,49l3.81,5.51c-1-1.31-1.88-2.69-2.83-4"/></g></g></g><path class="cls-7" d="M159.26,228.18l-.39.18c9-3.56,12.66-5,22.21-10.88l.89-.58c-7.85,4.79-10.79,6.58-22.66,11.26l-.05,0"/><path class="cls-7" d="M189.45,211.54l.73-.57c5.19-4.47,5.29-4.56,7.58-7.26-.17.14-.34.27-.49.42-1.05,1-2.3,2.46-3.29,3.51a44.33,44.33,0,0,1-4.53,3.9"/><path class="cls-7" d="M160,227.78c14.19-6.39,21.39-10.23,35.69-22.58l0-.07C183.62,215.35,177,220.26,160,227.78h0"/><path class="cls-7" d="M201.25,35.28l-.63-.63-.53-.53c-8-7.34-23-21-50.46-29.24,18.83,7,33.7,12.6,51.62,30.4"/><path class="cls-7" d="M207.5,42.14c-.18-.2-.35-.41-.52-.61-.94-.94-2.2-2.2-3.22-3.05.16.17.3.37.47.54,1,.94,2.35,2.11,3.27,3.12"/><path class="cls-7" d="M226.83,90c.08.12.17.28.24.4-.63-9.84-1.51-23.31-13.39-40.23l-.74-1c5.65,8.6,13.39,20.38,13.85,40.82l0,0"/><path class="cls-7" d="M149.72,8.66l.48.25c.45-1.23.57-1.56-.19-2.65a8.49,8.49,0,0,0-3.1-2l-.7-.2c1.73.82,2.6,1.23,3.33,2.21a2.12,2.12,0,0,1,.11,2.39l.07,0"/><path class="cls-7" d="M199.47,34.57C187.55,23.64,174.8,13.15,150,5c15.8,5.57,30.44,11.64,49.51,29.56"/><path class="cls-7" d="M200.57,36.06c-.08-.11-11.24-11.49-48.35-25.91,1.49,1.22,4.13,1.76,5.92,2.48,25.23,10.18,37.29,19.46,42.43,23.43"/><path class="cls-7" d="M158.08,228.42c.1,0,9.92-3.75,16.5-12.13a3.6,3.6,0,0,0-.54.31,23.49,23.49,0,0,0-2.94,3.27c-.16.18-3.93,4.32-13,8.55"/><path class="cls-7" d="M202.12,198.92c16.16-17.53,23.39-30.29,29.75-52.54.21-.87.42-1.75.61-2.63-3.24,12.21-8.67,32.63-30.36,55.15v0"/><path class="cls-7" d="M235.23,115.15l0-.92c-.65-5.62-1.22-10.48-6.69-18.49a2.21,2.21,0,0,0,0,.68c.51,1.5,1.91,3.16,2.73,4.51a31.65,31.65,0,0,1,4,14.22"/><path class="cls-7" d="M218.35,131a3.45,3.45,0,0,1,.2.32c3.72-9.45,7.24-18.37,8.34-33.4a2.78,2.78,0,0,1-.28-.42c-1,9.43-2,18.34-8.3,33.45l0,.05"/><path class="cls-7" d="M219.06,133.77c0,.3,0,.56,0,.68,10.13-4.63,15.42-7.95,16.2-13.21,0-.28,0-.55,0-.82-.83,3.9-2.47,7.14-16.19,13.26Z"/><path class="cls-7" d="M131.14,234.65c7.48-1.89,21.41-5.43,40.91-17.62l.06-.2c-8.63,5.16-23.08,13.8-41,17.82h0"/><path class="cls-7" d="M198,59c.12.15.22.31.33.46,5.8-6.94,8.37-12.19,5.29-20.09l-.5-.52c2.32,6.58,2.15,11.26-5.17,20.08L198,59"/><path class="cls-7" d="M226.25,89.39l.2.15c-2.22-12-5.26-28.4-21-48.56l-.22-.15c7.17,9.74,17,23.07,21,48.54l0,0"/><path class="cls-7" d="M225.1,91.25c0-1-7-12.49-25.45-28.14,0,.12,0,.28,0,.4,9.54,8.63,17.79,16.07,25.46,27.74"/><path class="cls-7" d="M178.27,213.4l-.3.31a129.12,129.12,0,0,0,18.84-10l.44-.49a125,125,0,0,1-18.93,10.17l0,.05"/><path class="cls-7" d="M201.19,199.39c.21-.17,20.69-18.89,16.3-60.46l-.24.24c1.37,19.69,1.11,37.8-16.06,60.22"/><path class="cls-7" d="M199.48,200.92c.09-.07,8.12-8.16-6.31-23.78l-.43.6c6,6.82,11,13.74,6.74,23.18"/><path class="cls-7" d="M117.88,0a12.9,12.9,0,0,0,1.59,0h-.72a6.58,6.58,0,0,1-.89,0h0"/><path class="cls-7" d="M144.87,3.66c-2.8-.75-16.45-2.75-26.73-3.6,24,3.09,24,3.09,26.73,3.6"/><path class="cls-7" d="M143.22,3.1l.47.11a97.23,97.23,0,0,0-19-3l-1-.06a98.75,98.75,0,0,1,19.36,2.89Z"/><path class="cls-7" d="M125.26,236.06c.4,0,.8-.05,1.19-.09,12.51-1.37,15.74-2,26.62-5.49-8,2.51-15,4.68-27.81,5.58"/><path class="cls-7" d="M129.71,235l-.44.1a208.06,208.06,0,0,0,24.41-5.07l.64-.23A209.19,209.19,0,0,1,129.77,235Z"/><path class="cls-7" d="M148.68,224.43l-.22.23c10.95-3.58,16.79-5.75,24.34-8.73l.41-.4c-8.81,3.47-13.1,5.06-24.5,8.86l0,0"/><path class="cls-7" d="M177.48,212.38c.1,0,10.83-8.83,13.76-33.28l-.39.22c-1.73,10.86-3.22,20.24-13.37,33.06"/><path class="cls-7" d="M130.51,234.68A30.77,30.77,0,0,0,144.73,227a1.86,1.86,0,0,0-.38.12,27.69,27.69,0,0,0-3.63,3c-2.57,2.1-8.38,4.09-10.21,4.62"/><path class="cls-7" d="M117.63,236.34h.82c7.39-.13,9.08-.59,9.72-1l-.56.1a1.5,1.5,0,0,0-.34.16,15.74,15.74,0,0,1-3.15.5c-.77.07-2.63.2-6.49.24"/><path class="cls-7" d="M117.1,236.34a74.42,74.42,0,0,0,9-.76l.47-.09a77.34,77.34,0,0,1-9.45.85"/><path class="cls-7" d="M216.44,130.52l.3-.13c-.65-13.09-1.74-35-17.8-65.68l-.31.12c8.39,17.09,16.69,36.24,17.81,65.69"/><path class="cls-7" d="M193.92,172.12l.14.16c6.39-8.16,13-16.6,21-33a1.65,1.65,0,0,1-.29-.38c-5.29,10.45-9.1,18-20.86,33.21l0,0"/><path class="cls-7" d="M190.54,172.63l.33-.25c-1.3-7.83-4.74-28.64-31.79-67.2-.17.14-.4.33-.57.45,13.79,20.26,28.39,44.07,32,67"/><path class="cls-7" d="M214.5,133.67c0-.17.11-.4.16-.57-12.3-10-28.07-18.71-54.41-30.16,0,.17-.1.39-.14.56,22.86,10.66,39.38,18.36,54.39,30.17"/><path class="cls-7" d="M131.65,53.12l.63,0h0c-1.7-8.95-6.9-36.16-12.41-49.29l-.19,0h0c1.41,3.7,5.68,15,12,49.31"/><path class="cls-7" d="M147.08,8.41c-.93-.71-19.52-6.86-28.49-8.28,5.4,1.13,12.12,2.53,28.49,8.28"/><path class="cls-7" d="M147.88,9c-.45-.29-.45-.3-4.28-1.14-7.72-1.7-15.48-3.2-23.19-4.92l0,.15c9.11,2.08,18.3,3.85,27.42,5.91"/><path class="cls-7" d="M117.52,236.34c5.23-.52,11.16-1.1,25.8-9.25l0-.13c-7.57,4.12-16.15,8.79-25.73,9.38Z"/><path class="cls-7" d="M194.33,57l.23-.06c-10.14-17.72-21.12-32.31-41.76-45.87C166.59,20.76,179.23,30.9,194.33,57"/><path class="cls-7" d="M135,54l.39.34C148.89,39.16,160.11,23.38,151,10.68l-.49-.22c5.8,9.06,5.36,19.92-15.6,43.47l.07,0"/><path class="cls-7" d="M159.36,98.68a4.94,4.94,0,0,1,.32.5c15.77-12.1,27.91-22.82,35.89-35.79-.19-.22-.28-.32-.47-.57-5.68,8.67-12.7,17.93-35.8,35.79l.06.07"/><path class="cls-7" d="M194.06,61l-.26-.66c-11.68-.88-24.85-1.81-57.18-3.51,0,.19,0,.46,0,.65,14.09.75,37.69,2,57.39,3.52"/><path class="cls-7" d="M117.1,236.34h0"/><path class="cls-7" d="M117.1,236.34h0c3.6,0,5.08-1.13,4.41-3.35a1.48,1.48,0,0,1-.21.13c.06.73,0,1.95-.55,2.39a6,6,0,0,1-3.65.83"/><path class="cls-7" d="M122.49,231.72l0,.13c7.1-1.87,21.15-5.7,21.29-5.74l.29-.3c-7.18,2-14.38,3.87-21.54,5.89v0"/><path class="cls-7" d="M189,174.58c.08-.15.2-.34.29-.49-10.73-7.41-24-13.91-48.82-24-.05.16-.13.38-.2.54C168.39,162.83,176,166.1,189,174.58"/><path class="cls-7" d="M148.84,223.37c11.12-8.16,24.6-19.75,40.24-43.79a3.17,3.17,0,0,1-.37-.16c-7,10.49-18.69,28.06-39.9,43.94h0"/><path class="cls-7" d="M145.65,224.52c.15-.11.31-.21.46-.3-2.68-5.57-7.18-9.39-20-17.06a3.23,3.23,0,0,1-.29.43c12.9,7.71,17.35,11.51,19.87,16.93"/><path class="cls-7" d="M126.33,204.42c0,.1.08.25.12.35,40.67-16.47,55.28-23.91,61.52-27.08,0-.18,0-.42.06-.6-18.7,9.33-27,12.77-61.72,27.27a.14.14,0,0,1,0,.06"/><path class="cls-7" d="M129.37,54.34l.32-.34c-21.47-20.45-25.94-24.71-31.07-33.91l-.31.23c5.91,10.49,13.61,18,31.06,34"/><path class="cls-7" d="M128.62,56.57c0-.19,0-.44,0-.63-25.9-4.2-37.71-6.12-56-9.9-.08.18-.19.41-.28.59,18.8,3.85,29.77,5.63,56.28,9.94"/><path class="cls-7" d="M137.92,144.54c.16.05.36.14.52.21a404.58,404.58,0,0,0,16.4-38.69,5.28,5.28,0,0,1-.69-.29c-5,13.16-7.74,20.41-16.32,38.74l.09,0"/><path class="cls-7" d="M153.72,97.44c.14-.07.33-.17.48-.23-4.59-9.8-6.9-14.72-19.23-36.82a4.28,4.28,0,0,1-.44.2c15.7,29.69,15.7,29.69,19.19,36.85"/><path class="cls-7" d="M67.5,100.21l.17.32c20.51-13.93,41.47-27.19,62-41.11-.13-.16-.3-.38-.41-.55-20.6,13.76-41.8,26.6-61.79,41.26l0,.08"/><path class="cls-7" d="M68.14,102.72c0,.14,0,.32,0,.45,10.21.14,10.21.14,83.6-1.14,0-.23,0-.54,0-.78-27.85.48-55.7.89-83.55,1.41v.06"/><path class="cls-7" d="M113.48.08l-.6,0,4.94,0-.16,0-4.14,0h0"/><path class="cls-7" d="M89.46,226.91l.36.21c2.31-5,8.06-9.82,30.58-19.7a2.53,2.53,0,0,1-.19-.45c-17.42,7.74-28.65,13.77-30.81,19.91l.06,0"/><path class="cls-7" d="M121.35,230.92l.25,0c.81-3.39,2-8.52,2-22.08a3,3,0,0,1-.52,0c0,6.31,0,15.84-1.73,22.07"/><path class="cls-7" d="M115.07,236.24c-8-1-15.81-4.29-22.69-7.22a74.32,74.32,0,0,0,22.69,7.22"/><path class="cls-7" d="M115.77,236.28l.23,0a3.09,3.09,0,0,1-1.36-.52c.31-.66.52-1.09,5.11-3a1.1,1.1,0,0,1,0-.18,42.19,42.19,0,0,0-3.87,1.77,4.66,4.66,0,0,0-1.4,1.21c.3.52.3.53,1.28.66h0"/><path class="cls-7" d="M119.83,232.12l.07-.15c-9.6-1.6-19.26-2.68-28.88-4.09.38.27.38.27,3.77.77,8.34,1.23,16.71,2.23,25,3.47"/><path class="cls-7" d="M72.38,42.59a2.61,2.61,0,0,1,.24.23C81.32,34,85.29,30,95.32,20.67a1,1,0,0,1-.25-.22c-7.49,7-13.93,13-22.73,22.11l0,0"/><path class="cls-7" d="M120.43,204.52l.21-.34c-23.39-13.8-47.86-25.69-70.79-40.3,0,.12,0,.27-.05.39,8.07,5.37,10,6.65,20.93,12.89,16.43,9.36,33.25,18,49.7,27.36"/><path class="cls-7" d="M123.84,202.81l.27,0c5.18-18.58,10.93-46.45,11.56-49.56a5.93,5.93,0,0,1-.72-.1c-2.68,13.06-4.45,21.69-11.18,49.63h.07"/><path class="cls-7" d="M132.14,146.79c.11-.2.27-.47.4-.66C84.4,117.2,84.4,117.2,67.64,105.26c-.1.21-.25.48-.37.68,16,11.24,16,11.24,64.87,40.85"/><path class="cls-7" d="M49.41,161.12c.05.13.11.31.15.44,54.17-8,54.17-8,82.14-11.77,0-.22,0-.52,0-.74-37.62,5-60.32,8-82.27,12l0,.09"/><path class="cls-7" d="M119.47,1.94l.14.08c0-.34-.09-.8-.13-1.14l-.84-.65-.13,0,.84.67c0,.32.07.74.09,1.06h0"/><path class="cls-7" d="M95.91,4.64l-.32.16C117.16.59,117.16.59,118,.19c0,0,0-.06,0-.09l-.16,0s0,.08,0,.12c-.39.15-.39.15-21.92,4.42l0,0"/><path class="cls-7" d="M100,16.69a1.45,1.45,0,0,1,.09.22c12.44-8,15.82-10.58,18.69-13.4l-.16-.14c-2.74,2.55-4.39,4.09-18.64,13.29l0,0"/><path class="cls-7" d="M96,17.29a4,4,0,0,1,.39-.33c-2.86-3.47-5.82-7-2.85-11.24-.56.24-2.3,1.34-1.36,5.75.27,1.29,1.56,3.25,3.82,5.82"/><path class="cls-7" d="M95.47,4.85,95.13,5c5.92-.53,23-2.11,23.19-2.12a1.09,1.09,0,0,0,0-.17c-7.58.7-15.17,1.35-22.74,2.1l-.06,0"/><path class="cls-7" d="M86.74,226c-9.26-7.6-26.48-21.75-38.82-59.81l-.31,0C53.1,183.51,63.14,208.55,86.74,226"/><path class="cls-7" d="M16.4,122.34c0,.17.07.41.09.59C29.42,116.12,38,112.35,60.18,104.8a6.32,6.32,0,0,1-.11-.76c-21.6,7.34-31.4,11.42-43.68,18.2,0,0,0,.07,0,.1"/><path class="cls-7" d="M46.66,157.94l.28.14c3.61-18.43,5.88-27.55,15.47-50.49-.18-.08-.42-.21-.6-.31C52,130.72,49.3,141.4,46.58,157.91l.08,0"/><path class="cls-7" d="M63.55,98.54l.5-.08c.19-21.49.64-30.66,4.88-49.18a5.52,5.52,0,0,1-.55.07c-3.61,15.79-5.08,26.12-4.83,49.19"/><path class="cls-7" d="M60.61,100.92a4.89,4.89,0,0,1,.39-.67C48.83,90.32,38.93,81.76,31.37,69.57a6.65,6.65,0,0,1-.42.58c5.61,8.56,11,15.78,29.66,30.77"/><path class="cls-7" d="M97.67,234.11a2.57,2.57,0,0,1,.55.12c-3.77-1.29-6.74-2.31-8.24-5.51l-.5-.24c1.16,2.1,2,3.63,8.12,5.61l.07,0"/><path class="cls-7" d="M86.52,226.32c-13-7.5-21-12.35-36-24.82,0,.06,0,.14,0,.21a196.85,196.85,0,0,0,36,24.61"/><path class="cls-7" d="M46.17,195.89l.38.22c-2.38-10.48-3-15.82-.64-30.38a4.81,4.81,0,0,1-.55-.37c-1.93,12.66-2.11,19.17.75,30.5l.06,0"/><path class="cls-7" d="M43.15,159.34c0-.13.11-.3.16-.42-10.91-10.95-18.8-18.86-27-32a2.86,2.86,0,0,1-.19.53c5.33,8.15,10.83,16.59,27.06,31.91"/><path class="cls-7" d="M95.34,4.21a4.19,4.19,0,0,0,.47-.14c2.3-.81,5.31-2.12,7.67-2.73A54.23,54.23,0,0,1,110.56.27C101.82,1,97,3.41,95.34,4.21"/><path class="cls-7" d="M69.79,42.45l.42-.13c2.43-11.47,5.46-25.75,21.52-35.94-.16,0-16.93,6.41-21.94,36.07"/><path class="cls-7" d="M69.33,11.68l-.44.24c5.91-1.86,10.57-3.34,23-6.31l.45-.22C80.1,8.3,75.5,9.69,69.4,11.64l-.07,0"/><path class="cls-7" d="M32.86,65.47c0,.14,0,.33,0,.47a374.66,374.66,0,0,1,33.4-18.28,2.53,2.53,0,0,1,0-.55A354.38,354.38,0,0,0,32.86,65.4v.07"/><path class="cls-7" d="M67.6,44.05a5.67,5.67,0,0,1,.48-.5C58.61,32,55.25,23.4,66.06,13.42a15.73,15.73,0,0,0-7.19,13.93c.34,6.64,5.59,12.94,8.73,16.7"/><path class="cls-7" d="M17.75,54.25c1.91-2.7,4.45-6.31,6.51-8.89.06-.1.13-.2.2-.3-1.81,2.38-4.25,5.52-5.93,8l-.78,1.2"/><path class="cls-7" d="M26.52,42.35v.07c.17-.19.33-.38.49-.58a.17.17,0,0,0,0-.07c-.16.2-.32.39-.49.58"/><path class="cls-7" d="M95.54,233.68c-11.46-3.56-28.78-8.94-45.83-31.6l-.36-.08c9.76,12.27,21.37,24.83,46.18,31.68h0"/><path class="cls-7" d="M96.07,233.9c-16.27-4.54-20.13-5.62-34-12.49.09.06,11.09,7,34,12.49"/><path class="cls-7" d="M3.42,85.85c2.06-4.59,5.27-9,23.75-16.83a4.92,4.92,0,0,1,.18-.68C13.91,74.13,6.15,78.52,3.64,85.08c-.07.25-.15.51-.22.77"/><path class="cls-7" d="M14.48,119.16l.24.09c1.93-13.76,3.75-26.76,13.36-47.49a2.13,2.13,0,0,1-.35-.14c-5.14,11.7-10.95,25-13.3,47.53h.05"/><path class="cls-7" d="M28.35,66.1a7.4,7.4,0,0,1,.41-.62c-4.24-6.84-7.13-12.8-2.54-22-1.69,2-6.54,9.45,2.13,22.62"/><path class="cls-7" d="M30.32,64l.46-.25c2.89-12.14,7.71-32.47,33.37-49.37C63.89,14.43,38,27.27,30.32,64"/><path class="cls-7" d="M44.43,195.57c-10.19-14.48-24.14-34.31-29.34-67l-.31.11c2.35,12.61,7.25,38.83,29.65,66.85"/><path class="cls-7" d="M56.71,218l.42.24c-6.46-6.47-8.14-9.51-9.45-17.16l-.54-.43c1.33,7.45,2.73,10.63,9.5,17.32l.07,0"/><path class="cls-7" d="M6.52,159.85c5.56,12.15,13.25,21.71,37.87,37.39,0-.12-.07-.32-.17-.41-1.47-1.48-4.09-2.65-5.84-3.79C14.49,177.55,8.89,165,6.2,159c.11.29.21.57.32.85"/><path class="cls-7" d="M0,102.16c-.06,4.67-.14,10.47,12.1,20.54a7,7,0,0,1,.08-.76c-7.1-6.2-12.91-12-12.06-20.61l-.12.83"/><path class="cls-7" d="M2.63,147.55c-.7-5-1.5-10.74,9.76-21.48-.08-.32-.1-.41-.16-.76C7,130.57.47,137.12,2.42,146.74l.21.81"/><path class="cls-7" d="M117.1,236.34h-.94a4,4,0,0,0,.49,0h.45"/><path class="cls-7" d="M116.23,236.32c-1.67-.07-6.54-.38-15.78-1.62C101.58,234.93,110.24,236.05,116.23,236.32Z"/><path class="cls-7" d="M78,229.68c3.86,1.25,8.67,2.81,20.21,4.71-17.17-3.67-17.17-3.67-21-5l.76.27"/><path class="cls-7" d="M111,236.18a56.14,56.14,0,0,1-10.64-1.37l-.68-.12c1.54.42,3.87,1,10.5,1.45l.82,0"/><path class="cls-7" d="M14.22,176.26c5.67,9.12,16.24,26.1,40.92,41.29-1.78-1.92-5-3.42-7.23-4.86a115.67,115.67,0,0,1-34.55-38c.28.51.57,1,.86,1.53"/><path class="cls-7" d="M67.63,225.48c-3.49-1.76-5.41-2.73-7.72-4.8l-.63-.35a30.91,30.91,0,0,0,7.6,4.8l.75.35"/><path class="cls-7" d="M42.46,209.72a79.2,79.2,0,0,0,14,8.88l-.5-.35c-1.34-.86-3.27-1.78-4.67-2.55a70.33,70.33,0,0,1-9.56-6.54l.68.56"/><path class="cls-7" d="M114.09,0a12,12,0,0,0-1.35.07C114.26,0,114.26,0,114.89,0l-.8,0"/><path class="cls-7" d="M91.7,2.75c-9.59,2.38-14.65,3.91-22.85,8.58C72,9.9,74.94,8,78.21,6.79A89,89,0,0,1,92.67,2.54l-1,.21"/><path class="cls-7" d="M71,10.68l-.17.13c10-4.1,21.33-8.75,38.56-10.46l.31,0C100.06,1.5,89.14,2.83,71,10.66l0,0"/><path class="cls-7" d="M67.74,10.81a3.48,3.48,0,0,0-1.14.85c-.13.18,0,.53.08.73l.66-.34a1.07,1.07,0,0,1,0-.86,3.17,3.17,0,0,1,1.05-.7l-.69.32"/><path class="cls-7" d="M31.43,36.85l-2.91,3.29,3.6-4-.69.72"/><path class="cls-7" d="M29.74,39.14l-.12.16C37.2,32,45.79,23.62,63.44,14.36l.21-.18c-9.32,5.15-20.91,11.56-33.89,24.93l0,0"/><path class="cls-7" d="M202.16,37.84c1.92,2.08,3.18,3.25,3.46,3.21.17-.61-5.22-6.42-6.13-6.61h0c-.08.21.83,1.35,2.7,3.39"/><path class="cls-7" d="M198.17,202.23c-2.68,2.74-2.55,3-2.44,3,.73,0,6.75-5.95,6.38-6.35h-.05c-.19,0-.95.4-3.89,3.39"/><path class="cls-7" d="M155.27,229.47c-3.56,1.33-3.56,1.33-3.69,1.4.68.09,7.73-2.57,8.42-3.06v0c-.27,0-.27,0-4.72,1.69"/><path class="cls-7" d="M145.49,3.83c4.45,1.23,4.45,1.23,4.55,1.23a59.38,59.38,0,0,0-8.67-2.34,9.27,9.27,0,0,0,1.24.34l2.88.77"/><path class="cls-7" d="M225.52,94.43c.75,3.29,2,4.69,2.67,3.74,1-1.46-.45-8.76-2.29-8.9-1.11.17-.9,2.88-.38,5.16"/><path class="cls-7" d="M174,214.8c-2,1.71-2.22,2.38-1.76,2.43,1.45.17,7.39-4.41,6.69-5.15-.07-.08-.16-.08-.27-.09-.89,0-2.68,1.11-4.66,2.81"/><path class="cls-7" d="M214.19,135.7c-.22,3.53,1.49,4.87,3.06,3.47,2.2-2,2.61-8.69-.07-8.85-1.54.05-2.79,2.31-3,5.38"/><path class="cls-7" d="M194,60.86c1.68,4,4.84,5,5.52,3.14s-1.84-7-4.7-7.08c-1.45,0-1.78,1.64-.82,3.94"/><path class="cls-7" d="M188.35,175.9c-1.12,3.1.39,4.4,2.43,3.45,3-1.4,4.85-6.77,2.6-7.56a1.8,1.8,0,0,0-.61-.1c-1.76.08-3.53,1.77-4.42,4.21"/><path class="cls-7" d="M148.65,9.43c2.89,1.74,4.27,1.89,4.24,1.49-.07-.82-4.73-3.31-6.31-3.38-.18,0-.49,0,.19.62a15.73,15.73,0,0,0,1.88,1.27"/><path class="cls-7" d="M127.39,235.33c-.9.18-1.82.25-2.71.5a35.82,35.82,0,0,0,6.56-1.22l0,0c-.09,0-.09,0-3.81.75"/><path class="cls-7" d="M144.49,225.4c-1.24,1.06-1.57,1.75-.86,1.79,1.76.1,6.16-3,5.35-3.74a.64.64,0,0,0-.45-.12,7.75,7.75,0,0,0-4,2.07"/><path class="cls-7" d="M117.1,236.34h0"/><path class="cls-7" d="M151.7,101.63c.25,4.79,5.29,5.81,7.53,3.4,2-2.2,1.43-7.86-3.43-8.13-2.6.06-4.25,2-4.1,4.73"/><path class="cls-7" d="M117.74.05c.23,0,.42.07.67.12a2.1,2.1,0,0,0,.61.1A4.91,4.91,0,0,0,117.1,0a3.92,3.92,0,0,1,.64.05"/><path class="cls-7" d="M131.65,148.85c-.12,4.57,4.93,5.54,7.5,3.27s2-7.49-2.41-7.82h-.37c-3.39.18-4.66,2.47-4.72,4.56"/><path class="cls-7" d="M128.66,57.2c.51,4,5.49,4.59,7.29,2.41a4.24,4.24,0,0,0-3.65-6.53h0a3.44,3.44,0,0,0-3.62,4.12"/><path class="cls-7" d="M119.79,232.27c-.31,1.07.64,1.34,1.59.8s1.64-1.82.63-2.12a1.13,1.13,0,0,0-.39,0,1.91,1.91,0,0,0-1.83,1.37"/><path class="cls-7" d="M118.27,2.72a1.44,1.44,0,0,0,1.42,1.09h0c1,0,1-.86.28-1.51a1.75,1.75,0,0,0-1.08-.5c-.81,0-.65.83-.63.92"/><path class="cls-7" d="M120.07,206c0,2.94,3.59,3.7,5.49,1.8,1.72-1.73,1.27-5-2-5-2.57.13-3.49,1.76-3.49,3.24"/><path class="cls-7" d="M95,18.76c-.86,2,.88,2.55,2.47,2,2.19-.8,3.5-3.8,2-4.51a1.79,1.79,0,0,0-.75-.15A4.48,4.48,0,0,0,95,18.76"/><path class="cls-7" d="M116.55,236.33h.55a17.59,17.59,0,0,1-2-.12,2.34,2.34,0,0,0-.39,0h0a11.57,11.57,0,0,0,1.84.15"/><path class="cls-7" d="M60.06,103.25c-.21,4.56,4.15,5.7,6.5,3.53s2.51-8.06-2.2-8.33c-2,0-4.16,1.53-4.3,4.8"/><path class="cls-7" d="M66.51,45.91C65.33,49,67.69,50,69.86,49c2.91-1.33,4.3-5.8,2.06-6.64a2.3,2.3,0,0,0-.84-.14,5.43,5.43,0,0,0-4.57,3.71"/><path class="cls-7" d="M88.39,227.88c2.08,1.25,4.19,1.87,4.1,1.35s-4-3.25-5.6-3.26c-.51,0-.53.3-.06.77a8.79,8.79,0,0,0,1.56,1.14"/><path class="cls-7" d="M43.43,162.54c1.33,3.8,5.15,4.75,6.19,2.31.91-2.14-.73-7.1-4.26-7.19-2.46.14-2.73,2.63-1.93,4.88"/><path class="cls-7" d="M93,5.11c-1.75.77-2.35,1.28-2,1.37.66.19,6.24-2.18,6.23-2.65l-.13,0A17.18,17.18,0,0,0,93,5.11"/><path class="cls-7" d="M45.63,199.11c2.19,2.68,4.76,3.72,4.91,2.43.18-1.52-3.34-6-5.68-6.07-1.06,0-1.15,1.3.77,3.64"/><path class="cls-7" d="M27.57,67.71c-1.25,3.21-.1,4.71,1.72,3.85,2.76-1.3,4.79-7.26,2.71-8a1.46,1.46,0,0,0-.42-.07c-1.42,0-3.07,1.76-4,4.19"/><path class="cls-7" d="M112.92.1c-2.09.1-3.61.26-3.85.29,2.67-.09,5.33-.39,8-.39-1.39,0-2.79,0-4.16.1"/><path class="cls-7" d="M99.16,234.6c2.15.42,4.13.7,4.36.7,0,0-7.63-1.6-8-1.62a24.15,24.15,0,0,0,3.68.92"/><path class="cls-7" d="M12.11,124.14c.24,4.18,2.29,5.45,3.51,4.06,1.73-2,1.07-9-1.48-9.09-1.6.11-2.17,2.6-2,5"/><path class="cls-7" d="M66.31,12.59c-1.34.71-2.93,1.65-3,1.94.35.25,7.54-3.45,7.85-4l-.06,0a24.64,24.64,0,0,0-4.81,2.12"/><path class="cls-7" d="M58.28,219.74c1.85,1.12,4,2.25,4.29,2.14-.12-.45-6.78-4.54-7.58-4.65h0c-.09.26,1.67,1.48,3.33,2.5"/><path class="cls-7" d="M26.69,42.23a24.67,24.67,0,0,0-2.61,3.49c.37,0,5.82-6.48,5.84-6.92h0A26.89,26.89,0,0,0,26.69,42.23Z"/><path class="cls-7" d="M117.1,236.34h0Z"/><path class="cls-7" d="M5.27,88.27a2.33,2.33,0,0,0-.2.34c2.35-13.46,4-19.91,12.68-34.36l.78-1.2C10.17,66.92,8,72.84,5.3,88.23l0,0"/><path class="cls-7" d="M26.52,42.35c.17-.19.33-.38.49-.58.61-.21,1.37-.47,11.81-.93-.14.19-.29.38-.42.57-5.92.27-11.28.55-11.88.94"/><path class="cls-7" d="M4.2,90.85c-.06.22-.12.44-.17.66-1-2.88-1.11-3.33-.61-5.66.07-.26.15-.52.22-.77-.36,2.83-.42,3.26.59,5.68l0,.09"/><path class="cls-7" d="M6.52,159.85c-.11-.28-.21-.56-.32-.85-.44-1.52-1.12-3.53-1.44-5.08.69,1.94,1,4,1.76,5.93"/><path class="cls-7" d="M0,102.16l.12-.83c1.09-4.13,1.18-4.47,3.48-7.84a3,3,0,0,1-.11.73,25.29,25.29,0,0,1-1.94,3.12A16,16,0,0,0,0,102.16"/><path class="cls-7" d="M3.56,149.92c0,.21.1.42.16.62l-1.1-3c-.06-.27-.13-.54-.2-.81l1.12,3.1a.31.31,0,0,0,0,.08"/><path class="cls-7" d="M117,236.34h0Z"/><path class="cls-7" d="M78,229.68l-.76-.27c-.93-.37-2.19-.85-3.1-1.25,1.28.5,2.56,1.05,3.86,1.52"/><path class="cls-7" d="M116,236.34h.68c-2.42,0-3.07,0-5.74-.16l-.82,0c2.54.12,3.07.15,5.79.19H116"/><path class="cls-7" d="M14.22,176.26c-.29-.51-.58-1-.86-1.53-4.73-9.6-5.23-10.6-7.9-19.08a1.83,1.83,0,0,1,.13.24c1,2.28,1.87,5.49,2.67,7.84a97,97,0,0,0,6,12.53"/><path class="cls-7" d="M71.32,227l.57.24c-1.28-.52-3-1.21-4.26-1.78l-.75-.35c1.31.57,3,1.33,4.36,1.85l.08,0"/><path class="cls-7" d="M42.46,209.72l-.68-.56c-4.1-3.74-6.15-5.61-8.57-10,.17.17.35.31.5.48A31.13,31.13,0,0,1,35.83,203c.07.11,1.79,2.74,6.63,6.77Z"/><path class="cls-7" d="M114.09,0l.8,0h.84l-1.64,0"/><path class="cls-7" d="M91.7,2.75l1-.21A121,121,0,0,1,112.89.08,124.28,124.28,0,0,0,91.7,2.75"/><path class="cls-7" d="M67.74,10.81l.69-.32C69.8,10,71.68,9.25,78.79,8.14a5.67,5.67,0,0,1-.61.28,19.67,19.67,0,0,1-2.3.37c-.59.1-5.9,1-8.14,2"/><path class="cls-7" d="M31.43,36.85l.69-.72c5.72-5.43,17.62-16.75,44.65-27a60.76,60.76,0,0,1-6.56,2.72,155,155,0,0,0-18,9c-10.91,6.67-16,11.05-20.73,16"/><path class="cls-7" d="M82.47,6.73l-.35.11c8.68-3.56,14.32-5.62,29.4-6.7l.44,0C101.81,1,94.48,1.56,82.52,6.71l0,0"/><path class="cls-7" d="M80.36,8.17c.64-.29,1-.44,20.13-1.23-.08.07-.11.21-.24.21-6.63.41-13.27.61-19.89,1"/><path class="cls-7" d="M112.75,236.26h.19c-10.52-.8-20.46-1.56-35.38-6.87l-.15-.07c10.16,3.24,19.77,6.31,35.32,6.94h0"/><path class="cls-7" d="M69.45,226.07a102.67,102.67,0,0,1-34.24-25.22c2.3,1.21,4.27,4.3,6.08,6.16a102.16,102.16,0,0,0,28.16,19.06"/><path class="cls-7" d="M73.25,227.63c-.83-.34-1-.4-1.32-.89a1.92,1.92,0,0,1-.25-1.27c.1-.67,1.25-1.39,2.17-2l.57.33c-1.33.85-1.87,1.2-2.12,2s.29,1.2,1,1.79"/><path class="cls-7" d="M3.47,147.51c-2.26-11.65-5.06-26.15.12-50.81-2.46,14.4-4.78,28-.12,50.81"/><path class="cls-7" d="M6.31,88.62c0-.12,5.39-19.09,31-44.75a1.64,1.64,0,0,0,0,.23C25.05,57,15,68.38,6.31,88.62"/><path class="cls-7" d="M40,97.8l-.09.55c-5.62-.53-24.68-2.48-34.2-5.3.06-.25.12-.49.17-.74h0C12,94,19.52,95.4,40,97.71a.37.37,0,0,1,0,.09"/><path class="cls-7" d="M71.59,221.79l.12.14c-7.15-3.4-22-10.45-36.27-21.79l-.27-.41a183,183,0,0,0,36.39,22l0,0"/><path class="cls-7" d="M71.29,198.55c0,.12.13.28.19.4-14.73,0-37.46-.88-37.64-.88l-.49-.57c3.92.19,10.47.49,37.92,1l0,0"/><path class="cls-7" d="M29.59,194.42c-6.87-8-16.28-18.94-23.63-38.3l0-.2c4.27,10.15,9.59,22.78,23.62,38.48v0"/><path class="cls-7" d="M32.24,196.3c-.12-.13-10.66-13.53,21.22-39.68.08.15.2.34.3.49C42,167.77,27.34,181,32.24,196.3"/><path class="cls-7" d="M4.47,149.9c-.06-.19-5.81-18.72,35.51-49.47l.14.53C25.26,112.8,4.91,129,4.47,149.9"/><path class="cls-7" d="M52.74,154.32c0,.14,0,.34.08.48-16.65-.18-42.19-1.62-47.61-2.5-.07-.25-.15-.5-.22-.75,4.45.65,11.8,1.4,47.75,2.71v.06"/><path class="cls-7" d="M208.69,192.74c1.62-2.67,3-5,1.33-9.08l.44-.61c.82,2.81,1.53,5.23-1.27,9.08l-.5.61"/><polygon class="cls-7" points="117.1 236.34 117.06 236.34 117.02 236.34 117.1 236.34"/><path class="cls-7" d="M114.07,236.3c-23.43-.66-33.18-8-37.87-11.54a3.17,3.17,0,0,1,.38.17,40.14,40.14,0,0,1,3.84,2.81,34.05,34.05,0,0,0,9.23,4.44c9.52,2.9,12.48,3.4,24.42,4.12"/><path class="cls-7" d="M117.45,236.34a139.41,139.41,0,0,0,16.75-1.86,143.15,143.15,0,0,1-16.75,1.86"/><path class="cls-7" d="M42.13,94.37a4.1,4.1,0,0,0-.47.35C38,82.71,32.46,64.56,39,44.16l.48-.3c-4,14.58-4.89,27.52,2.69,50.46l-.07.05"/><path class="cls-7" d="M43,37.69h-.2C49.56,29.52,58,19.34,76,9.85l.18,0C66.72,15.18,56,21.24,43,37.69h0"/><path class="cls-7" d="M75,35.46c-.13.1-.25.21-.37.32-3.28-5.92-9.4-16.92,3.15-26.48l.56-.23C73.64,13,65.8,19.53,75.05,35.41l-.06.05"/><path class="cls-7" d="M42.18,41.09l.3-.43c4.46-.63,8.67-1.22,30.77-3a4.67,4.67,0,0,0-.23.55C56.18,39.57,50.69,40.13,42.18,41.09Z"/><path class="cls-7" d="M74,222c-.08,0-7.18-5.31-1-21.16a4.71,4.71,0,0,0,.51.4c-2.83,7.69-4.21,12.92.49,20.76"/><path class="cls-7" d="M115.9,236.32h.22c-8.49-.69-17.77-2.07-37.9-11.27a1.33,1.33,0,0,0-.14-.19c12,5.46,24,10.44,37.79,11.45Z"/><path class="cls-7" d="M110.89,234.69l.15.1c-17-4.61-26.11-7.8-33.41-10.35l-.38-.31c7.25,2.56,16.28,5.75,33.62,10.55h0"/><path class="cls-7" d="M55,150.38l-.28.08a193.13,193.13,0,0,1-11.28-47.38l.58-.17a210.42,210.42,0,0,0,11.06,47.46H55"/><path class="cls-7" d="M45.2,94.17c-.16-.08-.37-.16-.53-.22,7.71-18.88,14-31.65,28.94-53.14l.25.11c-12.17,18.47-19,29.23-28.66,53.25"/><path class="cls-7" d="M109.42,108.41l-.35.19C81.39,67.06,77.67,47.91,76.26,40.7a5.93,5.93,0,0,0,.56-.29c3.67,16.94,9,30.13,32.68,68l-.08,0"/><path class="cls-7" d="M107.05,111.48c0,.21-.08.5-.1.71-20.51-3.84-40.56-7.68-60.35-12.51.06-.23.12-.54.17-.77,10.39,2.48,24.63,5.87,60.3,12.48a.37.37,0,0,0,0,.09"/><path class="cls-7" d="M78.4,34.56l-.31-.08C82.56,27.84,89.32,17.8,99.8,8.59l.15.05C94.46,13.87,88.23,19.8,78.4,34.56"/><path class="cls-7" d="M79.27,37.22c0-.16.1-.38.13-.54,15.15-3.41,30.36-6.49,45.51-9.9,0,.14.1.33.15.47-15.25,3.37-30.56,6.49-45.79,10"/><path class="cls-7" d="M59.29,152.55c-.09-.15-.22-.34-.32-.48,5.72-5.29,16.36-15.13,48.5-37,.09.16.21.37.31.52-38.1,27.48-38.1,27.48-48.49,37"/><path class="cls-7" d="M110.73,234.33c-3.79-2.15-15.33-8.68-34.24-32.33l.37-.16c5.65,6.93,20.68,25.34,33.88,32.48h0"/><path class="cls-7" d="M72.61,195.48l-.24,0c-5.44-10.16-9.17-17.68-15-36.4a2.87,2.87,0,0,0,.58-.07c4.24,13.33,6.82,21,14.75,36.45h-.06"/><path class="cls-7" d="M115.15,159.89c0,.1,0,.24,0,.35-4.41-.24-17.85-1-55-4.74,0-.45,0-.45-.08-.73,14,1.41,26.1,2.59,55.08,5a.28.28,0,0,1,0,.09"/><path class="cls-7" d="M113.07,211.79,113,212c-2.86-.88-11.58-3.53-35.43-11.77a2.64,2.64,0,0,0-.08-.52c4.38,1.52,4.38,1.52,35.6,12a.08.08,0,0,0,0,0"/><path class="cls-7" d="M116.23,210.16a3.55,3.55,0,0,0-.46,0c.36-7.67.62-13.2,3.17-45.38a5.6,5.6,0,0,0,.74,0c-1.68,20.43-2.69,32.76-3.45,45.37"/><path class="cls-7" d="M76.05,197.07l-.36-.35c5.69-7,13.47-15.43,40-33.91l.32.44c-20.32,14.89-30.53,22.36-40,33.82"/><path class="cls-7" d="M125.13,24.67c0,.09-.1.2-.14.29C110.36,16.62,105.44,13,102.06,8c.12-.08.24-.15.35-.24,3.63,5.26,8.36,8.49,22.75,16.85l0,0"/><path class="cls-7" d="M115.14,0c.8,0,1.6,0,2.41,0h-2.41Z"/><path class="cls-7" d="M101.2,6.41l-.26.18c-1.57-1.22-5.75-4.44,5.55-6,2.62-.35,5.44-.47,7.13-.54l.75,0C101.66.55,97,2.47,100.45,5.75c.22.21.56.44.8.63l0,0"/><path class="cls-7" d="M103.7,6.53s.06-.15.12-.18c1.06-.41,2.52-.81,3.6-1.15,9.2-2.9,11.73-3.82,12-4.8A4.13,4.13,0,0,0,118.24,0c1,.08,1,.14,1.39.5-.61,1-2.15,1.72-15.93,6"/><polygon class="cls-7" points="117.12 236.34 117.1 236.34 117.14 236.34 117.12 236.34"/><path class="cls-7" d="M117,236.34c-.69,0-2.44-.15-2.45-.15a7.12,7.12,0,0,1-2.2-.82,10.13,10.13,0,0,0,1.19.59,25.08,25.08,0,0,0,3.46.38"/><path class="cls-7" d="M188.66,24.2l.09.08-.7-.55.61.47"/><path class="cls-7" d="M119.15,0h0"/><path class="cls-7" d="M111.54,234.42c-.06,0-5.62-2.29,2.84-19.25a2.08,2.08,0,0,0,.43.19c-3,6.24-7,14.79-3.27,19.06"/><path class="cls-7" d="M117.49,236.34h-.26a6,6,0,0,0,.84-.08.3.3,0,0,1,0-.08,31,31,0,0,0-4.84-.91l-.17-.11c4.58.74,5,.87,5.23,1.07a3,3,0,0,1-.73.1h0"/><path class="cls-7" d="M128.57,23.84a2.57,2.57,0,0,0-.47-.15C129.29,16.1,131.51,2,119.38.15c6.08.62,12.6,5.23,9.19,23.69"/><path class="cls-7" d="M118.81,236.27c5.32-.52,9.81-2.16,15.33-4.64,0,0,0,.06,0,.09-6.3,2.61-9.46,3.93-15.34,4.55"/><path class="cls-7" d="M118.65,236.27h-.11c7.3-1.45,9.44-5.36-1.28-21a2.22,2.22,0,0,0,.39-.23c8.07,12.12,10.82,19.49,1,21.26h0"/><path class="cls-7" d="M118.57,211.86l-.14-.32c5.62-2.75,5.62-2.75,28.58-13.18,0,.12,0,.27,0,.38-9.45,4.47-19,8.69-28.48,13.12"/><path class="cls-7" d="M136.94,229.59l-.33.17c-1-3.42-3.09-6.94-18.38-15.32a2,2,0,0,0,.23-.4c9.31,5.25,17.74,10.38,18.53,15.52Z"/><path class="cls-7" d="M113.17,108.05l-.79-.15c10.26-45.77,13.71-61.18,15-78.72l.39.08c-1.16,18.16-3.74,29.8-14.59,78.79"/><path class="cls-7" d="M223.14,170.27c-2.3,3.39-4.11,6.08-11.58,11,.11-.21.13-.45.3-.62a31,31,0,0,1,3.7-2.59,28.58,28.58,0,0,0,7.93-8.49c-.12.25-.23.49-.35.73"/><path class="cls-7" d="M115.38,109.35c-.13-.13-.31-.29-.45-.41,32.9-36.57,32.9-36.57,42.11-50.63l.41.34c-8.62,13.81-17.28,24.23-42.07,50.7"/><path class="cls-7" d="M149.11,194.45a2.8,2.8,0,0,0-.39.3c-5.55-8-9.93-14.33-26.23-30.86a5.07,5.07,0,0,0,.54-.49c11.21,11.51,18.56,19.34,26.14,31,0,0,0,0-.06,0"/><path class="cls-7" d="M183.14,166.31c0,.1-.08.24-.12.34-19.69-1.39-39.29-3.71-59-5.38,0-.21.05-.5.07-.71,24.12,2.06,40.67,3.58,59,5.67l0,.08"/><path class="cls-7" d="M119.24,156.23c-.17,0-.4.05-.57.07-3.3-18.55-6.24-36.8-6.57-38.82a5.31,5.31,0,0,0,.8-.11c2.12,12.95,4.33,25.89,6.44,38.85h-.1"/><path class="cls-7" d="M186.18,116.91c0,.12,0,.29,0,.42-23.23-.74-46.4-2.72-69.6-4a4.91,4.91,0,0,0,0-.79c32.54,1.81,48.8,2.81,69.6,4.29,0,0,0,.06,0,.09"/><path class="cls-7" d="M123.81,158.69c-.09-.19-.23-.44-.34-.63,28.17-15.4,45.65-25.57,63-38.47.08.22.19.5.29.71-15.83,11.48-28.67,19.75-62.94,38.39"/><path class="cls-7" d="M156.11,52.52a3.8,3.8,0,0,0-.29.35c-8.56-8.08-17.23-16-25.82-24.09a2.42,2.42,0,0,0,.33-.31c8.61,8,17.29,15.93,25.83,24l0,0"/><path class="cls-7" d="M129.35,24.27a3.23,3.23,0,0,0-.44-.27c4.27-8.19,7.09-14.89,1.49-20.48,1.14.39,3.71,3.41,3.5,7.47-.23,4.55-1.65,7.91-4.55,13.28"/><path class="cls-7" d="M130.66,26.16c0-.11-.08-.26-.12-.36C155.27,21,155.27,21,160.8,19.45l.35.31c-2.6.82-8.68,2.74-30.49,6.4"/><path class="cls-7" d="M198.49,44.58l-.26,0h0c-12.66-17.53-24.74-29.54-49-39,19.25,7.73,33.49,16.61,49.31,39.07"/><path class="cls-7" d="M200.93,46.35c-.16-.18-.38-.29-.49-.51-.54-1.05-.25-2.74-.36-3.91-.31-3.32-2.23-8.8-9.63-16a27.51,27.51,0,0,1,10.48,20.47"/><path class="cls-7" d="M162.11,17.75a2.5,2.5,0,0,1-.53-.3c-.79-.67-1.12-2.13-1.6-3C157.61,9.88,150.64,6.58,147.3,5a37.54,37.54,0,0,1,8.11,4.38c4.27,3.68,4.4,4,6.7,8.38"/><path class="cls-7" d="M159.17,17.19s0,.1,0,.14C148.37,11.13,142.52,8,131.84,3.64l-.1-.11a183.92,183.92,0,0,1,27.43,13.64v0"/><path class="cls-7" d="M187.32,162.72h0l-.47,0c2-12.38,3.44-21.33,2.89-40.41h0a2.78,2.78,0,0,0,.58-.06c.18,12.7.32,22.73-3,40.43"/><path class="cls-7" d="M143.27,3.74l.46.15A217.91,217.91,0,0,0,118.64.05l-.33,0A206.2,206.2,0,0,1,143.2,3.72l.07,0"/><path class="cls-7" d="M127.05,1.87l0,0c-2.22-.62-5.21-1.36-7.48-1.75l-.11,0c2.29.41,5.32,1.09,7.56,1.73h0"/><path class="cls-7" d="M144.19,4l.57.17c-2.61-.28-5.86-.64-14.13-1.31-.13-.06-.25-.12-.39-.17,3.43.28,9.16.75,13.87,1.28l.08,0"/><path class="cls-7" d="M197.59,45.17v.18a251,251,0,0,0-32-24,1.09,1.09,0,0,0,0-.26,232.57,232.57,0,0,1,32,24v0"/><path class="cls-7" d="M160.68,52.79a4.17,4.17,0,0,0-.56-.37c3.13-8.26,7.42-19.56,2.94-31.28.08,0,6.83,9.3-2.38,31.65"/><path class="cls-7" d="M193.29,117.23c0-.36,0-.45-.07-.8,11.74-2.35,14.51-3,22.81-5.12a6.77,6.77,0,0,0,.08.8c-8.34,2.14-11,2.76-22.82,5.12"/><path class="cls-7" d="M188.5,112.91l-.28.14c-7.08-17.61-11.76-29.24-27.08-53.7a4.44,4.44,0,0,0,.49-.24c9.39,15.1,18.52,30.57,26.94,53.77l-.07,0"/><path class="cls-7" d="M162.51,55.5c0-.15-.12-.35-.18-.5,30.78-5.21,30.78-5.21,36.55-6.74.14.21.27.41.42.61-6.5,1.64-14.69,3.51-36.79,6.63"/><path class="cls-7" d="M192,113.64l-.5-.43c10-23.13,14.77-40.72,9.84-62.15.14.11,10.25,18.31-9.34,62.58"/><path class="cls-7" d="M138.65,228.94l-.16,0c4.31-4.69,10.22-11.12,11.47-28.67a5.62,5.62,0,0,0,.55-.15c-.92,8-2.32,20.21-11.83,28.78h0"/><path class="cls-7" d="M153.63,194.85a3.07,3.07,0,0,0-.17-.31c19.39-15.85,20.14-16.47,29.41-24.89,0,.11.11.26.16.37-7.28,6.73-12.09,11.18-29.4,24.83"/><path class="cls-7" d="M182.41,211.16l-.43.34c-2.45-2.6-6.15-6.52-29-13.35a4.17,4.17,0,0,0,.31-.54c8.77,2.69,25.1,7.72,29.18,13.5l-.06,0"/><path class="cls-7" d="M136.34,234l-.55.13c.52-.29,1.4-.59,1.61-1.14.35-1,.35-1-.44-2l.45-.23c.3.4.88,1,.74,1.5-.27.88-.37,1-1.74,1.76l-.07,0"/><path class="cls-7" d="M138.87,229.8c1.24-1,3.5-1.31,5-1.84a303.18,303.18,0,0,0,36.23-14.81s-10.65,6.45-41.25,16.65"/><path class="cls-7" d="M186,209.24l-.1-.06c8.87-8.21,12.54-11.61,21.14-23.3l.1.06c-7,9.28-10.14,13.51-21.14,23.3"/><path class="cls-7" d="M184.36,209.78c-.12.07-.27.16-.38.24,6.75-11.22,9.24-20.89,3.08-39.77a5.82,5.82,0,0,0,.53-.46c4.72,15.32,5.61,26.23-3.17,40l-.06,0"/><path class="cls-7" d="M183.29,20.33l2.85,2-4-2.78,1.12.75"/><path class="cls-7" d="M186,22.41l.35.27c-12-7.64-19.81-11.76-37.48-17.45l-.4-.16c16.36,5.24,24.42,9,37.49,17.3l0,0"/><path class="cls-7" d="M225.51,81c0,.12,0,.27,0,.38-5.52-9.84-9.16-16.34-21.94-30.1,0-.11,0-.25,0-.36,9,9.86,14.41,16.11,22,30,0,0,0,0,0,0"/><path class="cls-7" d="M218.44,106.33l-.31,0c-1.37-14.14-3.07-31.74-15.51-54.49l.3,0c5.78,11.12,13.7,26.35,15.52,54.5"/><path class="cls-7" d="M189.15,163.68a4,4,0,0,0-.33-.39c11.38-14.64,20.68-27.51,28.16-48.51a4.83,4.83,0,0,0,.34.45c-4.39,11.64-9.38,24.83-28.17,48.45"/><path class="cls-7" d="M212.26,178.53l-.08-.1c5.79-9.85,8.69-14.79,12.66-25.36l.1.11c-3.93,9.73-6.09,15.09-12.68,25.35"/><path class="cls-7" d="M209.05,180.89l-.31.47c-4.47-4.5-7.73-7.08-20.12-12.92.15-.29.19-.37.33-.67,10.79,5.14,15.46,7.88,20.15,13l0,.07"/><path class="cls-7" d="M189.45,166.15a5.94,5.94,0,0,0,.08-.68c15.82-5.54,25.63-9.5,35.34-15.82,0,.19-.07.37-.11.56-6.25,4.25-12.83,8.13-35.31,15.95Z"/><path class="cls-7" d="M220.21,108.5c-.11-.3-.14-.38-.26-.65,4.3-8.63,5.6-11.53,7-20.67,0,0,1.54,5.19-6.73,21.32"/><path class="cls-7" d="M226.56,145.05l-.22.35c-.65-8.63-1.27-16.78-6.49-30.28a3.72,3.72,0,0,0,.28-.49c3.17,9.13,6.16,17.75,6.46,30.37l0,.05"/><path class="cls-7" d="M139.27,233.42c10.39-3.15,22.17-6.72,39.79-18.93-8.52,5.76-20.19,13.66-39.79,18.93"/><path class="cls-7" d="M193.83,208c-1.91,1.2-3.18,2-9.94,3.86.17-.15.3-.37.52-.46a26.58,26.58,0,0,1,2.9-.82,23,23,0,0,0,7.1-3.08l-.58.5"/><path class="cls-7" d="M162.56,227.24c8.07-3.72,13.74-6.68,18.83-13.56l.57-.38c-3.25,4.14-6.32,8.06-18.56,13.59l-.84.35"/><path class="cls-7" d="M193.91,28.45l-2.06-1.69-.38-.32,1.6,1.29.84.72"/><path class="cls-7" d="M226.32,80.61c-2.13-1.65-2-6-2.82-8.51-2.26-7.24-9.83-26.09-31.31-44.92,12.89,11.75,26.15,25.56,34.13,53.43"/><path class="cls-7" d="M225.61,71.41c1.83,5.86,1.94,6.21,2,11.45a3.65,3.65,0,0,1-.28-.64,33.72,33.72,0,0,1-.16-4.39c-.08-2.24-1.16-5.11-1.9-7.22l.36.8"/><path class="cls-7" d="M136.57,1.6c2.5.47,6.29,1.17,8.6,2.41-1.17-.33-2.25-.92-3.42-1.24a56.14,56.14,0,0,0-6-1.3l.8.13"/><path class="cls-7" d="M150.78,4.89a35.78,35.78,0,0,0-4.46-.53l-.67-.2a34.87,34.87,0,0,1,4.38.51l.75.22"/><path class="cls-7" d="M227.65,159.88c.7-3.53,1-5.3-.6-9.2.09-.23.18-.47.25-.71,1.17,3.64,1.76,5.47.64,9.15-.1.25-.19.51-.29.76"/><path class="cls-7" d="M127.94,235.85c3.43-.35,5.68-.68,7-1.34l.67-.14c-1,.48-2.11.9-6.89,1.4l-.8.08"/><path class="cls-7" d="M154.28,230.35c-4.11,1.23-7.79,2.22-17.73,3.81C142.69,232.74,149,232,155,230.1l-.75.25"/><path class="cls-7" d="M227.73,144.36c3.7-20.41,4.86-31.79.51-55.15,3.67,18.31,4.53,31.23-.51,55.15"/><path class="cls-7" d="M232.1,91c-1.41-2.83-1.43-2.89-3.51-4.81-.05-.25-.11-.49-.17-.73,2.68,2.78,2.78,2.89,3.49,4.77.06.26.13.52.19.77"/><path class="cls-7" d="M235.2,121.59c-1.16,10.55-1.8,13.32-7.09,24.51a2.18,2.18,0,0,1,0-.57c.53-1.93,2-4.22,2.83-6a55,55,0,0,0,4.28-19l0,1.07"/><path class="cls-7" d="M5.08,151.86c.37,1.25,1.17,4.16.8,4.35-.69-.23-3.15-8.55-2.63-8.9.35.12,1,1.82,1.83,4.55"/><path class="cls-7" d="M74,227.93c1.2.49,2.44.88,3.6,1.47A60,60,0,0,1,69.15,226h0c.08,0,.08,0,4.84,2"/><path class="cls-7" d="M5.91,92.28h0C5,96.4,4,97.35,3.61,96.73c-.81-1.45,1.05-8.82,2.26-9,.28,0,.85.54,0,4.51h0"/><path class="cls-7" d="M117.1,236.34c-2.52,0-4.44-.09-4.46-.09Z"/><path class="cls-7" d="M33.59,197.77c2,2.36,2.4,3.23,2,3.25-1.12.07-6.68-6.09-6-6.66,0,0,0,0,.1,0,.58,0,2.06,1.37,3.86,3.44"/><path class="cls-7" d="M115.48,0c-1.85,0-3,.08-4.63.17,0,0,2.49-.17,6.25-.18h-1.62"/><path class="cls-7" d="M80.51,8.1c-2.88,1.32-4.43,1.9-4.64,1.71,0-.61,6.38-3.25,7.57-3.31h0l0,0c-.09.13-.41.36-3,1.56"/><path class="cls-7" d="M42.2,41.06c-2.58,3.5-4.76,4-4.92,3C37,42.44,41,37.72,43,37.69c1.14,0,.4,1.78-.77,3.37"/><path class="cls-7" d="M76.29,223.44c2.36,1.62,2.06,1.86,1.82,1.9-1.37.18-7.28-3.42-6.73-4.09a.45.45,0,0,1,.28-.09c.91.06,2.6.89,4.63,2.28"/><path class="cls-7" d="M46.82,98.5c-.52,4.7-4.46,5.78-6.16,3.5s-.5-8,3.21-8.17c1.72,0,3.3,1.49,3,4.67"/><path class="cls-7" d="M60.08,154.75c.66,4.27-2.9,5.32-5.27,3.49-2.81-2.17-3-7.5.48-7.91l.38,0a4.89,4.89,0,0,1,4.41,4.44"/><path class="cls-7" d="M117.1,236.34c-.94,0-1.55,0-1.55,0h0c.52,0,1,0,1.55,0"/><path class="cls-7" d="M77.24,199c1.08,2.62-.66,3.73-2.84,2.8-2.61-1.11-4.67-5.13-2.58-6.1a2.39,2.39,0,0,1,1-.19A5.4,5.4,0,0,1,77.24,199"/><path class="cls-7" d="M78.9,38.14c-1.65,3.26-5.31,3.67-6,1.87-.6-1.6,1.46-5.41,4.71-5.57,1.82,0,2.35,1.57,1.28,3.7"/><path class="cls-7" d="M103.19,7.12C101.47,8.84,99.49,9,99.54,8.2s2.48-2.63,4-2.68c.9,0,.43.85-.31,1.6"/><path class="cls-7" d="M112.9,235.09c.73.44.74.51.75.55-.2.29-3-.84-3-1.22,0-.08.08-.12.25-.12a5.06,5.06,0,0,1,2,.79"/><path class="cls-7" d="M116.6,112.74c-.08,4.92-5.77,5.93-8.33,3.4a4.85,4.85,0,0,1,3.48-8.27,4.64,4.64,0,0,1,4.85,4.87"/><path class="cls-7" d="M118.72,213.07c-.21,2.62-3.57,3.24-5.1,1.5a2.63,2.63,0,0,1,2.15-4.44,2.7,2.7,0,0,1,3,2.94"/><path class="cls-7" d="M124.14,160.55c-.2,4.57-5.61,5.29-8,2.83a4.34,4.34,0,0,1,3.52-7.17c3.08.08,4.57,2.24,4.45,4.34"/><path class="cls-7" d="M130.78,26.7c.35,2.77-3,3.25-4.77,1.8s-1.63-4.63.95-4.9h.32a3.54,3.54,0,0,1,3.5,3.11"/><path class="cls-7" d="M153.5,197.15c-1.3,3.32-5.35,4.23-6.3,2.07-.75-1.7.81-5.42,4.32-5.56,2.42.1,2.58,1.94,2,3.49"/><path class="cls-7" d="M117.83,0a14.51,14.51,0,0,1,1.84.16s0,0-.27,0-.73-.08-1.09-.1c-.53,0-.93,0-1.21,0h.73"/><path class="cls-7" d="M117.1,236.34c.62,0,1.25-.07,1.87-.09a14.44,14.44,0,0,1-1.87.09"/><path class="cls-7" d="M162.63,56c.74,3.32-2.41,4.52-5,2.8s-3.2-6.12-.35-6.83a3.46,3.46,0,0,1,.77-.1A5,5,0,0,1,162.63,56"/><path class="cls-7" d="M130.3,2.74c1.3.55,1.73.94,1.49,1-.09,0-.5.11-2-.51A14.87,14.87,0,0,1,127,1.84s0,0,.12,0a12.25,12.25,0,0,1,3.14.93"/><path class="cls-7" d="M137.87,230.46c-1.79,1-3.91,1.68-3.72,1.14s3.4-2.69,4.91-2.71c.72,0,.22.54.05.7a7.71,7.71,0,0,1-1.24.87"/><path class="cls-7" d="M193.28,118c-.15,2.56-1.58,4.29-3.54,4.32h0c-4.14-.16-4.43-6.86-2.07-8.91a3,3,0,0,1,2-.78c2.29.08,3.76,2.29,3.57,5.37"/><path class="cls-7" d="M189.22,167c-1.33,4.14-5.14,5-6.22,2.92s.95-7.19,4.31-7.24h0c1.94.09,2.71,1.82,1.9,4.32"/><path class="cls-7" d="M164.43,19.54c1.54,1.49,1.46,2.27.59,2.27-1.9,0-6.63-4-5.76-4.85a.74.74,0,0,1,.43-.13c1.35.08,3.41,1.42,4.74,2.71"/><path class="cls-7" d="M135.89,234.31a43.15,43.15,0,0,1-4.3.77c.16-.1,7.4-1.72,7.74-1.74h0a19.78,19.78,0,0,1-3.49,1"/><path class="cls-7" d="M220.68,111.63c0,3.66-1.75,5.13-3.21,3.76-2.08-2-2.14-9,.61-9.11,1.49.06,2.59,2.3,2.6,5.35"/><path class="cls-7" d="M202.61,48.58c1.43,2.36,1.14,3.49,0,3.21-2.19-.54-6.07-6.36-4.77-7.17a.8.8,0,0,1,.33-.08h0c1.13,0,3,1.78,4.41,4"/><path class="cls-7" d="M145.89,4.23a20.84,20.84,0,0,1,3.46,1.25l0,0c-.59,0-7.87-2.3-8.12-2.45h0a38.39,38.39,0,0,1,4.65,1.17"/><path class="cls-7" d="M183.44,212.18c-2.37,1.92-4.39,2.9-4.38,2.35,0-.85,5.2-5.23,6.75-5.36.55,0,.08.82-1.16,2-.44.41-.9.79-1.21,1"/><path class="cls-7" d="M210.94,182.32c-1.89,3-3.82,4.36-4,3.28-.29-1.51,3.25-7.11,5-7.26.85,0,.45,1.68-1,4"/><path class="cls-7" d="M227.6,149c-1,3.62-2.29,4.84-2.76,4.09-.85-1.33,1-8.59,2.67-8.78.77.08.81,2,.09,4.69"/><path class="cls-7" d="M228.26,84.87c.9,3.14.71,4.78,0,4.34-1.51-.9-3.58-8.49-2.41-8.82h.07c.65.05,1.62,1.9,2.36,4.49"/><path class="cls-7" d="M189.43,24.8a30.74,30.74,0,0,1,3,2.54c-.31-.12-7.08-5.34-7.17-5.54a49.77,49.77,0,0,1,4.15,3"/></g></g></g></g></g></g></svg>