<?xml version="1.0" encoding="utf-8"?>
<!-- Generator: Adobe Illustrator 24.1.1, SVG Export Plug-In . SVG Version: 6.00 Build 0)  -->
<svg version="1.1" id="Capa_1" xmlns="http://www.w3.org/2000/svg" xmlns:xlink="http://www.w3.org/1999/xlink" x="0px" y="0px"
	 viewBox="0 0 512 312" style="enable-background:new 0 0 512 312;" xml:space="preserve">
<style type="text/css">
	.st0{fill:#DAE8FB;}
	.st1{fill:#869CCA;}
	.st2{fill:#FFDD8D;}
</style>
<path class="st0" d="M486,72.8L486,72.8H132.1H27c-6.2,0-11.3,5.1-11.3,11.3v207.8l0,0c0,6.2,5.1,11.3,11.3,11.3h48.9h151.3H486
	c6.3,0,11.3-5.1,11.3-11.3V84.1C497.3,77.8,492.3,72.8,486,72.8z"/>
<path class="st1" d="M486,61.8L486,61.8H132.1H27c-6.2,0-11.3,5.1-11.3,11.3v207.8l0,0c0,6.2,5.1,11.3,11.3,11.3h48.9h151.3H486
	c6.3,0,11.3-5.1,11.3-11.3V73.1C497.3,66.8,492.3,61.8,486,61.8z"/>
<path class="st0" d="M486,50.8L486,50.8H132.1H27c-6.2,0-11.3,5.1-11.3,11.3v207.8l0,0c0,6.2,5.1,11.3,11.3,11.3h48.9h151.3H486
	c6.3,0,11.3-5.1,11.3-11.3V62.1C497.3,55.8,492.3,50.8,486,50.8z"/>
<path class="st0" d="M486,51.8L486,51.8H132.1H27c-6.2,0-11.3,5.1-11.3,11.3v207.8l0,0c0,6.2,5.1,11.3,11.3,11.3h48.9h151.3H486
	c6.3,0,11.3-5.1,11.3-11.3V63.1C497.3,56.8,492.3,51.8,486,51.8z"/>
<path class="st1" d="M486,40.8L486,40.8H132.1H27c-6.2,0-11.3,5.1-11.3,11.3v207.8l0,0c0,6.2,5.1,11.3,11.3,11.3h48.9h151.3H486
	c6.3,0,11.3-5.1,11.3-11.3V52.1C497.3,45.8,492.3,40.8,486,40.8z"/>
<path class="st0" d="M486,29.8L486,29.8H132.1H27c-6.2,0-11.3,5.1-11.3,11.3v207.8l0,0c0,6.2,5.1,11.3,11.3,11.3h48.9h151.3H486
	c6.3,0,11.3-5.1,11.3-11.3V41.1C497.3,34.8,492.3,29.8,486,29.8z"/>
<path class="st1" d="M485.5,16.9L485.5,16.9H131.6H26.5c-6.2,0-11.3,5.1-11.3,11.3V236l0,0c0,6.2,5.1,11.3,11.3,11.3h48.9h151.3
	h258.8c6.3,0,11.3-5.1,11.3-11.3V28.2C496.8,22,491.8,16.9,485.5,16.9z"/>
<path class="st0" d="M443.2,47.9H68.8c0,8.2-4.4,15.4-10.9,19.4c-0.9,0.5-1.9,1-2.9,1.5c-0.7,0.3-1.4,0.5-2.1,0.8
	c-2.1,0.7-4.4,1-6.7,1v123.2c2.3,0,4.6,0.4,6.7,1c0.7,0.2,1.4,0.5,2.1,0.8c1,0.4,2,0.9,2.9,1.5c6.5,4,10.9,11.2,10.9,19.4l0,0h118
	h256.4c0-12.5,10.1-22.7,22.7-22.7V70.6C453.3,70.6,443.2,60.4,443.2,47.9z"/>
<circle class="st2" cx="256.1" cy="127.3" r="60.3"/>
</svg>
