<?xml version="1.0" encoding="utf-8"?>
<!-- Generator: Adobe Illustrator 24.1.1, SVG Export Plug-In . SVG Version: 6.00 Build 0)  -->
<svg version="1.1" id="Capa_1" xmlns="http://www.w3.org/2000/svg" xmlns:xlink="http://www.w3.org/1999/xlink" x="0px" y="0px"
	 viewBox="0 0 512 512" style="enable-background:new 0 0 512 512;" xml:space="preserve">
<style type="text/css">
	.st0{fill:#869CCA;}
	.st1{fill:#DAE8FB;}
	.st2{fill:#FFDD8D;}
</style>
<g>
	<path class="st0" d="M441.4,79.5l-26.5,17.7l-44.1-8.8l-26.5-8.8L309,88.3l-26.5-8.8l17.7-35.3h35.3L370,26.9
		C396.7,40.1,420.9,57.9,441.4,79.5z"/>
	<path class="st0" d="M238.3,44.2l-8.8,26.5L203,79.5l-26.5,44.1l-44.1,26.5L70.6,159v26.5l17.7,17.7v35.3l-26.5-17.7l-26.5-17.7
		l-15.4-46.2c26.4-63,77-112.8,140.4-138.3l25.1,16.8L238.3,44.2z"/>
	<polygon class="st0" points="256,291.4 247.2,335.5 211.8,370.8 211.8,397.3 176.5,423.8 176.5,468 150,459.1 132.4,415 
		132.4,326.7 88.2,317.9 70.6,282.6 70.6,256.1 88.2,238.4 114.7,211.9 132.4,247.3 194.2,247.3 220.7,291.4 	"/>
	<path class="st0" d="M479.3,131c48.2,86,42.7,192-14.1,272.5l-23.8-23.8v-35.3l-17.7-35.3L406,273.8v-35.3l-26.5-17.7l-35.3,8.8
		l-61.8-26.5l-8.8-61.8l26.5-26.5h53l17.7,26.5l53,8.8l53-17.7L479.3,131z"/>
</g>
<path class="st1" d="M309,88.3l35.3-8.8l26.5,8.8l44.1,8.8l26.5-17.7c14.8,15.5,27.5,32.8,38,51.5l-2.6,1.5l-53,17.7l-53-8.8
	l-17.7-26.5h-53l-26.5,26.5l8.8,61.8l61.8,26.5l35.3-8.8l26.5,17.7v35.3l17.7,35.3l17.7,35.3v35.3l23.8,23.8
	C383.7,519,223.9,546.6,108.4,465.1C10.3,395.8-26.5,267.7,19.9,156.9l15.4,46.2l26.5,17.7l26.5,17.7l-17.7,17.7v26.5L88.3,318
	l44.1,8.8V415l17.7,44.1l26.5,8.8v-44.1l35.3-26.5v-26.5l35.3-35.3l8.8-44.1h-35.3l-26.5-44.1h-61.8L114.7,212l-26.5,26.5v-35.3
	l-17.7-17.7V159l61.8-8.8l44.1-26.5L203,79.5l26.5-8.8l8.8-26.5l-53-8.8l-25.1-16.8c68-27.3,144.3-24.3,209.8,8.3l-34.6,17.3h-35.3
	l-17.7,35.3L309,88.3z"/>
<g>
	<g>
		<path class="st2" d="M355.4,67.4c-19,0-34.5,15.5-34.5,34.5c0,19.1,15.5,34.5,34.5,34.5c19.4,0,34.5-15.7,34.5-34.5
			C389.9,82.8,374.4,67.4,355.4,67.4z"/>
	</g>
</g>
<g>
	<g>
		<path class="st2" d="M209.7,332.8c-19,0-34.5,15.5-34.5,34.5c0,19.1,15.5,34.5,34.5,34.5c19.4,0,34.5-15.7,34.5-34.5
			C244.2,348.3,228.7,332.8,209.7,332.8z"/>
	</g>
</g>
<g>
	<g>
		<path class="st2" d="M137.5,105.5c-19,0-34.5,15.5-34.5,34.5c0,19.1,15.5,34.5,34.5,34.5c19.4,0,34.5-15.7,34.5-34.5
			C172,121,156.5,105.5,137.5,105.5z"/>
	</g>
</g>
</svg>
