<?xml version="1.0" encoding="utf-8"?>
<!-- Generator: Adobe Illustrator 24.1.1, SVG Export Plug-In . SVG Version: 6.00 Build 0)  -->
<svg version="1.1" id="Capa_1" xmlns="http://www.w3.org/2000/svg" xmlns:xlink="http://www.w3.org/1999/xlink" x="0px" y="0px"
	 viewBox="0 1.8 21.2 13.5" style="enable-background:new 0 0 21.2 21.2;" xml:space="preserve">
<style type="text/css">
	.st0{fill:#DAE8FB;}
	.st1{fill:#FFDD8D;}
	.st2{fill:#869CCA;}
</style>
<g>
	<path class="st0" d="M4.3,13.8c1.2-0.7,2.4-1.3,3.4,0.2c0.2,0.3,0.5,0.4,0.9,0.4c2.3,0,4.6,1.6,6.9,0c0.1-0.1,0.4,0,0.6,0
		c2.2-0.2,3.2-1.1,3.6-3.5c0,0,0,0,0,0c0,0,0,0,0,0c0,0,0,0,0,0c0.8-0.2,1.4-0.6,1.4-1.2c0-0.1,0-0.2,0-0.3c0,0,0,0,0-0.1
		c0-0.1-0.1-0.3-0.1-0.4c0,0,0,0,0,0c-0.1-0.1-0.2-0.3-0.3-0.5c-0.1-0.2-0.1-0.5-0.1-0.7c0.2-0.9-0.5-1.1-1-1.1
		c-1.2,0.1-2.2-0.4-3.2-0.6c-0.6-0.1-1.2-0.4-1.6,0.5c-0.3,0.6-1.2,1-1.7,0.7c-0.8-0.6-1.4-0.2-1.9,0.2c-0.6,0.5-1.4,0.9-1.9,1.4
		c-0.7,0.7,0.4,1.4,0.4,2.1c0,0-0.1,0.1-0.2,0.2c-0.5-0.7-1.2-0.7-2-0.6C6,10.8,4.7,12,3.1,11.1c-0.1-0.1-0.6,0.1-0.6,0.2
		c-0.3,0.8-0.6,0.5-1,0.1c-0.3-0.3-0.9-0.5-1.1-0.1c-0.2,0.3-0.4,0.9-0.2,1.4C0.5,13.3,3.7,14.2,4.3,13.8z"/>
</g>
<g>
	<g>
		<path class="st1" d="M10.4,4.6c-0.6,0-1,0.5-1,1c0,0.6,0.5,1,1,1c0.6,0,1-0.5,1-1C11.4,5,11,4.6,10.4,4.6z"/>
	</g>
</g>
<g>
	<g>
		<path class="st2" d="M10.4,2.5c-1.7,0-3.1,1.4-3.1,3.1c0,0.6,0.2,1.1,0.5,1.6l2.5,4c0.1,0.2,0.3,0.2,0.4,0l2.4-4
			c0.3-0.5,0.4-1,0.4-1.6C13.5,3.9,12.1,2.5,10.4,2.5z M10.4,7.2c-0.9,0-1.6-0.7-1.6-1.6c0-0.9,0.7-1.6,1.6-1.6
			c0.9,0,1.6,0.7,1.6,1.6C12,6.5,11.3,7.2,10.4,7.2z"/>
	</g>
</g>
</svg>
