<svg xmlns="http://www.w3.org/2000/svg" xmlns:xlink="http://www.w3.org/1999/xlink" viewBox="0 0 645.27 267.04"><defs><style>.cls-1{fill:url(#linear-gradient);}.cls-2{fill:url(#linear-gradient-2);}.cls-3{fill:url(#linear-gradient-3);}.cls-4{fill:url(#linear-gradient-4);}.cls-5{fill:url(#linear-gradient-5);}.cls-6{fill:url(#linear-gradient-6);}.cls-7{fill:url(#linear-gradient-7);}.cls-8{fill:url(#linear-gradient-8);}.cls-9{fill:url(#linear-gradient-9);}.cls-10{fill:url(#linear-gradient-10);}.cls-11{fill:url(#linear-gradient-11);}.cls-12{fill:url(#linear-gradient-12);}.cls-13{fill:url(#linear-gradient-13);}.cls-14{fill:url(#linear-gradient-14);}.cls-15{fill:url(#linear-gradient-15);}.cls-16{fill:url(#linear-gradient-16);}.cls-17{fill:url(#linear-gradient-17);}.cls-18{fill:url(#linear-gradient-18);}</style><linearGradient id="linear-gradient" x1="54.01" y1="63.42" x2="54.01" y2="244.97" gradientUnits="userSpaceOnUse"><stop offset="0" stop-color="#e2c465"/><stop offset="0.23" stop-color="#996f32"/><stop offset="0.33" stop-color="#d6b65c"/><stop offset="0.46" stop-color="#f6f1b9"/><stop offset="0.58" stop-color="#d6b65c"/><stop offset="0.69" stop-color="#835e2d"/><stop offset="1" stop-color="#d6b65c"/></linearGradient><linearGradient id="linear-gradient-2" x1="129.17" y1="63.33" x2="129.17" y2="244.8" xlink:href="#linear-gradient"/><linearGradient id="linear-gradient-3" x1="91.1" y1="46.57" x2="91.1" y2="267.04" xlink:href="#linear-gradient"/><linearGradient id="linear-gradient-4" x1="93.17" x2="93.17" y2="48.71" gradientUnits="userSpaceOnUse"><stop offset="0" stop-color="#e2c465"/><stop offset="0.23" stop-color="#996f32"/><stop offset="0.33" stop-color="#d6b65c"/><stop offset="0.46" stop-color="#f6f1b9"/><stop offset="0.58" stop-color="#d6b65c"/><stop offset="1" stop-color="#d6b65c"/></linearGradient><linearGradient id="linear-gradient-5" x1="273.89" y1="182.22" x2="273.89" y2="217.09" gradientUnits="userSpaceOnUse"><stop offset="0" stop-color="#e2c465"/><stop offset="0.23" stop-color="#996f32"/><stop offset="1" stop-color="#d6b65c"/></linearGradient><linearGradient id="linear-gradient-6" x1="328.35" y1="182.75" x2="328.35" y2="216.55" xlink:href="#linear-gradient-5"/><linearGradient id="linear-gradient-7" x1="380.11" y1="182.75" x2="380.11" y2="217.09" xlink:href="#linear-gradient-5"/><linearGradient id="linear-gradient-8" x1="436.53" y1="182.75" x2="436.53" y2="216.55" xlink:href="#linear-gradient-5"/><linearGradient id="linear-gradient-9" x1="233.45" y1="351.18" x2="233.45" y2="364.4" gradientTransform="translate(7.41 -157.97)" xlink:href="#linear-gradient-5"/><linearGradient id="linear-gradient-10" x1="395.51" y1="190.16" x2="395.51" y2="203.39" gradientTransform="translate(73.8 3.78)" xlink:href="#linear-gradient-5"/><linearGradient id="linear-gradient-11" x1="252.22" y1="85.91" x2="252.22" y2="151.79" gradientUnits="userSpaceOnUse"><stop offset="0" stop-color="#e2c465"/><stop offset="0.23" stop-color="#996f32"/><stop offset="0.33" stop-color="#d6b65c"/><stop offset="0.58" stop-color="#d6b65c"/><stop offset="1" stop-color="#d6b65c"/></linearGradient><linearGradient id="linear-gradient-12" x1="307.66" y1="99.68" x2="307.66" y2="152.78" xlink:href="#linear-gradient-11"/><linearGradient id="linear-gradient-13" x1="363.04" y1="85.91" x2="363.04" y2="151.79" xlink:href="#linear-gradient-11"/><linearGradient id="linear-gradient-14" x1="412.38" y1="99.68" x2="412.38" y2="152.78" xlink:href="#linear-gradient-11"/><linearGradient id="linear-gradient-15" x1="468.66" y1="99.68" x2="468.66" y2="152.78" xlink:href="#linear-gradient-11"/><linearGradient id="linear-gradient-16" x1="525.48" y1="81.45" x2="525.48" y2="152.78" xlink:href="#linear-gradient-11"/><linearGradient id="linear-gradient-17" x1="578.74" y1="99.68" x2="578.74" y2="152.78" xlink:href="#linear-gradient-11"/><linearGradient id="linear-gradient-18" x1="629.61" y1="99.68" x2="629.61" y2="151.79" xlink:href="#linear-gradient-11"/></defs><title>Layer 1</title><g id="Слой_2" data-name="Слой 2"><g id="Layer_1" data-name="Layer 1"><path class="cls-1" d="M82.11,63.42c-18.69.08-31,3.52-56,11.09-4,1.21-5,.73-5,3,.14,28.19.09,56.37.09,84.56h.17v8.65q0,10.5-.05,21a33.67,33.67,0,0,0,3.08,6.52,64.05,64.05,0,0,0,17.13,20A140.46,140.46,0,0,0,66.4,235.4v.17l2.4,1.12C74.11,239.5,80,242.28,86.47,245c0-16.27-.32-63.65-.26-79.92,0-1.42-.71-2.48-2.3-3.53-8.2-5.42-16.23-10.92-24.48-16.31-1.75-1.15-1.89-1.83-.09-3,8.33-5.47,16.46-11.05,24.75-16.54,2.06-1.36,1.85-2.65,1.86-4.92.06-10.81.12-15.54.19-19.64h.22c0-1.45.22-20.47.24-22.45C86.73,65.13,88.51,63.39,82.11,63.42ZM65.37,167c1.4,1,.81,2.25.81,3.34,0,10.89.14,34,.19,51a150.55,150.55,0,0,1-24.84-19.24l-.23-51.32C49.82,156.56,57.63,161.78,65.37,167Zm.69-48.36a2.6,2.6,0,0,1-1.44,2.22c-7.51,5-15,10-23.19,15.5-.11-1.32-.22-2-.22-2.77,0-14.9.06-29.81-.09-44.72,0-2-1.06-8.31,2.36-9.15C54.59,77,56,76.24,63.17,75.22c2.21-.31,2.87.42,2.86,1.7,0,1.7.1,13.86.15,20.26h-.11C66.06,104.34,66,111.51,66.06,118.68Z"/><path class="cls-2" d="M145.45,144.52c0,11.94-.09,24.91,0,36.84a20.33,20.33,0,0,1-3.73,12c-4.52,6.68-10.55,12.15-17.12,17.16-3.72,2.85-7.64,5.5-11.8,8.47l-.07-154.52L96.44,63.33l.08,181.47c.71-.28,1.13-.41,1.51-.59,13.67-6.7,26.7-14.24,38.46-23.46,7.48-5.87,14.31-12.27,19.43-20a33.23,33.23,0,0,0,6-19.24c-.16-11.94,0-24.9,0-36.85C156.41,144.63,150.93,144.55,145.45,144.52Z"/><path class="cls-3" d="M182,68.33a5.14,5.14,0,0,0-3.81-4.3l-2.5-.8c-4.4-1.4-8.95-2.84-13.35-4.38a216.48,216.48,0,0,0-58.62-11.91,212.62,212.62,0,0,0-58.87,4.72,311,311,0,0,0-30,8.83C11.16,61.73,7.44,63,3.69,64.14a3.79,3.79,0,0,0-2.9,3.78L.63,71.17c-.09,1.76-.15,3.51-.2,5.26-.41.3-.34.85-.34,2.23,0,34.2,0,68.4-.09,102.6A49.79,49.79,0,0,0,9,210c8.43,12.43,20.07,22.24,33,30.94,4.47,3,9.46,5.43,13.8,8.56C58.47,251.39,88.59,267,91.25,267c8.37-.78,33.71-16.51,35.76-17.8,3.87-2.44,7.91-4.67,11.59-7.31,5.13-3.68,10-7.65,15-11.49a88.31,88.31,0,0,0,18.31-18.64c6.16-8.66,10.19-18,10.2-28.28q0-48,0-95.91C182.14,80.6,182.33,74.27,182,68.33ZM165.25,182.5a33.63,33.63,0,0,1-5.09,17.65c-5.21,8.68-12.57,15.83-20.81,22.32-13.86,10.93-29.39,19.7-45.78,27.39a5.18,5.18,0,0,1-4.95,0,258.55,258.55,0,0,1-35.73-20C42.71,223,33.32,215.34,26,206c-6-7.7-9.17-16-9.11-25.59.24-35,.08-70,.06-105V74l5.79-1.88a273.42,273.42,0,0,1,27.15-7.85,196.35,196.35,0,0,1,52.51-4.11,194.26,194.26,0,0,1,52.29,10.36c3.6,1.24,7.24,2.41,10.6,3.48v1.47Q165.23,129,165.25,182.5Z"/><path class="cls-4" d="M140.94,8.08A2.94,2.94,0,0,0,138,11a2.88,2.88,0,0,0,.56,1.62.51.51,0,0,1-.09.42q-3.18,5.08-6.34,10.17c-.09.13-.14.3-.34.4a26.76,26.76,0,0,1,.13-2.86A33.9,33.9,0,0,1,135.35,9a.42.42,0,0,1,.21-.19,2.84,2.84,0,0,0,.42.09A2.94,2.94,0,1,0,133.05,6a2.88,2.88,0,0,0,1.09,2.23c.11.17.09.3-.15.63-1.55,2.13-3,4.33-4.61,6.42a35.45,35.45,0,0,1-5.76,6.23,9.68,9.68,0,0,1-3.14,1.74,4,4,0,0,1-3-.17A5.81,5.81,0,0,1,115.26,21a22.5,22.5,0,0,1-2.94-7.3A55.51,55.51,0,0,1,111,6.33c0-.36,0-.58.37-.74a2.6,2.6,0,0,0,.74-.52A3,3,0,0,0,113,2.94a2.94,2.94,0,1,0-5.88,0,2.84,2.84,0,0,0,.1.49h0c0,.05,0,.11,0,.16a3,3,0,0,0,.22.68c.07.13.17.24.25.37a2.87,2.87,0,0,0,.34.44s0,.07.09.11a.5.5,0,0,1,.14.67,38,38,0,0,1-4.12,7.26,56.83,56.83,0,0,1-3.48,4.54,19.68,19.68,0,0,1-3.57,3.61,6.83,6.83,0,0,1-7.85.06,14.64,14.64,0,0,1-2.72-2.61,63.18,63.18,0,0,1-6.26-8.49,31.6,31.6,0,0,1-2.26-4.41.44.44,0,0,1,0-.45A2.88,2.88,0,0,0,79.33,3a2.94,2.94,0,1,0-5.87,0,2.89,2.89,0,0,0,1.38,2.43h0l0,0a3,3,0,0,0,.37.25.47.47,0,0,1,.19.48,51.16,51.16,0,0,1-2.26,10.54A13.92,13.92,0,0,1,70.31,22a4,4,0,0,1-3.65,1.38,8.23,8.23,0,0,1-3.88-1.9,34.08,34.08,0,0,1-5.61-6c-1.69-2.2-3.23-4.51-4.86-6.76a.4.4,0,0,1-.06-.49,3,3,0,0,0,1.23-2.4,3.08,3.08,0,1,0-3.07,3.08,2.46,2.46,0,0,0,.47-.1.27.27,0,0,1,.15.15,35.55,35.55,0,0,1,3.22,10,20.91,20.91,0,0,1,.27,4.69c-.26-.43-.52-.85-.79-1.27-1.94-3.1-3.87-6.21-5.82-9.31a.47.47,0,0,1,0-.62.93.93,0,0,0,0-.1l-.29.16a2.83,2.83,0,0,0,.65-1.77,2.94,2.94,0,1,0-2.94,2.94,2.16,2.16,0,0,0,.27-.05l-.1.05a2.56,2.56,0,0,0,.77-.08.48.48,0,0,1,.65.28q1.36,2.25,2.64,4.54a80.74,80.74,0,0,1,5.62,11.94,21.37,21.37,0,0,1,1.07,4.18c0,.32,0,.46-.36.54a1.7,1.7,0,0,0-1.32,1.6,2.89,2.89,0,0,0,1.38,3,.54.54,0,0,1,.28.44c.07.75.13,4.38.16,8a187.69,187.69,0,0,1,48-3,184.55,184.55,0,0,1,25.45,3.56c0-3.77.08-7.63.14-8.38a.87.87,0,0,1,.43-.75,2.62,2.62,0,0,0,1.24-1.91c.21-1.49-.1-2.05-1.55-2.68-.16-.08-.14-.19-.13-.31.08-.47.13-.94.23-1.41a32.61,32.61,0,0,1,2.11-6.15,116.13,116.13,0,0,1,7.06-13.38.48.48,0,0,1,.15-.14,2.83,2.83,0,0,0,1.32.36,2.94,2.94,0,0,0,0-5.88ZM65.93,39c-.38.61-.89.62-1.21,0a4.32,4.32,0,0,1,0-3.81c.28-.61.83-.6,1.2,0a3.93,3.93,0,0,1,.45,2A3.66,3.66,0,0,1,65.93,39Zm13.45.5c-.19.45-.43.94-1,1s-.83-.46-1-.9a6.18,6.18,0,0,1-.43-2.92,5,5,0,0,1,.48-2.11,1.74,1.74,0,0,1,.39-.54A.74.74,0,0,1,79,34a4.25,4.25,0,0,1,.84,2.5c0,.18,0,.36,0,.55A5.71,5.71,0,0,1,79.38,39.49Zm15.4,1.41a3.78,3.78,0,0,1-.64,1,1.21,1.21,0,0,1-1.94,0,6,6,0,0,1-1.27-3.24,8.58,8.58,0,0,1-.11-1.68,9.16,9.16,0,0,1,.85-4.12,2.92,2.92,0,0,1,.44-.66,1.25,1.25,0,0,1,2.15.08,5.74,5.74,0,0,1,1,2.51A10.82,10.82,0,0,1,94.78,40.9Zm14.58-1.57c-.22.63-.72,1.17-1.13,1.11-.63-.08-.87-.62-1-1.13a6.51,6.51,0,0,1,0-4.52,1.94,1.94,0,0,1,.55-.88.75.75,0,0,1,1.06,0,2.62,2.62,0,0,1,.73,1.44,6.56,6.56,0,0,1,.19,2.05A5,5,0,0,1,109.36,39.33ZM121.84,39c-.3.58-.78.56-1.13,0a4.3,4.3,0,0,1,0-3.87c.36-.63.89-.65,1.21,0A4.11,4.11,0,0,1,121.84,39Z"/><path class="cls-5" d="M269.56,215.78a14.55,14.55,0,0,1-5.48-4.08,16.25,16.25,0,0,1-3.06-5.65,21.78,21.78,0,0,1,0-12.79,16.16,16.16,0,0,1,3.06-5.67,14.53,14.53,0,0,1,5.48-4.07,17.14,17.14,0,0,1,6.73-1.3,21.86,21.86,0,0,1,5.64.75,18.9,18.9,0,0,1,5.23,2.21,1.16,1.16,0,0,1,.56,1,1,1,0,0,1-.16.58l-1.87,3.2a1.08,1.08,0,0,1-1.05.58,1.14,1.14,0,0,1-.65-.21,11.1,11.1,0,0,0-3.69-1.65,15.88,15.88,0,0,0-4.06-.54,9.13,9.13,0,0,0-4.2.93,8.76,8.76,0,0,0-3.27,2.83,14.8,14.8,0,0,0,0,15.43,8.64,8.64,0,0,0,7.52,3.78,15.8,15.8,0,0,0,4-.54,11.11,11.11,0,0,0,3.69-1.66,1.14,1.14,0,0,1,.65-.21,1.09,1.09,0,0,1,1.05.59l1.87,3.19a1.05,1.05,0,0,1,.16.59,1.13,1.13,0,0,1-.56,1,18.94,18.94,0,0,1-5.23,2.24,22.31,22.31,0,0,1-5.64.75A17,17,0,0,1,269.56,215.78Z"/><path class="cls-6" d="M318.42,216.55a1.19,1.19,0,0,1-1.19-1.19V183.92a1.18,1.18,0,0,1,1.19-1.17h4.15a1.18,1.18,0,0,1,1.19,1.17v26.56h14.52a1.2,1.2,0,0,1,1.19,1.2v3.68a1.19,1.19,0,0,1-1.19,1.19Z"/><path class="cls-7" d="M374.55,216a11.86,11.86,0,0,1-4.51-3.34,13.46,13.46,0,0,1-2.52-4.66,17.17,17.17,0,0,1-.79-5.26V183.92a1.18,1.18,0,0,1,1.19-1.17h4.16a1.18,1.18,0,0,1,1.19,1.17v18.81a9.52,9.52,0,0,0,1.56,5.61,6.53,6.53,0,0,0,10.55,0,9.63,9.63,0,0,0,1.56-5.61V183.92a1.18,1.18,0,0,1,1.2-1.17h4.15a1.18,1.18,0,0,1,1.19,1.17v18.81a17.17,17.17,0,0,1-.79,5.26,13.46,13.46,0,0,1-2.52,4.66,11.77,11.77,0,0,1-4.53,3.34,13.75,13.75,0,0,1-5.53,1.1A13.93,13.93,0,0,1,374.55,216Z"/><path class="cls-8" d="M425.27,216.55a1.19,1.19,0,0,1-1.19-1.19V183.92a1.18,1.18,0,0,1,1.19-1.17h11.44a12.29,12.29,0,0,1,7,2,9.37,9.37,0,0,1,4.3,8,6.89,6.89,0,0,1-3.67,6.44q4.69,3.15,4.69,7.42a9.5,9.5,0,0,1-4.36,8.05,12.5,12.5,0,0,1-7,2Zm11.44-20a5.68,5.68,0,0,0,3.22-.89,3.7,3.7,0,0,0,0-5.93,5.46,5.46,0,0,0-3.22-.91h-6.1v7.73Zm.88,13.95a5.66,5.66,0,0,0,3.32-.91,3.76,3.76,0,0,0,0-6.07,5.73,5.73,0,0,0-3.32-.9h-7v7.88Z"/><rect class="cls-9" x="234.25" y="193.21" width="13.22" height="13.22" transform="translate(211.84 -111.79) rotate(45)"/><rect class="cls-10" x="462.7" y="193.94" width="13.22" height="13.22" transform="translate(279.27 -273.11) rotate(45)"/><path class="cls-11" d="M274.42,133.46q0,8.73-5.75,13.53t-15.46,4.8H230V85.91h22.29q9.62,0,14.87,3.71c3.49,2.48,5.25,6.49,5.25,12v1.58a11.55,11.55,0,0,1-2.68,7.78,17.22,17.22,0,0,1-5.94,4.61,14.47,14.47,0,0,1,8,5.55,14.81,14.81,0,0,1,2.63,8.52Zm-13.08-30.81q0-4.16-2.72-5.7t-7.78-1.53h-9.61v16.84h9.61q5.15,0,7.82-1.78t2.68-6.44Zm2,27.25a8.7,8.7,0,0,0-2.18-6c-1.45-1.65-3.9-2.48-7.33-2.48H241.23v21h12q5.16,0,7.63-2.73a9.92,9.92,0,0,0,2.48-7Z"/><path class="cls-12" d="M317.62,134.55h10.89v.4a18,18,0,0,1-1.18,6.34,16.82,16.82,0,0,1-3.67,5.75,18.16,18.16,0,0,1-6.39,4.16,24.84,24.84,0,0,1-9.36,1.58,24.06,24.06,0,0,1-9.42-1.68,18.59,18.59,0,0,1-6.59-4.56A17.86,17.86,0,0,1,288,139.7a27.88,27.88,0,0,1-1.24-8.42v-10a27.1,27.1,0,0,1,1.29-8.43A19.42,19.42,0,0,1,292,106a17.82,17.82,0,0,1,6.59-4.61,24.15,24.15,0,0,1,9.37-1.68,23.11,23.11,0,0,1,9.71,1.83,17.22,17.22,0,0,1,6.39,4.9,19.12,19.12,0,0,1,3.47,7,31.81,31.81,0,0,1,1,8.17V129H298v2.38a24,24,0,0,0,.44,4.61,10.61,10.61,0,0,0,1.64,4,8.18,8.18,0,0,0,3.17,2.73,11.3,11.3,0,0,0,5.05,1,10.53,10.53,0,0,0,4.12-.74,8.94,8.94,0,0,0,2.92-2,7.56,7.56,0,0,0,1.73-2.77,9.32,9.32,0,0,0,.55-3.12ZM298,121h19.62v-1.49a14,14,0,0,0-.5-3.56,10.62,10.62,0,0,0-1.63-3.47,9.12,9.12,0,0,0-3-2.63,9.83,9.83,0,0,0-4.76-1,9.28,9.28,0,0,0-4.61,1,9.59,9.59,0,0,0-3,2.58,10,10,0,0,0-1.64,3.42,14,14,0,0,0-.49,3.57Z"/><path class="cls-13" d="M354.08,85.91v56.37h29.13v9.51H342.88V85.91Z"/><path class="cls-14" d="M422.34,134.55h10.9v.4a18,18,0,0,1-1.19,6.34,16.67,16.67,0,0,1-3.67,5.75A18.16,18.16,0,0,1,422,151.2a24.84,24.84,0,0,1-9.36,1.58,24,24,0,0,1-9.41-1.68,18.5,18.5,0,0,1-6.59-4.56,17.73,17.73,0,0,1-3.86-6.84,27.88,27.88,0,0,1-1.24-8.42v-10a27.39,27.39,0,0,1,1.28-8.43,19.29,19.29,0,0,1,3.87-6.88,17.74,17.74,0,0,1,6.59-4.61,24.07,24.07,0,0,1,9.36-1.68,23.08,23.08,0,0,1,9.71,1.83,17.22,17.22,0,0,1,6.39,4.9,19,19,0,0,1,3.47,7,31.82,31.82,0,0,1,1,8.17V129H402.72v2.38a23.18,23.18,0,0,0,.45,4.61,10.6,10.6,0,0,0,1.63,4,8.26,8.26,0,0,0,3.17,2.73,11.31,11.31,0,0,0,5.06,1,10.51,10.51,0,0,0,4.11-.74,8.84,8.84,0,0,0,2.92-2,7.56,7.56,0,0,0,1.73-2.77,9.08,9.08,0,0,0,.55-3.12ZM402.72,121h19.62v-1.49a14,14,0,0,0-.5-3.56,10.42,10.42,0,0,0-1.63-3.47,9.12,9.12,0,0,0-3-2.63,9.81,9.81,0,0,0-4.76-1,9.24,9.24,0,0,0-4.6,1,9.52,9.52,0,0,0-3,2.58,9.83,9.83,0,0,0-1.63,3.42,14,14,0,0,0-.5,3.57Z"/><path class="cls-15" d="M446.62,116.82v-1.49a15.4,15.4,0,0,1,1.14-5.8,13.8,13.8,0,0,1,3.51-5,17.89,17.89,0,0,1,6.1-3.51,26,26,0,0,1,8.86-1.34,27.28,27.28,0,0,1,9.71,1.48,15.64,15.64,0,0,1,6.2,4.11,15,15,0,0,1,3.27,6.3,32.08,32.08,0,0,1,.94,7.92v19q0,4.75,5.54,4.75v9.51a28.54,28.54,0,0,1-9.75-1.38,8.06,8.06,0,0,1-5-4.86A20.53,20.53,0,0,1,471,151.1a20.22,20.22,0,0,1-8.82,1.68q-8.71,0-12.73-4t-4-11.34v-1.09a18,18,0,0,1,1-6,12.84,12.84,0,0,1,3.22-5,15.43,15.43,0,0,1,5.79-3.42,27,27,0,0,1,8.73-1.24,29.41,29.41,0,0,1,5.54.5,49.67,49.67,0,0,1,5.45,1.39V118.7a20.51,20.51,0,0,0-.34-3.62,7.39,7.39,0,0,0-4.27-5.5,11.08,11.08,0,0,0-4.8-.89,12.42,12.42,0,0,0-4.31.65,7.7,7.7,0,0,0-2.78,1.68,6.15,6.15,0,0,0-1.48,2.38,8.22,8.22,0,0,0-.45,2.63v.79Zm28.53,13.47a31.08,31.08,0,0,0-4.06-1.14,26.93,26.93,0,0,0-4.86-.34q-5.25,0-7.48,2.23a7.24,7.24,0,0,0-2.22,5.3v.49a10.36,10.36,0,0,0,.39,2.92,5.35,5.35,0,0,0,1.39,2.33,7.07,7.07,0,0,0,2.72,1.59,13.67,13.67,0,0,0,4.31.59,12.32,12.32,0,0,0,5.7-1.19,19.33,19.33,0,0,0,4.11-2.77Z"/><path class="cls-16" d="M543.71,138a5.45,5.45,0,0,0,1.29,3.92c.86.89,2.35,1.33,4.46,1.33v9.51q-6.84,0-10.06-1.43a9.65,9.65,0,0,1-4.8-4.61,17.77,17.77,0,0,1-5.55,4.31,18.24,18.24,0,0,1-8.42,1.73q-9.42,0-14.27-5.45t-4.85-16v-10q0-10.29,5.4-16t14.81-5.69a17.4,17.4,0,0,1,6.09.94,27.74,27.74,0,0,1,4.81,2.33V81.45h10.1l1,8.42Zm-11.09-26.15a22.76,22.76,0,0,0-3.52-2.39,10.47,10.47,0,0,0-4.9-1q-5.76,0-8.63,3.71t-2.87,10V130q0,6.54,2.48,10.15t7.92,3.62a12,12,0,0,0,5.8-1.19,15.17,15.17,0,0,0,3.72-2.88Z"/><path class="cls-17" d="M588.69,134.55h10.9v.4a17.78,17.78,0,0,1-1.19,6.34,16.64,16.64,0,0,1-3.66,5.75,18.16,18.16,0,0,1-6.39,4.16,24.84,24.84,0,0,1-9.36,1.58,24,24,0,0,1-9.42-1.68,18.59,18.59,0,0,1-6.59-4.56,17.73,17.73,0,0,1-3.86-6.84,27.88,27.88,0,0,1-1.24-8.42v-10a27.1,27.1,0,0,1,1.29-8.43A19.27,19.27,0,0,1,563,106a17.82,17.82,0,0,1,6.59-4.61A24.15,24.15,0,0,1,579,99.68a23.06,23.06,0,0,1,9.7,1.83,17.06,17.06,0,0,1,6.39,4.9,19,19,0,0,1,3.47,7,31.38,31.38,0,0,1,1,8.17V129H569.08v2.38a23.18,23.18,0,0,0,.44,4.61,10.61,10.61,0,0,0,1.64,4,8.18,8.18,0,0,0,3.17,2.73,11.27,11.27,0,0,0,5,1,10.44,10.44,0,0,0,4.11-.74,8.88,8.88,0,0,0,2.93-2,7.56,7.56,0,0,0,1.73-2.77,9.31,9.31,0,0,0,.54-3.12ZM569.08,121h19.61v-1.49a14,14,0,0,0-.49-3.56,10.62,10.62,0,0,0-1.63-3.47,9.15,9.15,0,0,0-3-2.63,9.77,9.77,0,0,0-4.75-1,9.28,9.28,0,0,0-4.61,1,9.48,9.48,0,0,0-3,2.58,9.85,9.85,0,0,0-1.64,3.42,14,14,0,0,0-.49,3.57Z"/><path class="cls-18" d="M614,100.67h9.21l.9,5.35a28.8,28.8,0,0,1,6.39-4.51,17,17,0,0,1,8-1.83,22.31,22.31,0,0,1,3.67.25,14.72,14.72,0,0,1,3.17.94l-2.68,9.61a15.87,15.87,0,0,0-2.57-.75,18.66,18.66,0,0,0-9.22.8,25,25,0,0,0-5.74,3v38.24H614Z"/></g></g></svg>