<?xml version="1.0" encoding="utf-8"?>
<!-- Generator: Adobe Illustrator 24.1.1, SVG Export Plug-In . SVG Version: 6.00 Build 0)  -->
<svg version="1.1" id="_x33_0" xmlns="http://www.w3.org/2000/svg" xmlns:xlink="http://www.w3.org/1999/xlink" x="0px" y="0px"
	 viewBox="0 0 512 512" style="enable-background:new 0 0 512 512;" xml:space="preserve">
<style type="text/css">
	.st0{fill:#5FCEB9;}
</style>
<path class="st0" d="M478.8,337.1c-7.5-5.6-16.3-9.5-25.5-11.4l-22.8-4.6l-2.6-10.2c8.9-6.4,15.5-15.8,18.4-26.7l4.1-3.9
	c8.2-7.8,14.4-17.6,18-28.4c2.4-7.1,3.6-14.5,3.6-22c0-15.9-6.1-30.4-16-41.4V184c0-20.6-13.1-38.1-31.3-44.9
	c5.7-5.3,10.1-12,12.7-19.6c19.5-2.7,34.6-19.2,34.6-39.5c0-22.1-17.9-40-40-40c-13.1,0-25,6.3-32.4,16.7c-2.5-0.4-5-0.7-7.6-0.7
	c-26.5,0-48,21.5-48,48c0,13.8,5.9,26.3,15.3,35c-10.7,4-19.5,11.6-25.1,21.5c-4.1-5.8-8.9-11.1-14.2-15.9V136
	c0-20.6-13.1-38.1-31.3-44.9C298.1,82.3,304,69.8,304,56c0-26.5-21.5-48-48-48s-48,21.5-48,48c0,13.8,5.9,26.3,15.3,35.1
	C205.1,97.9,192,115.4,192,136v8.6c-5.3,4.8-10.1,10.1-14.2,15.9c-5.5-9.9-14.4-17.5-25.1-21.5c9.4-8.8,15.3-21.2,15.3-35
	c0-26.5-21.5-48-48-48s-48,21.5-48,48c0,13.8,5.9,26.3,15.3,35c-13.3,5-24,15.8-28.6,29.6C48,171.1,40,180.6,40,192v38
	c0,7.5,1.2,14.9,3.6,22c3.6,10.7,9.8,20.6,18,28.4l4.1,3.9c2.9,10.9,9.5,20.3,18.4,26.7l-2.6,10.2l-22.8,4.6
	c-9.2,1.8-18,5.8-25.5,11.4C17.4,348.9,8,367.8,8,387.5V504h496V387.5C504,367.8,494.6,348.9,478.8,337.1L478.8,337.1z M158.4,284.2
	l1.6-1.6v40.2c-0.7,0.5-1.5,0.9-2.2,1.4l-15.3-3.1l-2.6-10.2C148.9,304.5,155.5,295.1,158.4,284.2L158.4,284.2z M137.7,336.5l5,1
	c-2.6,2.9-5.1,6-7.3,9.3l-7.5-3.7L137.7,336.5z M109.8,368l-4-11.9l6.2-3.1l15.6,7.8c-1,2.4-2,4.8-2.8,7.2L109.8,368L109.8,368z
	 M91.3,363.3l4,12.1l-2.3,4.6l-7.4-13.8L91.3,363.3z M108.9,384h12c-0.6,4.1-1,8.3-1,12.6v3.6l-8,14.9l-9.6-17.9L108.9,384z
	 M120,434l1.7-3.1c2.6,5.3,8,9.1,14.3,9.1v48h-16V434z M152,440h19.4c1,3.7,2.2,7.5,3.6,11.1l9,22.4V488h-32V440z M189.9,445.2
	c-3.9-9.7-5.9-20-5.9-30.5c0-8.8,1.4-17.6,4.2-26l3.4-10.1l-15.2-5.1l-3.4,10.1c-3.3,10-5,20.5-5,31c0,3.1,0.2,6.3,0.4,9.4H136
	v-27.4c0-35.8,25.7-65.7,61.1-71.2l1-0.2L248,418v70h-48v-17.5L189.9,445.2z M256,189.1c11.1,12.5,26,21.1,42.7,24.4l5.3,1.1v27.1
	c0,25.5-20.8,46.3-46.3,46.3h-1.4c-26.6,0-48.3-21.5-48.3-48v-25.4l5.3-1.1C230,210.2,244.9,201.6,256,189.1L256,189.1z
	 M238.3,301.4c5.7,1.6,11.7,2.6,17.9,2.6h1.4c5.6,0,11-0.8,16.1-2.2c3.5,10.4,12.3,18.3,23.4,20.8L281.4,352h-50.8l-15.8-29.4
	C226.1,320.1,234.9,312,238.3,301.4L238.3,301.4z M256,399.1L239.2,368h33.5L256,399.1z M264,418l49.9-92.7l1,0.2
	c35.4,5.4,61,35.4,61,71.2V424h-32.4c0.3-3.1,0.4-6.2,0.4-9.4c0-10.6-1.7-21-5-31l-3.4-10.1l-15.2,5.1l3.4,10.1
	c2.8,8.4,4.2,17.1,4.2,26c0,10.5-2,20.8-5.9,30.5L312,470.5V488h-48V418z M352,282.7l1.6,1.6c2.9,10.9,9.5,20.3,18.4,26.7l-2.6,10.2
	l-15.3,3.1c-0.7-0.5-1.4-0.9-2.2-1.4L352,282.7z M402.2,368h-15c-0.8-2.5-1.8-4.9-2.8-7.2l15.6-7.8l6.2,3.1L402.2,368z M376.6,346.8
	c-2.2-3.3-4.7-6.3-7.3-9.3l5-1l9.8,6.5L376.6,346.8z M328,473.5l9-22.4c1.5-3.6,2.6-7.4,3.6-11.1H360v48h-32V473.5z M376,440
	c6.3,0,11.8-3.7,14.3-9.1l1.7,3.1v54h-16V440z M400,415.1l-8-14.9v-3.6c0-4.3-0.4-8.5-1-12.6h12l6.6,13.2L400,415.1z M418.9,380
	l-2.3-4.6l4-12.1l5.7,2.9L418.9,380z M440.7,339.5L434,352l-18.1-9l9.8-6.5L440.7,339.5z M414.9,324.5l-14.9,9.9l-14.9-9.9l1.6-6.4
	c4.2,1.2,8.7,1.9,13.3,1.9s9.1-0.7,13.3-1.9L414.9,324.5z M432,272c0,17.6-14.4,32-32,32s-32-14.4-32-32v-15
	c0-11,7.5-20.6,18.2-23.3l0.7-0.2c5.3,5.1,12.1,8.7,19.8,9.8l18.5,2.6c3.9,0.6,6.9,4,6.9,7.9V272z M453.3,246.9
	c-1.3,3.9-3.1,7.6-5.3,11.1v-4.2c0-11.9-8.9-22.1-20.6-23.8l-18.5-2.6c-9.6-1.4-16.9-9.7-16.9-19.5h-16c0,4,0.7,7.9,1.9,11.5
	c-15.5,5.8-25.9,20.6-25.9,37.4v-41c0-3.6-0.2-7.2-0.6-10.8c8.4-13.1,23-21.2,38.7-21.2h20c25.4,0,46,20.6,46,46
	C456,235.8,455.1,241.5,453.3,246.9L453.3,246.9z M408,152c0,8.8-7.2,16-16,16s-16-7.2-16-16H408z M438.6,175
	c-6-3.1-12.5-5.2-19.4-6.3c2.3-3.7,3.8-8,4.4-12.5C430.8,160.3,436.2,167,438.6,175z M392,136c-17.6,0-32-14.4-32-32h64
	C424,121.6,409.6,136,392,136z M432,56c13.2,0,24,10.8,24,24c0,10.3-6.6,19.1-16.1,22.5c-0.6-17.2-10.1-32.1-24.1-40.1
	C420.1,58.4,425.8,56,432,56z M392,72c11.8,0,22,6.5,27.6,16h-55.1C370,78.5,380.2,72,392,72z M360.4,156.1
	c0.8,6.1,3.3,11.7,7.1,16.2c-7.6,3-14.6,7.4-20.6,13.2c-0.8-2.2-1.5-4.5-2.4-6.6C346.1,169,352.1,160.8,360.4,156.1L360.4,156.1z
	 M303.7,132.8c-7-4-14.5-7.2-22.5-9.3c3.4-4.4,5.6-9.5,6.4-15.3C296.4,113.2,302.6,122.2,303.7,132.8z M240,104h32
	c0,8.8-7.2,16-16,16S240,112.8,240,104z M256,88c-17.6,0-32-14.4-32-32h64C288,73.6,273.6,88,256,88z M256,24c11.8,0,22,6.5,27.6,16
	h-55.1C234,30.5,244.2,24,256,24z M224.4,108.2c0.8,5.7,3,10.9,6.4,15.3c-7.9,2.2-15.5,5.3-22.5,9.3
	C209.4,122.2,215.6,113.2,224.4,108.2z M256,136c44.1,0,80,35.9,80,80v98.7c-5.9-2.3-12.1-4-18.6-5l-15.8-2.4
	c-6.4-1-11.3-5.6-12.9-11.5c18.7-10.8,31.4-30.9,31.4-54v-40.2l-18.2-3.6c-15.4-3.1-28.7-11.8-37.8-24.4V152h-16v21.4
	c-9.1,12.7-22.4,21.4-37.8,24.4l-18.1,3.6V240c0,23.4,12.7,43.8,31.6,55c-1.4,6.3-6.5,11.2-13.1,12.2l-15.8,2.4
	c-6.5,1-12.7,2.8-18.6,5V216C176,171.9,211.9,136,256,136L256,136z M167.5,178.9c-0.6,1.3-1,2.7-1.5,4.1c-5.9-5.4-12.8-9.5-20.4-12
	c3.2-4.3,5.2-9.3,6-14.9C159.9,160.8,165.9,169,167.5,178.9L167.5,178.9z M104,152h32c0,8.8-7.2,16-16,16S104,160.8,104,152z
	 M120,136c-17.6,0-32-14.4-32-32h64C152,121.6,137.6,136,120,136z M120,72c11.8,0,22,6.5,27.6,16H92.5C98,78.5,108.2,72,120,72z
	 M88.4,156.1c0.6,4.3,1.9,8.3,4,11.9H76.3C79.2,163,83.4,158.9,88.4,156.1z M58.7,246.9c-1.8-5.5-2.7-11.1-2.7-16.9v-38
	c0-4.4,3.6-8,8-8h64c13.3,0,25.8,6.8,33.2,17.8c-0.7,4.6-1.2,9.4-1.2,14.2v41c0-16.8-10.5-31.7-25.9-37.4c1.3-3.6,1.9-7.5,1.9-11.5
	h-16c0,9.7-7.3,18.1-16.9,19.5l-18.5,2.6C72.9,231.8,64,242,64,253.9v4.2C61.8,254.6,60,250.8,58.7,246.9L58.7,246.9z M80,253.9
	c0-4,3-7.4,6.9-7.9l18.5-2.6c7.7-1.1,14.5-4.6,19.8-9.8l0.7,0.2C136.5,236.4,144,246,144,257v15c0,17.6-14.4,32-32,32
	s-32-14.4-32-32V253.9z M112,320c4.6,0,9.1-0.7,13.3-1.9l1.6,6.4l-14.9,9.9l-14.9-9.9l1.6-6.4C102.9,319.3,107.4,320,112,320z
	 M86.3,336.5l9.8,6.5L78,352l-6.8-12.5L86.3,336.5z M24,387.5c0-14.7,7-28.8,18.8-37.6c3.7-2.8,7.9-5,12.3-6.6L104,434v54H56v-88H40
	v88H24V387.5z M488,488h-16v-88h-16v88h-48v-54l48.8-90.7c4.4,1.6,8.6,3.8,12.3,6.6c11.8,8.8,18.8,22.9,18.8,37.6V488z M225.7,253.3
	l-0.8-1.7l14.3-7.2l0.8,1.7c3,6.1,9.2,9.9,16,9.9c6.8,0,13-3.8,16-9.9l0.8-1.7l14.3,7.2l-0.8,1.7c-5.8,11.6-17.4,18.7-30.3,18.7
	S231.5,264.8,225.7,253.3L225.7,253.3z"/>
</svg>
