<?xml version="1.0" encoding="utf-8"?>
<!-- Generator: Adobe Illustrator 24.1.1, SVG Export Plug-In . SVG Version: 6.00 Build 0)  -->
<svg version="1.1" id="Layer_35" xmlns="http://www.w3.org/2000/svg" xmlns:xlink="http://www.w3.org/1999/xlink" x="0px" y="0px"
	 viewBox="0 0 512 512" style="enable-background:new 0 0 512 512;" xml:space="preserve">
<style type="text/css">
	.st0{fill:#5FCEB9;}
</style>
<path class="st0" d="M128,56h-16V40h16V56z M192,40h-48v16h48V40z M120,472h64v-16h-64V472z M184,192c0-13.2-10.8-24-24-24h-16
	c-4.4,0-8-3.6-8-8v-8h24c4.4,0,8,3.6,8,8h16c0-13.2-10.8-24-24-24v-16h-16v16h-24v24c0,13.2,10.8,24,24,24h16c4.4,0,8,3.6,8,8v8h-24
	c-4.4,0-8-3.6-8-8h-16c0,13.2,10.8,24,24,24v16h16v-16h24V192z M372.2,256c-7.4,0-14.4-1.9-20.5-5.1c0.2,1.2,0.4,2.5,0.4,3.7
	c0,8.2-3.2,15.9-9,21.7l-29.4,29.5c-1,1-1.6,2.4-1.6,3.8c0,2.5,1.7,4.6,4.1,5.2L337,320h51.3l8.8-30.9C400,279,409.3,272,419.8,272
	c10.9,0,20.3,7.4,22.9,17.9l0,0l9-9c5.8-5.8,13.5-9,21.7-9c16.9,0,30.6,13.7,30.6,30.6c0,8.2-3.2,15.9-9,21.7l-40.5,40.5
	c-6.9,6.9-15.7,11.5-25.4,13.3l-70,12.7c-4.2,0.8-8.6,1.2-12.9,1.2H296v72c0,22.1-17.9,40-40,40H48c-22.1,0-40-17.9-40-40V48
	C8,25.9,25.9,8,48,8h208c22.1,0,40,17.9,40,40v188.7l3.7-3.7c5.8-5.8,13.5-9,21.7-9c3.1,0,6,0.6,8.8,1.4c-1.4-4.3-2.2-8.9-2.2-13.6
	c0-3.1,0.3-6.2,1-9.3l20.5-95.6c2.4-11,12.2-19,23.5-19h3.1V48c0-22.1,17.9-40,40-40s40,17.9,40,40v40h3c11.2,0,21.1,8,23.5,19
	l20.5,95.6c0.6,3,1,6.2,1,9.3c0,24.4-19.8,44.2-44.2,44.2L372.2,256z M392,88h48V48c0-13.2-10.8-24-24-24s-24,10.8-24,24V88z
	 M280,392h-16v32c0,8.8-7.2,16-16,16H56c-8.8,0-16-7.2-16-16V88c0-8.8,7.2-16,16-16h192c8.8,0,16,7.2,16,16v180.7l16-16V48
	c0-13.2-10.8-24-24-24H48c-13.2,0-24,10.8-24,24v416c0,13.2,10.8,24,24,24h208c13.2,0,24-10.8,24-24V392z M56,392h64v-24h16v24h16
	v-96h-16v56h-16v-56H56V392z M56,424h192v-32h-80c0,8.8-7.2,16-16,16H56V424z M168,296v8h54.1c4.3,0,8.3-1.7,11.3-4.7l14.6-14.6V88
	H56v192h96C160.8,280,168,287.2,168,296z M404.9,320h4.5c2.1,0,4.2-0.8,5.7-2.3l14.5-14.5l-2.3-9.4c-0.9-3.4-3.9-5.8-7.4-5.8
	c-3.4,0-6.4,2.3-7.3,5.5L404.9,320z M336,254.6c0-8.1-6.6-14.6-14.6-14.6c-3.9,0-7.6,1.5-10.3,4.3l-66.3,66.3
	c-6,6-14.1,9.4-22.6,9.4H168v56h178.2c3.4,0,6.7-0.3,10-0.9l70-12.7c6.4-1.2,12.3-4.2,16.9-8.9l40.5-40.5c2.7-2.7,4.3-6.5,4.3-10.4
	c0-8.1-6.6-14.6-14.6-14.6c-3.9,0-7.6,1.5-10.3,4.3L426.3,329c-4.5,4.5-10.6,7-17,7l-75.3-0.2l-21.9-5.5
	c-9.5-2.4-16.2-10.9-16.2-20.8c0-5.7,2.2-11.1,6.3-15.1l29.4-29.4C334.4,262.2,336,258.5,336,254.6L336,254.6z M372.2,240h87.7
	c15.5,0,28.2-12.6,28.2-28.2c0-2-0.2-4-0.6-5.9l-20.5-95.6c-0.8-3.7-4.1-6.3-7.8-6.3h-86.1c-3.7,0-7,2.7-7.8,6.3l-20.5,95.6
	c-0.4,1.9-0.6,3.9-0.6,5.9C344,227.4,356.6,240,372.2,240L372.2,240z M216,168h-16v16h16V168z M88,184h16v-16H88V184z"/>
</svg>
