<?xml version="1.0" encoding="utf-8"?>
<!-- Generator: Adobe Illustrator 24.1.1, SVG Export Plug-In . SVG Version: 6.00 Build 0)  -->
<svg version="1.1" id="Layer_5" xmlns="http://www.w3.org/2000/svg" xmlns:xlink="http://www.w3.org/1999/xlink" x="0px" y="0px"
	 viewBox="0 0 512 512" style="enable-background:new 0 0 512 512;" xml:space="preserve">
<style type="text/css">
	.st0{fill:url(#SVGID_1_);}
</style>
<linearGradient id="SVGID_1_" gradientUnits="userSpaceOnUse" x1="8" y1="256" x2="504" y2="256">
	<stop  offset="0" style="stop-color:#FF6600"/>
	<stop  offset="1" style="stop-color:#FF2321"/>
</linearGradient>
<path class="st0" d="M192,232h-64v128H30.5l6.2,11.7C79.8,453.3,163.8,504,256,504s176.2-50.7,219.3-132.3l6.2-11.7H400v-96h-64v-96
	H192V232z M144,248h80v112h-80V248z M256,488c-15,0-30.1-17.9-42.6-48h85.2C286.1,470.1,271,488,256,488L256,488z M315.9,440h81.3
	c-30.9,23.7-67.5,39.5-106.7,45.3C299.9,474.5,308.5,459.3,315.9,440L315.9,440z M221.5,485.3c-39.2-5.9-75.9-21.6-106.7-45.3h81.3
	C203.5,459.3,212.1,474.5,221.5,485.3z M207.4,424c-4.8-14.2-9-30.3-12.5-48H240h48h29.1c-3.5,17.7-7.7,33.8-12.5,48H207.4z
	 M57.5,376H128h50.6c3.3,17.6,7.3,33.7,11.8,48H96C81.3,409.9,68.3,393.9,57.5,376L57.5,376z M454.5,376
	c-10.8,17.9-23.8,33.9-38.6,48h-94.5c4.5-14.3,8.5-30.4,11.8-48H400H454.5z M384,360h-80v-80h80V360z M320,184v80h-32v96h-48V232
	h-32v-48H320z M96,8C47.5,8,8,47.5,8,96s39.5,88,88,88s88-39.5,88-88S144.5,8,96,8z M50.9,152.1C57.6,133,75.5,120,96,120
	s38.4,13,45.1,32.1C128.7,162,113,168,96,168S63.3,162,50.9,152.1z M72,80c0-13.2,10.8-24,24-24s24,10.8,24,24s-10.8,24-24,24
	S72,93.2,72,80z M153.2,139.5c-6.6-13.3-17.5-23.8-30.7-29.8c8.2-7.3,13.5-17.9,13.5-29.7c0-22.1-17.9-40-40-40S56,57.9,56,80
	c0,11.9,5.3,22.4,13.5,29.7c-13.3,6-24.2,16.5-30.7,29.8C29.6,127.4,24,112.4,24,96c0-39.7,32.3-72,72-72s72,32.3,72,72
	C168,112.4,162.4,127.4,153.2,139.5z M416,8c-48.5,0-88,39.5-88,88s39.5,88,88,88s88-39.5,88-88S464.5,8,416,8z M370.9,152.1
	c6.7-19,24.5-32.1,45.1-32.1s38.4,13,45.1,32.1C448.7,162,433,168,416,168S383.3,162,370.9,152.1z M392,80c0-13.2,10.8-24,24-24
	s24,10.8,24,24s-10.8,24-24,24S392,93.2,392,80z M473.2,139.5c-6.6-13.3-17.5-23.8-30.7-29.8c8.2-7.3,13.5-17.9,13.5-29.7
	c0-22.1-17.9-40-40-40s-40,17.9-40,40c0,11.9,5.3,22.4,13.5,29.7c-13.3,6-24.2,16.5-30.7,29.8C349.6,127.4,344,112.4,344,96
	c0-39.7,32.3-72,72-72s72,32.3,72,72C488,112.4,482.4,127.4,473.2,139.5z M264,120h-16V51.3l-26.3,26.3l-11.3-11.3L256,20.7
	l45.7,45.7l-11.3,11.3L264,51.3V120z M248,136h16v16h-16V136z M384,232h76.7l-26.3-26.3l11.3-11.3l45.7,45.7l-45.7,45.7l-11.3-11.3
	l26.3-26.3H384V232z M77.7,205.7L51.3,232H112v16H51.3l26.3,26.3l-11.3,11.3L20.7,240l45.7-45.7L77.7,205.7z M272,312h-16v-16h16
	V312z M272,344h-16v-16h16V344z M272,248h-16v-16h16V248z M272,216h-16v-16h16V216z M272,280h-16v-16h16V280z M304,248h-16v-16h16
	V248z M304,216h-16v-16h16V216z M240,216h-16v-16h16V216z M160,264h16v16h-16V264z M192,264h16v16h-16V264z M192,296h16v16h-16V296z
	 M160,296h16v16h-16V296z M192,328h16v16h-16V328z M160,328h16v16h-16V328z M368,312h-16v-16h16V312z M336,312h-16v-16h16V312z
	 M336,344h-16v-16h16V344z M368,344h-16v-16h16V344z"/>
</svg>
