<?xml version="1.0" encoding="utf-8"?>
<!-- Generator: Adobe Illustrator 24.1.1, SVG Export Plug-In . SVG Version: 6.00 Build 0)  -->
<svg version="1.1" id="Layer_5" xmlns="http://www.w3.org/2000/svg" xmlns:xlink="http://www.w3.org/1999/xlink" x="0px" y="0px"
	 viewBox="0 0 512 512" style="enable-background:new 0 0 512 512;" xml:space="preserve">
<style type="text/css">
	.st0{fill:#5FCEB9;}
</style>
<path class="st0" d="M232,161.2V160h16v1.2c0,3.8,3.1,6.8,6.8,6.8h2.3c3.8,0,6.8-3.1,6.8-6.8c0-2.6-1.4-5-3.8-6.1l-15.6-7.8
	c-7.8-3.9-12.6-11.7-12.6-20.4c0-10.2,6.8-18.7,16-21.7V88h16v17.2c9.2,2.9,16,11.5,16,21.7v1.2h-16v-1.2c0-3.8-3.1-6.8-6.8-6.8
	h-2.3c-3.8,0-6.8,3.1-6.8,6.8c0,2.6,1.4,5,3.8,6.1l15.6,7.8c7.8,3.9,12.6,11.7,12.6,20.4c0,10.2-6.8,18.7-16,21.7V200h-16v-17.2
	C238.8,179.9,232,171.4,232,161.2z M8,8h496v144h-48v80.6c27.1,3.9,48,27.2,48,55.4c0,30.9-25.1,56-56,56c-1.7,0-3.3-0.1-4.9-0.2
	l-12.3,52.1C441,401.2,448,411.7,448,424c0,17.6-14.4,32-32,32s-32-14.4-32-32c0-4,0.8-7.8,2.2-11.3l-23.3-16.5l-7.4,14.9
	c7.4,4.1,12.6,11.9,12.6,21v72H160v-72c0-8.4,4.4-15.8,10.9-20.1l-25.3-33.8c-0.1-0.1-0.1-0.2-0.2-0.2L81.3,442
	c4.2,6.3,6.7,13.9,6.7,22c0,22.1-17.9,40-40,40S8,486.1,8,464s17.9-40,40-40c8.1,0,15.7,2.5,22,6.7l66.9-66.9
	c-5.8-11.9-8.9-25.1-8.9-38.4V296H56V152H8V8z M72,464c0-13.2-10.8-24-24-24s-24,10.8-24,24s10.8,24,24,24S72,477.2,72,464z M72,72
	v31.2c15.6-3.2,28-15.5,31.2-31.2H72z M440,184.8c-15.6,3.2-28,15.5-31.2,31.2H440V184.8z M440,280v-16H192v16H440z M440,232H192v16
	h248V232z M440,72h-31.2c3.2,15.6,15.5,28,31.2,31.2V72z M306.4,72c22.7,15.9,37.6,42.2,37.6,72s-14.9,56.1-37.6,72h86.2
	c3.5-24.5,22.9-43.8,47.4-47.4v-49.3c-24.5-3.5-43.8-22.9-47.4-47.4H306.4z M256,72c-39.7,0-72,32.3-72,72s32.3,72,72,72
	s72-32.3,72-72S295.7,72,256,72z M205.6,72h-86.2c-3.5,24.5-22.9,43.8-47.4,47.4v49.3c24.5,3.5,43.8,22.9,47.4,47.4h8.6
	c0-13.2,10.8-24,24-24c16.4,0,30.4,9.9,36.6,24h17c-22.7-15.9-37.6-42.2-37.6-72S182.9,87.9,205.6,72z M72,216h31.2
	c-3.2-15.6-15.5-28-31.2-31.2V216z M72,248h56v-16H72V248z M128,280v-16H72v16H128z M158.4,368.5L188,408h151.1l21.3-42.7
	c5-9.9,7.6-21.1,7.6-32.2V296H207c5.7,7,9,15.8,9,25.1V336h-16v-14.9c0-8-4-15.5-10.7-20l-13.3-8.9V232c0-13.2-10.8-24-24-24
	c-4.4,0-8,3.6-8,8v109.3C144,340.8,149.1,356.2,158.4,368.5z M352,432c0-4.4-3.6-8-8-8H184c-4.4,0-8,3.6-8,8v56h176V432z M432,424
	c0-8.8-7.2-16-16-16s-16,7.2-16,16s7.2,16,16,16S432,432.8,432,424z M427.5,340.1c-18.4-7.3-32-23.9-34.9-44.1H384v37.1
	c0,13.6-3.2,27.2-9.3,39.4l-4.6,9.2l25.4,18c5.4-4.6,12.2-7.4,19.8-7.6L427.5,340.1z M456,248.8V296h-47.2c3.7,18.2,19.9,32,39.2,32
	c22.1,0,40-17.9,40-40C488,268.7,474.2,252.5,456,248.8L456,248.8z M24,136h32V72H40V56h432v16h-16v64h32V24H24V136z"/>
</svg>
