<?xml version="1.0" encoding="utf-8"?>
<!-- Generator: Adobe Illustrator 24.1.1, SVG Export Plug-In . SVG Version: 6.00 Build 0)  -->
<svg version="1.1" id="Layer_5" xmlns="http://www.w3.org/2000/svg" xmlns:xlink="http://www.w3.org/1999/xlink" x="0px" y="0px"
	 viewBox="0 0 512 512" style="enable-background:new 0 0 512 512;" xml:space="preserve">
<style type="text/css">
	.st0{fill:url(#SVGID_1_);}
</style>
<linearGradient id="SVGID_1_" gradientUnits="userSpaceOnUse" x1="8" y1="256" x2="504.9" y2="256">
	<stop  offset="0" style="stop-color:#FF6600"/>
	<stop  offset="1" style="stop-color:#FF2321"/>
</linearGradient>
<path class="st0" d="M152,200c6.8,0,13-3.8,16-9.9l0.8-1.7l14.3,7.2l-0.8,1.7c-5.8,11.6-17.4,18.7-30.3,18.7s-24.5-7.2-30.3-18.7
	l-0.8-1.7l14.3-7.2l0.8,1.7C139,196.2,145.2,200,152,200z M184,160c4.4,0,8-3.6,8-8s-3.6-8-8-8s-8,3.6-8,8S179.6,160,184,160z
	 M128,152c0-4.4-3.6-8-8-8s-8,3.6-8,8s3.6,8,8,8S128,156.4,128,152z M504.9,176L488,209.9V456H296v48H64v-48.3
	c-31.3-2.8-56-29.1-56-61.2c0-24.9,6.3-48.6,17.5-69.6C14.6,316.1,8,302.5,8,288c0-12.8,5-24.9,14.1-33.9
	C38.8,237.3,48,216.6,48,195.8V112C48,54.7,94.7,8,152,8c29.4,0,55.9,12.3,74.9,32H456c8.8,0,16,7.2,16,16v16
	c0,7.2-4.8,13.3-11.4,15.3L504.9,176z M475.1,200l8-16H413l8,16H475.1z M297.4,88l13.3,80h78.1l-26.7-80H297.4z M253.1,88
	c1.8,7.7,2.9,15.7,2.9,24v56h38.6l-13.3-80H253.1z M256.2,200H283l8-16h-35v11.8C256,197.2,256.1,198.6,256.2,200z M316.9,184l8,16
	H379l8-16H316.9z M483.1,168l-40-80h-64l26.7,80H483.1z M239.5,56c3.3,5.1,6.1,10.4,8.5,16h208V56H239.5z M33.8,311
	c20.5-30.2,51.7-53,88.7-61.9l1.2-2.4C98.8,241,80,218.7,80,192v-60.2c0-15.2,8.5-28.9,22.1-35.8l10.2-5.1
	c1.3-10.6,7.7-19.8,17.4-24.7l2.8-1.4l7.1,14.3l-2.8,1.4c-5.4,2.7-8.8,8.2-8.8,14.2c0,6.8,4.4,12.9,10.9,15.1l7.7,2.6l-5.1,15.2
	l-7.7-2.6c-8.8-2.9-15.5-9.4-19-17.5l-5.5,2.8c-8.2,4.1-13.3,12.3-13.3,21.5V192c0,22.1,17.9,40,40,40h32c22.1,0,40-17.9,40-40v-40
	c0-13.2-10.8-24-24-24h-3.1c-4.5,0-8.9-1.1-12.9-3.1c-9.9-4.9-16-14.9-16-25.9v-1.2c0-14.1,7.8-26.7,20.4-33l7.2,14.3
	c-7.1,3.6-11.6,10.8-11.6,18.7V99c0,4.9,2.7,9.4,7.2,11.6c1.8,0.9,3.8,1.4,5.8,1.4h3.1c22.1,0,40,17.9,40,40v40
	c0,26.7-18.8,49-43.8,54.6l1.2,2.4c37,9,68.3,31.7,88.8,62c6.1-5.8,9.8-14.2,9.8-23c0-8.5-3.3-16.6-9.4-22.6
	c-19.8-19.8-30.6-44.5-30.6-69.6V112c0-48.5-39.5-88-88-88s-88,39.5-88,88v83.8c0,25.1-10.9,49.8-30.6,69.6c-6,6-9.4,14.1-9.4,22.6
	C24,296.8,27.6,305,33.8,311L33.8,311z M344,344h-16v64h16V344z M376,312h-16v96h16V312z M408,280h-16v128h16V280z M424,264v144h16
	V248H276.4c1.8,2.1,3.6,4.1,5.6,6.1c9.1,9.1,14.1,21.1,14.1,33.9c0,14.4-6.5,27.9-17.5,36.9c11.1,21,17.5,44.7,17.5,69.6V408h16v-80
	h32v-32h32v-32H424z M112,456v32h64v-32H112z M200,424c0-8.8-7.2-16-16-16h-8v-8c0-4.4-3.6-8-8-8h-1.4c-2.1,0-4.2,0.8-5.7,2.3l-9,9
	V440h32C192.8,440,200,432.8,200,424L200,424z M176,344h-64v48h28.7l9-9c4.5-4.5,10.6-7,17-7h1.4c2.8,0,5.5,0.5,8,1.4L176,344z
	 M154.8,328l14.5-32h-34.8l14.5,32H154.8z M183,266.1c-2.9-0.8-5.7-1.6-8.7-2.3l-3.8-0.8l-7.5-15h-22.1l-7.5,15l-3.8,0.8
	c-2.9,0.6-5.8,1.4-8.7,2.3l6.3,13.9h49.3L183,266.1z M69.5,440H136v-32H57.2l-0.7-7.2c-0.3-3.4-0.5-6.8-0.5-10.2v-1.7
	c0-20.5,6-40.3,17.3-57.3l13.3,8.9C77.1,354.8,72,371.6,72,388.8v1.7c0,0.5,0,0.9,0,1.4h24v-64h35.6l-25.7-56.6
	c-24.4,10.4-45,27.7-59.4,49.4h0.1l-0.5,0.7c-13.9,21.2-22,46.4-22,73C24,419.6,44.4,440,69.5,440L69.5,440z M80,488h16v-32H80V488z
	 M280,394.5c0-54.1-33.3-102.5-81.9-123.1L172.4,328H192v65.1c13.8,3.6,24,16,24,30.9s-10.2,27.3-24,30.9V488h32l0.1-49.6l6.2-30.8
	c1.1-5.6,1.7-11.4,1.7-17.1v-1.7c0-17.3-5.1-34-14.7-48.4l13.3-8.9c11.3,17,17.3,36.8,17.3,57.3v1.7c0,6.8-0.7,13.6-2,20.3l-6,30
	V488h40L280,394.5L280,394.5z M472,440V216h-60.9L400,193.9L388.9,216H315l-11-22.1L292.9,216h-34c1.6,5.5,3.7,10.8,6.5,16H456v192
	H296v16H472z"/>
</svg>
