<?xml version="1.0" encoding="utf-8"?>
<!-- Generator: Adobe Illustrator 24.1.1, SVG Export Plug-In . SVG Version: 6.00 Build 0)  -->
<svg version="1.1" id="Layer_5" xmlns="http://www.w3.org/2000/svg" xmlns:xlink="http://www.w3.org/1999/xlink" x="0px" y="0px"
	 viewBox="0 0 512 512" style="enable-background:new 0 0 512 512;" xml:space="preserve">
<style type="text/css">
	.st0{fill:#5FCEB9;}
</style>
<path class="st0" d="M459.3,18.2C448.1,11.5,435.3,8,422.3,8H352c-8.8,0-16,7.2-16,16c0,5.9,1.7,11.3,4.4,16H304
	c-13.2,0-24,10.8-24,24c0,2.8,0.6,5.5,1.5,8H256c-13.2,0-24,10.8-24,24v27.4c-32.8,9.9-56,40.6-56,75.4c0,35,23.5,66.1,57.1,75.7
	l32.6,9.3c13.1,3.8,22.3,15.9,22.3,29.6c0,16.9-13.8,30.7-30.7,30.7h-2.6c-16.9,0-30.7-13.8-30.7-30.7V312c0-13.2-10.8-24-24-24
	s-24,10.8-24,24v1.3c0,17.3,5.7,33.5,15.5,46.7h-20c2.8-4.7,4.4-10.1,4.4-16c0-8.8-7.2-16-16-16H89.7c-13,0-25.8,3.5-37,10.2
	L29.8,352H8v128h21.8l22.9,13.8c11.2,6.7,23.9,10.2,36.9,10.2H192c13.2,0,24-10.8,24-24c0-3.2-0.6-6.2-1.8-8.9
	c10.2-2.8,17.8-12,17.8-23.1c0-2.8-0.6-5.5-1.5-8H256c13.2,0,24-10.8,24-24v-27.4c32.8-9.9,56-40.6,56-75.4
	c0-35-23.5-66.1-57.1-75.7l-32.6-9.3c-13.1-3.8-22.3-15.9-22.3-29.6c0-16.9,13.8-30.7,30.7-30.7h2.6c16.9,0,30.7,13.8,30.7,30.7v1.3
	c0,13.2,10.8,24,24,24s24-10.8,24-24v-1.3c0-5-0.5-9.9-1.5-14.7h87.8c13,0,25.8-3.5,37-10.2l23-13.8H504V32h-21.8L459.3,18.2z
	 M216,448c0,4.4-3.6,8-8,8h-16h-80v16h80c4.4,0,8,3.6,8,8s-3.6,8-8,8H89.7c-10.1,0-20-2.8-28.7-8l-26.7-16H24v-96h10.2L61,352
	c8.7-5.2,18.6-8,28.7-8H160c0,8.8-7.2,16-16,16h-32h-3.3l-12.3,12.3c-7.6,7.6-17.6,11.7-28.3,11.7H56v16h12.1c15,0,29-5.8,39.6-16.4
	l7.6-7.6H144h63.4c7.3,5.5,15.6,9.9,24.6,12.6v3.4H112v16h120v8c0,2.8,0.6,5.5,1.5,8H208h-96v16h96C212.4,440,216,443.6,216,448z
	 M320,200c0,4.4-3.6,8-8,8s-8-3.6-8-8v-1.3c0-25.8-21-46.7-46.7-46.7h-2.6c-25.8,0-46.7,21-46.7,46.7c0,20.8,13.9,39.2,33.9,44.9
	l32.6,9.3c26.8,7.7,45.5,32.4,45.5,60.3c0,29.4-20.9,55.2-49.7,61.3L264,376v40c0,4.4-3.6,8-8,8s-8-3.6-8-8v-40l-6.3-1.3
	c-28.8-6.1-49.7-31.9-49.7-61.3V312c0-4.4,3.6-8,8-8s8,3.6,8,8v1.3c0,25.8,21,46.7,46.7,46.7h2.6c25.8,0,46.7-21,46.7-46.7
	c0-20.8-13.9-39.2-33.9-44.9l-32.6-9.3c-26.8-7.7-45.5-32.4-45.5-60.3c0-29.4,20.9-55.2,49.7-61.3l6.3-1.3V96c0-4.4,3.6-8,8-8
	c4.4,0,8,3.6,8,8v40l6.3,1.3c28.8,6.1,49.7,31.9,49.7,61.3V200z M488,144h-10.2L451,160c-8.7,5.2-18.6,8-28.7,8h-92.6
	c-2.4-5.7-5.5-11.1-9.2-16H400v-16h-95.4c-7.3-5.5-15.6-9.9-24.6-12.6V120h120v-16H280v-8c0-2.8-0.6-5.5-1.5-8H304h96V72h-96
	c-4.4,0-8-3.6-8-8s3.6-8,8-8h64h28.7l7.6,7.6C414.9,74.2,428.9,80,443.9,80H456V64h-12.1c-10.7,0-20.7-4.2-28.3-11.7L403.3,40H400
	h-32c-8.8,0-16-7.2-16-16h70.3c10.1,0,20,2.8,28.7,8l26.7,16H488V144z M352,320v-16h80v16H352z M160,192v16H80v-16H160z M93.4,259.4
	l-6.1-14.8l73.9-30.6l6.1,14.8L93.4,259.4z M167.3,171.2l-6.1,14.8l-73.9-30.6l6.1-14.8L167.3,171.2z M418.6,252.6l6.1,14.8
	L350.8,298l-6.1-14.8L418.6,252.6z M344.7,340.8l6.1-14.8l73.9,30.6l-6.1,14.8L344.7,340.8z"/>
</svg>
