<?xml version="1.0" encoding="utf-8"?>
<!-- Generator: Adobe Illustrator 24.1.1, SVG Export Plug-In . SVG Version: 6.00 Build 0)  -->
<svg version="1.1" id="Layer_5" xmlns="http://www.w3.org/2000/svg" xmlns:xlink="http://www.w3.org/1999/xlink" x="0px" y="0px"
	 viewBox="0 0 512 512" style="enable-background:new 0 0 512 512;" xml:space="preserve">
<style type="text/css">
	.st0{fill:#5FCEB9;}
</style>
<path class="st0" d="M432,149.3L368,64h32V8h16v72h-16l32,42.7L464,80h-16V8h16v56h32L432,149.3z M504,320v16
	c0,10.9-7.4,20-17.4,22.9l-10.6,47.6l16.1,12.7c5.3,3.1,9.1,8,10.9,13.9c1.8,6.2,1.1,12.6-2,18.3c-4.2,7.7-12.3,12.5-21.1,12.5
	c-4,0-8-1-11.5-2.9l-1.1-0.8l-2.8-2.2l-3.2,14.5c-4.1,18.4-20.2,31.3-39,31.3H249.7c-18.9,0-35-12.9-39-31.3l-3.2-14.6l-3.9,3
	C200,463,196,464,192,464c-8.8,0-16.9-4.8-21.1-12.5c-3.1-5.6-3.8-12.1-2-18.3c1.7-5.9,5.6-10.8,10.9-13.9l16.1-12.5l-6.8-30.8
	h-33.5c7.6,8.5,12.3,19.7,12.3,32c0,26.5-21.5,48-48,48s-48-21.5-48-48c0-18.1,10.1-33.8,24.9-42c-5.5-5.7-8.9-13.5-8.9-22V152H32
	c-13.2,0-24-10.8-24-24s10.8-24,24-24h48c13.2,0,24,10.8,24,24v56h84l-12-16h32V80h16v104h-16l32,42.7l32-42.7h-16V80h16v88h32
	l-12,16h100c8.8,0,16,7.2,16,16v16c0,8.8-7.2,16-16,16h-1.8L376,288.9c2.1,2.2,4.1,4.6,5.9,7.1H480C493.2,296,504,306.8,504,320z
	 M376,328c0-22.1-17.9-40-40-40s-40,17.9-40,40s17.9,40,40,40S376,350.1,376,328z M268,216h124v-16H280L268,216z M240,253.3L224,232
	H104v84.4c4.7-2.8,10.1-4.4,16-4.4h49.5c3.3-9.3,12.1-16,22.5-16h98.1c10.1-14.5,26.9-24,45.9-24c9.4,0,18.3,2.4,26.1,6.5l11.6-46.5
	H256L240,253.3z M281.4,340.3c-0.9-4-1.4-8.1-1.4-12.3c0-5.6,0.8-10.9,2.4-16H192c-4.4,0-8,3.6-8,8v16c0,4.4,3.6,8,8,8h84.7
	L281.4,340.3z M104,200v16h108l-12-16H104z M88,136v-8c0-4.4-3.6-8-8-8H32c-4.4,0-8,3.6-8,8c0,4.4,3.6,8,8,8H88z M120,376
	c-17.6,0-32,14.4-32,32s14.4,32,32,32s32-14.4,32-32S137.6,376,120,376z M185.6,360l-0.2-1.1c-10-2.9-17.4-12-17.4-22.9v-8h-48
	c-8.8,0-16,7.2-16,16s7.2,16,16,16H185.6z M210,395.9l46.1-35.9H202L210,395.9z M297.1,368.2c-3.7-3.6-7-7.8-9.6-12.3L188.2,433
	c-1.9,1-3.2,2.7-3.8,4.8c-0.6,2-0.4,4.2,0.7,6.1c2,3.6,6.6,5.1,10.4,3.4L297.1,368.2z M450.7,447.1l-88.2-69.8
	c-7.9,4.2-16.9,6.7-26.4,6.7c-9.1,0-17.7-2.2-25.4-6.1l-89.3,69.3l4.9,22c2.5,11.1,12.1,18.8,23.4,18.8H264v-72h16v72h16v-56h16v56
	h16v-88h16v88h16v-56h16v56h16v-72h16v72h14.3c11.3,0,21-7.7,23.4-18.8L450.7,447.1z M482.7,432.2l-97.6-77.3
	c-2.5,4.6-5.7,8.8-9.4,12.6l101,79.8c3.7,1.7,8.4,0.1,10.3-3.4c1-1.9,1.3-4,0.7-6.1c-0.6-2.1-2-3.8-3.8-4.8L482.7,432.2z
	 M462.1,395.5L470,360h-52.7L462.1,395.5z M488,320c0-4.4-3.6-8-8-8h-90.4c1.5,5.1,2.4,10.4,2.4,16c0,3.8-0.4,7.5-1.1,11l6.2,5H480
	c4.4,0,8-3.6,8-8L488,320z M360,328c0,13.2-10.8,24-24,24s-24-10.8-24-24s10.8-24,24-24S360,314.8,360,328z M344,328
	c0-4.4-3.6-8-8-8s-8,3.6-8,8s3.6,8,8,8S344,332.4,344,328z M224,48h-16v16h16V48z"/>
</svg>
